<svg width="21" height="25" viewBox="0 0 21 25" fill="none" xmlns="http://www.w3.org/2000/svg">
<path d="M18.8899 25H2.09765C2.07621 24.9867 2.0531 24.9758 2.02883 24.9675C0.696462 24.6804 0 23.8838 0 22.6503V2.34218C0 0.928871 1.02131 0 2.5739 0H12.9217V0.292145C12.9217 1.86193 12.9217 3.43254 12.9217 5.00399C12.9217 6.39482 13.9541 7.3237 15.4929 7.3237H20.9985V13.374C20.9985 16.4902 20.9985 19.6065 20.9985 22.7227C21.0165 23.1901 20.8698 23.6505 20.5797 24.0371C20.2896 24.4237 19.8713 24.7163 19.3854 24.8727C19.2175 24.9226 19.0523 24.9576 18.8899 25ZM10.4883 11.7659H15.2479C15.4166 11.781 15.5864 11.7485 15.7342 11.673C15.8819 11.5976 16.0005 11.4826 16.0737 11.3439C16.1344 11.2299 16.1612 11.1035 16.1514 10.9772C16.1416 10.8509 16.0957 10.7292 16.0181 10.624C15.9405 10.5188 15.8339 10.4338 15.709 10.3774C15.584 10.321 15.445 10.2953 15.3057 10.3026C13.8164 10.3026 12.3299 10.3026 10.8406 10.3026H5.71762C5.55573 10.2927 5.39421 10.3262 5.25321 10.3991C5.11221 10.4719 4.99799 10.5808 4.9248 10.7121C4.86124 10.8273 4.83243 10.9556 4.84128 11.0841C4.85013 11.2126 4.89634 11.3367 4.97521 11.4437C5.05407 11.5508 5.16278 11.637 5.29028 11.6936C5.41778 11.7501 5.55952 11.7751 5.7011 11.7659C7.29774 11.7709 8.89162 11.7684 10.4883 11.7684V11.7659ZM15.2479 14.6949C15.4143 14.7066 15.5807 14.6723 15.7251 14.5965C15.8696 14.5207 15.9854 14.407 16.0572 14.2704C16.118 14.1562 16.1448 14.0295 16.1349 13.903C16.1251 13.7765 16.0789 13.6546 16.0009 13.5493C15.923 13.444 15.816 13.3591 15.6907 13.3029C15.5653 13.2467 15.426 13.2213 15.2864 13.2291C13.5934 13.2291 11.8977 13.2291 10.2047 13.2291H5.71486C5.55313 13.2199 5.392 13.2541 5.25151 13.3273C5.11103 13.4006 4.9974 13.5097 4.9248 13.6411C4.86109 13.7564 4.83225 13.885 4.84121 14.0138C4.85018 14.1425 4.89663 14.2668 4.97583 14.3739C5.05503 14.481 5.16416 14.5672 5.29206 14.6236C5.41996 14.68 5.56205 14.7046 5.70385 14.6949H15.2479ZM10.5158 16.1606C8.91914 16.1606 7.3225 16.1606 5.72862 16.1606C5.55706 16.1474 5.38524 16.1831 5.23717 16.2628C5.08909 16.3425 4.97217 16.4621 4.90277 16.6051C4.84689 16.7213 4.82529 16.8488 4.84009 16.9749C4.85489 17.101 4.90558 17.2215 4.9872 17.3245C5.06882 17.4275 5.17856 17.5095 5.30565 17.5624C5.43274 17.6153 5.5728 17.6373 5.7121 17.6263H15.2672C15.4293 17.6361 15.5911 17.6021 15.7321 17.5288C15.8731 17.4556 15.9872 17.3461 16.06 17.2143C16.1235 17.0992 16.1523 16.9709 16.1435 16.8424C16.1346 16.7139 16.0884 16.5898 16.0096 16.4827C15.9307 16.3757 15.822 16.2895 15.6945 16.2329C15.567 16.1763 15.4252 16.1514 15.2837 16.1606H10.5158ZM8.86409 19.0896C7.81526 19.0896 6.76644 19.0896 5.71762 19.0896C5.53159 19.0913 5.34898 19.135 5.18632 19.2169C5.04342 19.2961 4.93348 19.416 4.87371 19.5578C4.81393 19.6997 4.8077 19.8556 4.85598 20.001C4.90236 20.1647 5.0102 20.3086 5.16094 20.4079C5.31167 20.5073 5.49586 20.5559 5.68183 20.5453H11.972C12.5364 20.5453 12.908 20.2482 12.9025 19.7962C12.897 19.3443 12.5391 19.0946 11.9638 19.0946L8.86409 19.0896Z" fill="#979797"/>
<path d="M20.4259 5.86046H15.4709C14.8239 5.86046 14.5156 5.58079 14.5156 4.99649C14.5156 3.56488 14.5156 2.13409 14.5156 0.704142V0.514382L20.4259 5.86046Z" fill="#979797"/>
</svg>
