<svg width="11" height="6" viewBox="0 0 11 6" fill="none" xmlns="http://www.w3.org/2000/svg">
<path d="M8.62431 2.50311L8.51972 2.38554L7.12169 0.882585C7.05333 0.820855 7.00304 0.739077 6.97689 0.647153C6.95075 0.555229 6.94987 0.457102 6.97437 0.364653C6.9954 0.283487 7.03515 0.209387 7.08991 0.149269C7.14467 0.0891501 7.21267 0.0449724 7.28754 0.0208585C7.36242 -0.00325547 7.44172 -0.00651974 7.51808 0.01137C7.59444 0.0292597 7.66537 0.0677204 7.72422 0.123163C7.74337 0.140639 7.76105 0.159704 7.77873 0.178769C8.53298 0.992209 9.28672 1.80618 10.04 2.62068C10.0902 2.66751 10.1305 2.72544 10.1581 2.79055C10.1857 2.85566 10.2 2.92641 10.2 2.998C10.2 3.0696 10.1857 3.14035 10.1581 3.20546C10.1305 3.27056 10.0902 3.3285 10.04 3.37533C9.28132 4.19513 8.51971 5.01174 7.76545 5.83472C7.70796 5.90289 7.63428 5.9528 7.55238 5.97906C7.47047 6.00531 7.38348 6.00691 7.3008 5.98368C7.21811 5.96044 7.14289 5.91326 7.08328 5.84724C7.02367 5.78122 6.98193 5.69887 6.96259 5.60911C6.94301 5.52131 6.94642 5.42938 6.97243 5.34354C6.99844 5.2577 7.04603 5.18134 7.10991 5.12296C7.54302 4.65904 7.97466 4.19195 8.40776 3.72645C8.46816 3.66131 8.53446 3.60093 8.59928 3.53897L8.58601 3.49925H0.539662C0.463958 3.50229 0.388202 3.49481 0.314266 3.47701C0.211039 3.44342 0.122757 3.37028 0.0660494 3.27138C0.00934213 3.17247 -0.0118729 3.05462 0.00638254 2.94002C0.015743 2.83003 0.0602333 2.72697 0.132244 2.64844C0.204255 2.56991 0.299306 2.52078 0.401177 2.50946C0.458592 2.50629 0.516127 2.50629 0.573542 2.50946H8.61694L8.62431 2.50311Z" fill="#1DBF73"/>
</svg>
