<svg xmlns="http://www.w3.org/2000/svg" width="16" height="16" fill="none" viewBox="0 0 16 16"><path fill="#fff" d="M7.83491 0H8.16025C8.59975 0.0674909 8.93366 0.302783 9.23522 0.601019C9.48066 0.843622 9.74322 1.07165 9.99626 1.30878C10.0587 1.37099 10.1361 1.41756 10.2217 1.44443C10.3073 1.4713 10.3984 1.47765 10.4871 1.46291C10.8952 1.40637 11.3043 1.35531 11.7115 1.29329C12.6076 1.15466 13.3039 1.60518 13.4847 2.45703C13.5675 2.85012 13.6378 3.24503 13.7016 3.64268C13.7121 3.74873 13.7513 3.85032 13.8154 3.93735C13.8795 4.02438 13.9662 4.09382 14.0669 4.13882C14.4407 4.32123 14.8079 4.50914 15.1751 4.69976C15.9486 5.10288 16.2064 5.8644 15.8277 6.62778C15.6479 6.99259 15.4662 7.35014 15.276 7.70584C15.2225 7.79653 15.1943 7.89894 15.1943 8.00314C15.1943 8.10734 15.2225 8.20979 15.276 8.30049C15.4596 8.6425 15.6318 8.98995 15.8068 9.33562C16.213 10.1364 15.9562 10.9007 15.1409 11.3184C14.7766 11.5008 14.4151 11.6933 14.0479 11.8729C13.9566 11.9136 13.8775 11.9757 13.818 12.0535C13.7584 12.1313 13.7204 12.2223 13.7073 12.318C13.6426 12.6983 13.5703 13.0768 13.5047 13.4562C13.3534 14.3327 12.7027 14.8151 11.7866 14.7148C11.3709 14.6701 10.958 14.6109 10.5499 14.5461C10.4466 14.5241 10.3391 14.5281 10.2378 14.5578C10.1366 14.5876 10.0452 14.642 9.97248 14.7158C9.67282 15.003 9.3665 15.2839 9.06018 15.5639C8.42376 16.1458 7.58186 16.1449 6.94639 15.5639C6.62929 15.2769 6.31695 14.9872 6.00936 14.6948C5.94744 14.6323 5.87049 14.5853 5.78524 14.558C5.7 14.5306 5.60906 14.5237 5.52039 14.5379C5.10657 14.5953 4.69276 14.6483 4.2837 14.7103C3.39518 14.8443 2.70169 14.3929 2.5238 13.5493C2.44008 13.1516 2.36968 12.7512 2.30404 12.3508C2.29286 12.2472 2.25386 12.1481 2.19084 12.0632C2.12782 11.9783 2.04292 11.9106 1.94445 11.8665C1.57629 11.6896 1.2148 11.5017 0.851402 11.3129C0.0532607 10.9025 -0.205493 10.1355 0.185492 9.35116C0.360531 9.00458 0.530822 8.65615 0.717277 8.31505C0.774324 8.22069 0.80436 8.11358 0.80436 8.00452C0.80436 7.89546 0.774324 7.7883 0.717277 7.69395C0.527017 7.34372 0.350066 6.98621 0.173124 6.6296C-0.207396 5.86714 0.0523182 5.10286 0.824775 4.70065C1.19673 4.5073 1.56964 4.31577 1.9473 4.13245C2.04067 4.0909 2.12146 4.0272 2.18204 3.94742C2.24262 3.86763 2.28101 3.77438 2.29358 3.67643C2.35827 3.29064 2.42772 2.90668 2.49906 2.52271C2.66078 1.65628 3.32003 1.18382 4.22377 1.29053C4.63853 1.33886 5.05235 1.39818 5.46046 1.46202C5.56163 1.4823 5.66653 1.47734 5.76513 1.44764C5.86373 1.41794 5.95274 1.36446 6.02363 1.29235C6.26431 1.05887 6.52116 0.840912 6.75899 0.605606C7.06055 0.300073 7.39446 0.0674909 7.83491 0ZM11.6886 4.97974C11.6525 4.69701 11.4375 4.49451 11.1645 4.49633C11.0886 4.50075 11.0146 4.52004 10.9468 4.55298C10.8791 4.58592 10.8191 4.63183 10.7706 4.68787C8.69488 6.67976 6.61819 8.67137 4.54055 10.6627C4.50072 10.6979 4.46441 10.7367 4.4321 10.7785C4.37922 10.8455 4.34768 10.9258 4.34126 11.0096C4.33485 11.0934 4.35384 11.1772 4.39595 11.2509C4.43346 11.3267 4.49279 11.3907 4.56694 11.4353C4.64109 11.4799 4.72699 11.5033 4.81453 11.5026C5.00479 11.509 5.1256 11.405 5.24737 11.2883C7.07767 9.53172 8.90861 7.77604 10.7402 6.02128C10.9866 5.78506 11.2387 5.55525 11.4746 5.31173C11.5567 5.20797 11.6281 5.09677 11.6877 4.97974H11.6886ZM9.94299 8.77289C9.47916 8.76844 9.03211 8.93907 8.69838 9.24793C8.36465 9.55679 8.17102 9.97912 8.1593 10.4237C8.15476 10.6479 8.19653 10.8707 8.28218 11.0793C8.36784 11.2879 8.49569 11.4783 8.65838 11.6393C8.82108 11.8004 9.01539 11.929 9.23015 12.0178C9.4449 12.1066 9.67585 12.1537 9.9097 12.1566C10.3732 12.1576 10.8186 11.9842 11.15 11.6736C11.4815 11.363 11.6725 10.94 11.682 10.4957C11.6875 10.2726 11.6467 10.0507 11.562 9.84285C11.4772 9.635 11.3502 9.4454 11.1883 9.28507C11.0263 9.12474 10.8328 8.99687 10.6188 8.90894C10.4049 8.82102 10.1748 8.77477 9.94204 8.77289H9.94299ZM6.06739 7.22702C6.53377 7.22775 6.98148 7.05141 7.31269 6.73662C7.64389 6.42182 7.83164 5.99412 7.83491 5.547C7.83495 5.09996 7.65143 4.6709 7.32404 4.35258C6.99664 4.03426 6.5517 3.85229 6.08546 3.84606C5.61913 3.84482 5.17114 4.02013 4.8389 4.33388C4.50667 4.64762 4.31706 5.07443 4.31129 5.52149C4.30802 5.74462 4.35097 5.96617 4.43766 6.17327C4.52435 6.38038 4.65305 6.56891 4.81631 6.72798C4.97957 6.88704 5.17413 7.01348 5.38873 7.09992C5.60332 7.18636 5.83367 7.2311 6.06644 7.23156L6.06739 7.22702Z"/><path fill="#fff" d="M9.92777 11.2236C9.82321 11.2244 9.71952 11.2054 9.62262 11.1678C9.52573 11.1301 9.43754 11.0745 9.36312 11.004C9.28871 10.9336 9.22952 10.8498 9.18896 10.7574C9.14841 10.665 9.12727 10.5659 9.12677 10.4656C9.12727 10.2618 9.21169 10.0663 9.36169 9.92185C9.51169 9.77736 9.71514 9.6955 9.92777 9.69406C10.1389 9.69786 10.3402 9.78053 10.4887 9.92448C10.6373 10.0684 10.7214 10.2623 10.7231 10.4648C10.7213 10.6661 10.6368 10.8587 10.488 11.0007C10.3391 11.1428 10.1378 11.2228 9.92777 11.2236Z"/><path fill="#fff" d="M6.07785 4.77452C6.28904 4.77549 6.49121 4.85667 6.6401 5.00026C6.78898 5.14386 6.87244 5.33815 6.87219 5.54063C6.86973 5.74301 6.78491 5.93646 6.63581 6.07974C6.48671 6.22303 6.28513 6.30482 6.07404 6.30766C5.86032 6.3055 5.65612 6.22256 5.50578 6.07689C5.35545 5.93123 5.27113 5.73459 5.27115 5.52967C5.27415 5.32712 5.36072 5.13394 5.5119 4.99242C5.66308 4.8509 5.86657 4.77257 6.07785 4.77452Z"/></svg>