<svg width="25" height="25" viewBox="0 0 25 25" fill="none" xmlns="http://www.w3.org/2000/svg">
<path d="M12.4905 24.9863C9.8027 24.9863 7.11731 24.9863 4.43191 24.9863C3.37056 25.0069 2.33845 24.6359 1.53026 23.9433C0.722062 23.2506 0.193643 22.2843 0.0447787 21.2266C0.0106911 20.9873 -0.00364341 20.7457 0.00177219 20.504C0.00177219 17.0421 0.00177219 13.5818 0.00177219 10.1231C-0.0197628 9.36251 0.15528 8.60934 0.509787 7.93721C0.864294 7.26509 1.38605 6.69705 2.02413 6.28874C4.64252 4.49036 7.26012 2.68803 9.87691 0.881616C11.5667 -0.284123 13.4216 -0.296245 15.1017 0.859859C17.7393 2.67109 20.372 4.48481 23 6.30086C23.6294 6.70544 24.1441 7.2668 24.4942 7.93063C24.8444 8.59446 25.0182 9.33821 24.9985 10.0895C24.9985 13.5707 24.9985 17.0502 24.9985 20.5281C25.0232 21.5962 24.6576 22.6362 23.9713 23.4512C23.2849 24.2662 22.3253 24.7996 21.2743 24.9502C21.0041 24.9892 20.7311 25.0054 20.4582 24.9984C17.8031 24.9936 15.1472 24.9895 12.4905 24.9863ZM12.5073 20.5932C13.4814 20.5932 14.4579 20.5932 15.432 20.5932C15.5685 20.5979 15.7049 20.5816 15.8365 20.5449C15.9601 20.5084 16.068 20.431 16.1427 20.3253C16.2173 20.2195 16.2545 20.0916 16.2482 19.9621C16.2545 19.8329 16.218 19.7054 16.1443 19.5994C16.0706 19.4934 15.964 19.4152 15.8413 19.3769C15.7203 19.3403 15.5941 19.324 15.4679 19.3287C13.4861 19.3287 11.5052 19.3287 9.52503 19.3287C9.41857 19.3261 9.31232 19.3383 9.20914 19.3648C9.10611 19.3881 9.01124 19.4389 8.93427 19.5117C8.85731 19.5844 8.80104 19.6766 8.77148 19.7786C8.74192 19.8807 8.74007 19.9888 8.76611 20.0918C8.79214 20.1948 8.84513 20.2889 8.91955 20.3643C9.08929 20.5041 9.30103 20.5823 9.52036 20.586C10.516 20.6053 11.5116 20.5932 12.5145 20.5932H12.5073Z" fill="white"/>
<path d="M12.4905 24.9863C9.8027 24.9863 7.11731 24.9863 4.43191 24.9863C3.37056 25.0069 2.33845 24.6359 1.53026 23.9433C0.722062 23.2506 0.193643 22.2843 0.0447787 21.2266C0.0106911 20.9873 -0.00364341 20.7457 0.00177219 20.504C0.00177219 17.0421 0.00177219 13.5818 0.00177219 10.1231C-0.0197628 9.36251 0.15528 8.60934 0.509787 7.93721C0.864294 7.26509 1.38605 6.69705 2.02413 6.28874C4.64252 4.49036 7.26012 2.68803 9.87691 0.881616C11.5667 -0.284123 13.4216 -0.296245 15.1017 0.859859C17.7393 2.67109 20.372 4.48481 23 6.30086C23.6294 6.70544 24.1441 7.2668 24.4942 7.93063C24.8444 8.59446 25.0182 9.33821 24.9985 10.0895C24.9985 13.5707 24.9985 17.0502 24.9985 20.5281C25.0232 21.5962 24.6576 22.6362 23.9713 23.4512C23.2849 24.2662 22.3253 24.7996 21.2743 24.9502C21.0041 24.9892 20.7311 25.0054 20.4582 24.9984C17.8031 24.9936 15.1472 24.9895 12.4905 24.9863ZM12.5073 20.5932C13.4814 20.5932 14.4579 20.5932 15.432 20.5932C15.5685 20.5979 15.7049 20.5816 15.8365 20.5449C15.9601 20.5084 16.068 20.431 16.1427 20.3253C16.2173 20.2195 16.2545 20.0916 16.2482 19.9621C16.2545 19.8329 16.218 19.7054 16.1443 19.5994C16.0706 19.4934 15.964 19.4152 15.8413 19.3769C15.7203 19.3403 15.5941 19.324 15.4679 19.3287C13.4861 19.3287 11.5052 19.3287 9.52503 19.3287C9.41857 19.3261 9.31232 19.3383 9.20914 19.3648C9.10611 19.3881 9.01124 19.4389 8.93427 19.5117C8.85731 19.5844 8.80104 19.6766 8.77148 19.7786C8.74192 19.8807 8.74007 19.9888 8.76611 20.0918C8.79214 20.1948 8.84513 20.2889 8.91955 20.3643C9.08929 20.5041 9.30103 20.5823 9.52036 20.586C10.516 20.6053 11.5116 20.5932 12.5145 20.5932H12.5073Z" fill="#1C4CA0"/>
</svg>
