<svg width="350" height="80" viewBox="0 0 350 80" fill="none" xmlns="http://www.w3.org/2000/svg">
<rect width="350" height="80" rx="10" fill="url(#paint0_linear_1_1606)"/>
<mask id="mask0_1_1606" style="mask-type:alpha" maskUnits="userSpaceOnUse" x="0" y="0" width="350" height="80">
<rect width="350" height="80" rx="10" fill="url(#paint1_linear_1_1606)"/>
</mask>
<g mask="url(#mask0_1_1606)">
<path d="M91 97C81.8838 78.406 56.3526 78.5819 39.5036 68.8213C18.9909 56.9356 12.7894 34.1151 15.6517 14.1471C16.6057 7.41977 15.3559 2.53243 13.2665 -1L-4.28372e-06 -1L0 97L91 97Z" fill="url(#paint2_linear_1_1606)"/>
<path d="M350 -12V89C338.004 87.4515 321.041 82.3802 310.286 66.7405C292.183 40.4163 298.39 16.1592 272.52 3.77132C253.058 -5.51959 237.702 -2.01227 226 -12H350Z" fill="url(#paint3_linear_1_1606)"/>
</g>
<defs>
<linearGradient id="paint0_linear_1_1606" x1="26.6749" y1="-12.9912" x2="37.2768" y2="132.014" gradientUnits="userSpaceOnUse">
<stop stop-color="#7C16FF"/>
<stop offset="1" stop-color="#D32F95"/>
</linearGradient>
<linearGradient id="paint1_linear_1_1606" x1="26.6749" y1="-12.9912" x2="37.2768" y2="132.014" gradientUnits="userSpaceOnUse">
<stop stop-color="#7C16FF"/>
<stop offset="1" stop-color="#D32F95"/>
</linearGradient>
<linearGradient id="paint2_linear_1_1606" x1="81.3352" y1="33.4685" x2="-83.7901" y2="100.894" gradientUnits="userSpaceOnUse">
<stop stop-color="#4F16FF"/>
<stop offset="1" stop-color="#D32F95"/>
</linearGradient>
<linearGradient id="paint3_linear_1_1606" x1="320.955" y1="-42.3039" x2="244.559" y2="145.855" gradientUnits="userSpaceOnUse">
<stop stop-color="#4F16FF"/>
<stop offset="1" stop-color="#D32F95"/>
</linearGradient>
</defs>
</svg>
