<svg width="74" height="55" viewBox="0 0 74 55" fill="none" xmlns="http://www.w3.org/2000/svg">
<path d="M35.51 21.101C35.5913 20.8735 35.6328 20.6338 35.6328 20.3924C35.6327 19.8428 35.4173 19.3148 35.0321 18.9197C34.6469 18.5246 34.122 18.2934 33.5682 18.2748C33.4397 17.7517 33.1379 17.2866 32.7111 16.954C32.2842 16.6215 31.7572 16.4406 31.2144 16.4406C31.1505 16.4406 31.0883 16.4406 31.0261 16.4406C30.8149 16.2674 30.5673 16.1432 30.3014 16.0771C30.2357 15.7537 30.0888 15.452 29.8742 15.1999C29.6597 14.9478 29.3845 14.7534 29.0741 14.6348C29.1012 14.4493 29.1147 14.262 29.1144 14.0746C29.1109 13.0279 28.6891 12.0254 27.9416 11.2865C27.1941 10.5477 26.1818 10.1328 25.1264 10.1328C24.1047 10.1328 23.1219 10.5218 22.381 11.2196C21.6401 11.9175 21.1977 12.8708 21.1451 13.8828C20.4353 13.9665 19.781 14.3055 19.3062 14.8356C18.8315 15.3657 18.5694 16.0501 18.5694 16.7591C18.5694 16.8241 18.5694 16.8875 18.5694 16.9508C18.1815 17.0003 17.825 17.1882 17.5666 17.4795C17.3082 17.7707 17.1656 18.1453 17.1656 18.5332C17.1655 18.8264 17.2469 19.1139 17.4009 19.3643C17.5548 19.6146 17.7753 19.818 18.0381 19.9522C18.0152 20.0619 18.004 20.1736 18.0045 20.2857C18.0044 20.5682 18.0805 20.8457 18.2248 21.0894H18.1911C17.8962 21.0902 17.6136 21.2068 17.4051 21.4136C17.1966 21.6204 17.079 21.9007 17.0781 22.1932C17.079 22.4857 17.1966 22.7659 17.4051 22.9727C17.6136 23.1795 17.8962 23.2961 18.1911 23.297H35.2982C35.5931 23.2961 35.8757 23.1795 36.0842 22.9727C36.2928 22.7659 36.4103 22.4857 36.4112 22.1932C36.4122 21.9357 36.3229 21.6859 36.1584 21.4866C35.994 21.2873 35.7647 21.151 35.51 21.101Z" fill="#DFF1FD"/>
<path d="M43.218 17.9915C43.1556 17.8181 43.1238 17.6354 43.1239 17.4513C43.1241 17.0324 43.2883 16.63 43.5819 16.3289C43.8754 16.0278 44.2755 15.8515 44.6976 15.8372C44.7967 15.4396 45.0272 15.0863 45.3523 14.8337C45.6774 14.581 46.0785 14.4436 46.4915 14.4433C46.5402 14.4433 46.5873 14.4433 46.6344 14.4433C46.796 14.3118 46.9849 14.2173 47.1875 14.1665C47.2382 13.9204 47.3503 13.6908 47.5136 13.4988C47.6769 13.3069 47.8862 13.1586 48.1223 13.0677C48.102 12.9263 48.0919 12.7836 48.0921 12.6408C48.0939 11.8424 48.4149 11.0774 48.9848 10.5134C49.5546 9.94951 50.3268 9.63281 51.1318 9.63281C51.9108 9.63262 52.6601 9.92902 53.2251 10.4608C53.7901 10.9926 54.1277 11.7193 54.1682 12.4908C54.7089 12.5548 55.2071 12.8131 55.5686 13.2168C55.9302 13.6206 56.13 14.1417 56.1303 14.6817C56.1303 14.7317 56.1303 14.7801 56.1303 14.8285C56.4261 14.8662 56.6979 15.0096 56.8947 15.2318C57.0916 15.4541 57.2 15.7399 57.1996 16.0357C57.1994 16.2588 57.1373 16.4777 57.0202 16.6682C56.9031 16.8588 56.7354 17.0137 56.5355 17.1161C56.5524 17.1973 56.5609 17.28 56.5607 17.3629C56.5605 17.5786 56.5025 17.7904 56.3926 17.9765H56.4178C56.6414 17.977 56.8558 18.0647 57.0147 18.2207C57.1736 18.3767 57.2642 18.5885 57.2668 18.8102C57.2664 19.0334 57.1768 19.2473 57.0177 19.4052C56.8585 19.563 56.6428 19.6518 56.4178 19.6523H43.3862C43.1611 19.6518 42.9454 19.563 42.7863 19.4052C42.6271 19.2473 42.5376 19.0334 42.5371 18.8102C42.539 18.6171 42.6076 18.4304 42.7315 18.2814C42.8554 18.1324 43.0272 18.0301 43.218 17.9915Z" fill="#DFF1FD"/>
<path d="M34.5063 5.97099C34.4625 5.84662 34.4398 5.7159 34.4391 5.58415C34.4397 5.28491 34.5573 4.99757 34.767 4.78243C34.9767 4.56729 35.2623 4.44108 35.5638 4.43031C35.6339 4.14519 35.7983 3.89163 36.0309 3.71024C36.2635 3.52884 36.5508 3.43011 36.8467 3.42986C36.8808 3.42816 36.9151 3.42816 36.9492 3.42986C37.0667 3.34125 37.202 3.2787 37.346 3.24645C37.382 3.06964 37.4626 2.90475 37.5802 2.76714C37.6978 2.62953 37.8486 2.52367 38.0185 2.45943C38.0035 2.3584 37.9962 2.2564 37.9967 2.15429C37.9967 1.58294 38.2255 1.03499 38.6329 0.630978C39.0403 0.226969 39.5928 0 40.1689 0C40.7254 0.000111756 41.2607 0.212063 41.6642 0.592129C42.0678 0.972195 42.3089 1.49138 42.3377 2.04258C42.7246 2.08827 43.0811 2.27302 43.3398 2.56187C43.5985 2.85071 43.7415 3.22359 43.7416 3.60994C43.7416 3.64496 43.7416 3.67997 43.7416 3.71499C43.9529 3.74211 44.147 3.84453 44.2878 4.00314C44.4285 4.16176 44.5063 4.36574 44.5066 4.57704C44.5066 4.73669 44.4622 4.89325 44.3783 5.02948C44.2943 5.1657 44.1741 5.27628 44.0308 5.34905C44.0429 5.40721 44.049 5.46642 44.0493 5.52579C44.0497 5.68015 44.0079 5.83172 43.9282 5.96432H43.9467C44.1077 5.96432 44.2621 6.02774 44.3759 6.14062C44.4897 6.25351 44.5537 6.40661 44.5537 6.56626C44.5532 6.72561 44.4891 6.87829 44.3753 6.99081C44.2615 7.10334 44.1074 7.16652 43.9467 7.16652H34.6223C34.4616 7.16652 34.3075 7.10334 34.1938 6.99081C34.08 6.87829 34.0158 6.72561 34.0154 6.56626C34.0147 6.4259 34.0633 6.28969 34.1529 6.18105C34.2425 6.07241 34.3675 5.99813 34.5063 5.97099Z" fill="#DFF1FD"/>
<path d="M48.2856 32.0083C48.2238 31.8348 48.1925 31.652 48.1931 31.468C48.1929 31.0495 48.3568 30.6472 48.6501 30.3463C48.9435 30.0455 49.3433 29.8695 49.7651 29.8556C49.8639 29.4577 50.0943 29.104 50.4194 28.851C50.7446 28.5981 51.1458 28.4604 51.559 28.46C51.6078 28.46 51.6549 28.46 51.7036 28.46C51.8645 28.3283 52.0528 28.2338 52.2551 28.1832C52.3059 27.9369 52.4183 27.7072 52.5819 27.5152C52.7455 27.3233 52.9552 27.1751 53.1916 27.0844C53.1706 26.9431 53.16 26.8004 53.1596 26.6575C53.1596 26.2617 53.2382 25.8698 53.391 25.5041C53.5438 25.1385 53.7678 24.8062 54.05 24.5264C54.3323 24.2466 54.6674 24.0247 55.0362 23.8734C55.405 23.7221 55.8003 23.6443 56.1994 23.6445C56.9782 23.6444 57.7273 23.9408 58.292 24.4727C58.8568 25.0045 59.194 25.7311 59.2341 26.5025C59.7749 26.5662 60.2733 26.8244 60.6349 27.2282C60.9966 27.632 61.1962 28.1534 61.1961 28.6934C61.1961 28.7418 61.1961 28.7918 61.1961 28.8402C61.4918 28.8778 61.7636 29.021 61.9607 29.2428C62.1578 29.4646 62.2667 29.7501 62.2671 30.0457C62.2665 30.2698 62.2034 30.4894 62.0847 30.6801C61.966 30.8708 61.7964 31.0252 61.5946 31.1262C61.6116 31.2079 61.62 31.2912 61.6198 31.3746C61.6196 31.5898 61.5616 31.801 61.4517 31.9866H61.4786C61.7022 31.9892 61.9157 32.079 62.0731 32.2366C62.2304 32.3942 62.3188 32.6069 62.3192 32.8286C62.3166 33.0489 62.2272 33.2595 62.0701 33.4153C61.913 33.5711 61.7007 33.6597 61.4786 33.6623H48.4403C48.2181 33.6597 48.0058 33.5711 47.8487 33.4153C47.6916 33.2595 47.6022 33.0489 47.5996 32.8286C47.6016 32.6346 47.6709 32.4471 47.7958 32.2977C47.9207 32.1484 48.0937 32.0461 48.2856 32.0083Z" fill="#DFF1FD"/>
<path d="M5.31374 37.7951C5.25193 37.6216 5.22065 37.4388 5.22126 37.2548C5.22144 36.8363 5.38541 36.4341 5.67864 36.133C5.97186 35.8319 6.37146 35.6555 6.79327 35.6408C6.89239 35.2431 7.12289 34.8898 7.44801 34.6372C7.77313 34.3846 8.17416 34.2471 8.58719 34.2468C8.63595 34.2468 8.68302 34.2468 8.73178 34.2468C8.89262 34.1151 9.081 34.0206 9.28325 33.97C9.33405 33.7238 9.44642 33.4941 9.61005 33.3021C9.77368 33.1101 9.98332 32.9619 10.2197 32.8712C10.1988 32.7299 10.1882 32.5872 10.1878 32.4444C10.1878 31.6448 10.508 30.878 11.0781 30.3127C11.6482 29.7473 12.4213 29.4297 13.2275 29.4297C14.0062 29.4299 14.7551 29.7265 15.3198 30.2583C15.8844 30.79 16.2218 31.5164 16.2623 32.2876C16.8046 32.3519 17.3042 32.6116 17.666 33.0175C18.0278 33.4233 18.2265 33.9469 18.2243 34.4886C18.2243 34.5364 18.2243 34.5848 18.2243 34.6337C18.5203 34.6714 18.7923 34.8147 18.9894 35.0369C19.1865 35.2591 19.2953 35.5449 19.2953 35.8409C19.2945 36.0649 19.2313 36.2845 19.1126 36.4751C18.9939 36.6658 18.8244 36.8202 18.6228 36.9214C18.6397 37.0025 18.6482 37.0852 18.648 37.1681C18.6478 37.3838 18.5898 37.5956 18.4799 37.7817H18.5068C18.7289 37.7843 18.9412 37.873 19.0983 38.0288C19.2554 38.1846 19.3448 38.3951 19.3474 38.6154C19.347 38.8372 19.2585 39.0499 19.1012 39.2075C18.9439 39.365 18.7303 39.4549 18.5068 39.4575H5.47345C5.24987 39.4549 5.03632 39.365 4.879 39.2075C4.72168 39.0499 4.63324 38.8372 4.63281 38.6154C4.63397 38.4219 4.70231 38.2347 4.82633 38.0853C4.95034 37.9359 5.12247 37.8334 5.31374 37.7951Z" fill="#DFF1FD"/>
<path d="M37 54.9999C57.4345 54.9999 74 52.3564 74 49.0956C74 45.8347 57.4345 43.1913 37 43.1913C16.5655 43.1913 0 45.8347 0 49.0956C0 52.3564 16.5655 54.9999 37 54.9999Z" fill="#C6E6FD"/>
<path d="M61.3196 20.3138C61.3196 20.3138 60.2015 16.287 60.4083 14.5129C60.6151 12.7387 61.597 13.304 61.7836 14.6279C61.9702 15.9518 63.0698 15.2565 62.2577 13.3273C61.4457 11.3981 63.3825 10.0809 63.7541 11.2481C64.1256 12.4153 62.4998 16.5121 63.1085 16.7305C63.7171 16.9489 63.7692 14.8397 64.4249 14.918C65.0806 14.9964 65.1613 17.0573 63.9323 18.5296C62.7033 20.002 62.6982 21.0841 62.1939 21.3159C61.6895 21.5477 61.3196 20.3138 61.3196 20.3138Z" fill="url(#paint0_linear_1_1613)"/>
<path d="M61.874 19.9378C61.874 19.9378 61.6907 18.2488 61.9782 17.5418C62.2657 16.8348 62.6406 15.4375 62.6406 15.4375" stroke="#4089C1" stroke-width="1.85" stroke-miterlimit="10" stroke-linecap="round"/>
<path d="M61.9072 17.7109C61.9072 17.7109 61.3173 16.6371 61.403 16.1719" stroke="#4089C1" stroke-width="1.85" stroke-miterlimit="10" stroke-linecap="round"/>
<path d="M61.8008 18.3513C61.8243 18.428 63.9764 17.2942 64.1327 16.6289" stroke="#4089C1" stroke-width="1.85" stroke-miterlimit="10" stroke-linecap="round"/>
<path d="M59.4102 25.6452C59.4102 25.6452 59.7733 22.6005 61.5286 20.5896C63.2839 18.5787 64.3952 18.3086 64.3952 18.3086C64.3952 18.3086 65.4309 20.8397 63.299 23.5693C61.1671 26.2988 58.3325 28.4798 59.4102 25.6452Z" fill="url(#paint1_linear_1_1613)"/>
<path d="M59.2402 26.9037C59.2402 26.9037 62.7709 21.9615 63.8621 19.0352" stroke="#B2C0CA" stroke-width="0.92" stroke-miterlimit="10" stroke-linecap="round"/>
<path d="M59.5801 26.4217C59.5801 26.4217 60.873 25.8948 61.0747 25.6914" stroke="#B2C0CA" stroke-width="0.92" stroke-miterlimit="10" stroke-linecap="round"/>
<path d="M60.3067 22.9414C60.0629 23.48 60.5135 25.049 60.5135 25.049C60.5135 25.049 61.8905 25.024 62.0754 24.8122" stroke="#B2C0CA" stroke-width="0.92" stroke-miterlimit="10" stroke-linecap="round"/>
<path d="M61.4121 23.6447C61.9036 23.6148 62.391 23.5388 62.8681 23.418" stroke="#B2C0CA" stroke-width="0.92" stroke-miterlimit="10" stroke-linecap="round"/>
<path d="M62.1384 22.3711C62.1384 22.3711 63.6129 22.4528 63.9643 22.0977" stroke="#B2C0CA" stroke-width="0.92" stroke-miterlimit="10" stroke-linecap="round"/>
<path d="M61.7759 23.0068C61.7759 23.0068 61.2567 21.3827 61.5474 20.9492" stroke="#B2C0CA" stroke-width="0.92" stroke-miterlimit="10" stroke-linecap="round"/>
<path d="M62.8359 21.2202C62.8359 21.2202 64.0296 21.2019 64.3171 20.8867" stroke="#B2C0CA" stroke-width="0.92" stroke-miterlimit="10" stroke-linecap="round"/>
<path d="M63.1791 20.5673C63.1791 20.5673 62.8565 19.872 62.9724 19.6836" stroke="#B2C0CA" stroke-width="0.92" stroke-miterlimit="10" stroke-linecap="round"/>
<path d="M59.5392 22.3174C59.5392 22.3174 58.981 20.1498 59.6401 18.3357C60.2991 16.5215 60.9851 16.043 60.9851 16.043C60.9851 16.043 62.357 17.4919 61.6324 19.8964C60.9077 22.3008 59.556 24.5251 59.5392 22.3174Z" fill="url(#paint2_linear_1_1613)"/>
<path d="M59.7578 23.2115C59.7578 23.2115 60.8473 18.9412 60.8137 16.6719" stroke="#B2C0CA" stroke-width="0.92" stroke-miterlimit="10" stroke-linecap="round"/>
<path d="M59.8574 22.7939C59.8574 22.7939 60.5938 22.1019 60.6779 21.9102" stroke="#B2C0CA" stroke-width="0.92" stroke-miterlimit="10" stroke-linecap="round"/>
<path d="M59.4263 20.2383C59.4028 20.6668 60.1224 21.6139 60.1224 21.6139C60.1224 21.6139 61.0505 21.2404 61.1211 21.0486" stroke="#B2C0CA" stroke-width="0.92" stroke-miterlimit="10" stroke-linecap="round"/>
<path d="M60.3635 20.4421C60.6889 20.2939 60.9996 20.1158 61.2916 19.9102" stroke="#B2C0CA" stroke-width="0.92" stroke-miterlimit="10" stroke-linecap="round"/>
<path d="M60.5234 19.3779C60.5234 19.3779 61.5457 19.0444 61.6902 18.7109" stroke="#B2C0CA" stroke-width="0.92" stroke-miterlimit="10" stroke-linecap="round"/>
<path d="M60.4418 19.9003C60.4418 19.9003 59.66 18.9332 59.7424 18.5664" stroke="#B2C0CA" stroke-width="0.92" stroke-miterlimit="10" stroke-linecap="round"/>
<path d="M60.6934 18.4278C60.6934 18.4278 61.4987 18.106 61.608 17.8125" stroke="#B2C0CA" stroke-width="0.92" stroke-miterlimit="10" stroke-linecap="round"/>
<path d="M60.7512 17.8946C60.7512 17.8946 60.3479 17.5061 60.3764 17.3477" stroke="#B2C0CA" stroke-width="0.92" stroke-miterlimit="10" stroke-linecap="round"/>
<path d="M58.4382 37.4939C58.4382 37.4939 55.1547 30.5124 54.9815 27.2226C54.8083 23.9328 56.767 24.6598 57.5169 27.0109C58.2667 29.3619 60.0522 27.7612 57.9775 24.5098C55.9028 21.2583 59.0149 18.262 60.0522 20.2712C61.0896 22.2804 59.4049 30.2273 60.5785 30.4424C61.752 30.6575 61.1921 26.8008 62.4094 26.7424C63.6266 26.6841 64.4135 30.4107 62.6364 33.4621C60.8593 36.5134 61.1854 38.4843 60.3397 39.0612C59.4941 39.6382 58.4382 37.4939 58.4382 37.4939Z" fill="url(#paint3_linear_1_1613)"/>
<path d="M59.3172 36.6241C59.3172 36.6241 58.4614 33.6078 58.764 32.2372C59.0666 30.8665 59.3172 28.207 59.3172 28.207" stroke="#4089C1" stroke-width="1.85" stroke-miterlimit="10" stroke-linecap="round"/>
<path d="M58.6986 32.5764C58.6986 32.5764 57.2931 30.8056 57.2931 29.9336" stroke="#4089C1" stroke-width="1.85" stroke-miterlimit="10" stroke-linecap="round"/>
<path d="M58.6973 33.777C58.7628 33.9104 62.3238 31.1908 62.3961 29.9336" stroke="#4089C1" stroke-width="1.85" stroke-miterlimit="10" stroke-linecap="round"/>
<path d="M60.3655 43.9376C60.3655 43.9376 58.516 39.5823 59.3331 35.5655C60.1503 31.5488 61.4314 30.3516 61.4314 30.3516C61.4314 30.3516 64.7553 32.9644 63.9869 38.2267C63.2186 43.4891 61.0968 48.5597 60.3655 43.9376Z" fill="url(#paint4_linear_1_1613)"/>
<path d="M61.1074 45.7606C61.1074 45.7606 62.0586 36.4782 61.2755 31.7344" stroke="#B2C0CA" stroke-width="1.85" stroke-miterlimit="10" stroke-linecap="round"/>
<path d="M61.1893 44.8621C61.1893 44.8621 62.5175 43.183 62.6336 42.7578" stroke="#B2C0CA" stroke-width="1.85" stroke-miterlimit="10" stroke-linecap="round"/>
<path d="M59.4922 39.625C59.5779 40.5304 61.3819 42.2929 61.3819 42.2929C61.3819 42.2929 63.2095 41.224 63.2952 40.8005" stroke="#B2C0CA" stroke-width="1.85" stroke-miterlimit="10" stroke-linecap="round"/>
<path d="M61.5156 39.7583C61.5156 39.7583 62.7463 38.9596 63.2944 38.3594" stroke="#B2C0CA" stroke-width="1.85" stroke-miterlimit="10" stroke-linecap="round"/>
<path d="M61.5156 37.4941C61.5156 37.4941 63.555 36.4937 63.7551 35.75" stroke="#B2C0CA" stroke-width="1.85" stroke-miterlimit="10" stroke-linecap="round"/>
<path d="M61.5154 38.6386C61.5154 38.6386 59.5769 36.8511 59.6341 36.0508" stroke="#B2C0CA" stroke-width="1.85" stroke-miterlimit="10" stroke-linecap="round"/>
<path d="M61.5684 35.4474C61.5684 35.4474 63.1538 34.5236 63.2934 33.875" stroke="#B2C0CA" stroke-width="1.85" stroke-miterlimit="10" stroke-linecap="round"/>
<path d="M61.5312 34.3056C61.5312 34.3056 60.5662 33.6153 60.5763 33.2734" stroke="#B2C0CA" stroke-width="1.85" stroke-miterlimit="10" stroke-linecap="round"/>
<path d="M63.2794 42.7094C63.2794 42.7094 62.7329 38.0173 64.6412 34.384C66.5495 30.7507 68.1215 29.957 68.1215 29.957C68.1215 29.957 70.5812 33.3852 68.3636 38.2257C66.146 43.0662 62.6825 47.3514 63.2794 42.7094Z" fill="url(#paint5_linear_1_1613)"/>
<path d="M63.4824 44.6475C63.4824 44.6475 67.0131 35.997 67.5915 31.2266" stroke="#B2C0CA" stroke-width="1.85" stroke-miterlimit="10" stroke-linecap="round"/>
<path d="M63.8164 43.816C63.8164 43.816 65.5649 42.5721 65.7953 42.1953" stroke="#B2C0CA" stroke-width="1.85" stroke-miterlimit="10" stroke-linecap="round"/>
<path d="M63.6505 38.3359C63.4824 39.228 64.7164 41.4206 64.7164 41.4206C64.7164 41.4206 66.771 40.8987 66.9744 40.5152" stroke="#B2C0CA" stroke-width="1.85" stroke-miterlimit="10" stroke-linecap="round"/>
<path d="M65.5605 39.02C65.5605 39.02 66.9678 38.5932 67.6622 38.168" stroke="#B2C0CA" stroke-width="1.85" stroke-miterlimit="10" stroke-linecap="round"/>
<path d="M66.1971 36.8585C66.1971 36.8585 68.4366 36.4616 68.8384 35.8047" stroke="#B2C0CA" stroke-width="1.85" stroke-miterlimit="10" stroke-linecap="round"/>
<path d="M65.8789 37.9349C65.8789 37.9349 64.5204 35.6823 64.7995 34.9336" stroke="#B2C0CA" stroke-width="1.85" stroke-miterlimit="10" stroke-linecap="round"/>
<path d="M66.8301 34.8876C66.8301 34.8876 68.6122 34.4391 68.9283 33.8555" stroke="#B2C0CA" stroke-width="1.85" stroke-miterlimit="10" stroke-linecap="round"/>
<path d="M67.1044 33.7734C67.1044 33.7734 66.3713 32.8447 66.4773 32.5195" stroke="#B2C0CA" stroke-width="1.85" stroke-miterlimit="10" stroke-linecap="round"/>
<path d="M29.0537 41.5304C29.0537 41.5304 22.1403 39.6279 18.1103 34.9275C14.0802 30.2271 13.8516 27.6009 13.8516 27.6009C13.8516 27.6009 20.0723 26.1403 25.6205 31.9528C31.1688 37.7654 35.2476 44.992 29.0537 41.5304Z" fill="url(#paint6_linear_1_1613)"/>
<path d="M31.9044 42.3434C31.9044 42.3434 21.7259 32.5657 15.3438 29.0508" stroke="#B2C0CA" stroke-width="1.85" stroke-miterlimit="10" stroke-linecap="round"/>
<path d="M30.9101 41.4223C30.9101 41.4223 30.1485 38.2975 29.75 37.7656" stroke="#B2C0CA" stroke-width="1.85" stroke-miterlimit="10" stroke-linecap="round"/>
<path d="M23.1016 38.5311C24.2616 39.2748 28.0479 38.8046 28.0479 38.8046C28.0479 38.8046 28.4783 35.6649 28.0479 35.168" stroke="#B2C0CA" stroke-width="1.85" stroke-miterlimit="10" stroke-linecap="round"/>
<path d="M25.1351 36.2687C25.1351 36.2687 25.33 34.0794 25.125 32.8789" stroke="#B2C0CA" stroke-width="1.85" stroke-miterlimit="10" stroke-linecap="round"/>
<path d="M22.4453 34.162C22.4453 34.162 23.1561 30.8372 22.4571 29.9102" stroke="#B2C0CA" stroke-width="1.85" stroke-miterlimit="10" stroke-linecap="round"/>
<path d="M23.7933 35.2218C23.7933 35.2218 19.8591 35.8204 18.9529 35.0117" stroke="#B2C0CA" stroke-width="1.85" stroke-miterlimit="10" stroke-linecap="round"/>
<path d="M20.047 32.1852C20.047 32.1852 20.4268 29.464 19.7832 28.6953" stroke="#B2C0CA" stroke-width="1.85" stroke-miterlimit="10" stroke-linecap="round"/>
<path d="M18.6419 31.1641C18.6419 31.1641 16.9185 31.6509 16.5234 31.3208" stroke="#B2C0CA" stroke-width="1.85" stroke-miterlimit="10" stroke-linecap="round"/>
<path d="M15.2208 33.3472C15.2208 33.3472 10.9637 32.18 8.48217 29.2804C6.0006 26.3808 5.85938 24.7684 5.85938 24.7684C5.85938 24.7684 9.68766 23.8697 13.1107 27.4496C16.5338 31.0295 19.0356 35.4765 15.2208 33.3472Z" fill="url(#paint7_linear_1_1613)"/>
<path d="M16.9838 33.8393C16.9838 33.8393 10.7143 27.8183 6.78516 25.6523" stroke="#B2C0CA" stroke-width="1.85" stroke-miterlimit="10" stroke-linecap="round"/>
<path d="M16.3705 33.2644C16.3705 33.2644 15.9014 31.3402 15.6543 31.0117" stroke="#B2C0CA" stroke-width="1.85" stroke-miterlimit="10" stroke-linecap="round"/>
<path d="M11.5605 31.5006C12.2751 31.9575 14.6053 31.6673 14.6053 31.6673C14.6053 31.6673 14.871 29.7348 14.6053 29.4297" stroke="#B2C0CA" stroke-width="1.85" stroke-miterlimit="10" stroke-linecap="round"/>
<path d="M12.8164 30.0971C12.8164 30.0971 12.9374 28.7481 12.8164 28.0078" stroke="#B2C0CA" stroke-width="1.85" stroke-miterlimit="10" stroke-linecap="round"/>
<path d="M11.1604 28.8187C11.1604 28.8187 11.599 26.7711 11.1604 26.1992" stroke="#B2C0CA" stroke-width="1.85" stroke-miterlimit="10" stroke-linecap="round"/>
<path d="M11.9926 29.4487C11.9926 29.4487 9.56486 29.8222 9.01172 29.3203" stroke="#B2C0CA" stroke-width="1.85" stroke-miterlimit="10" stroke-linecap="round"/>
<path d="M9.6739 27.5751C9.6739 27.5751 9.90749 25.8993 9.50586 25.4258" stroke="#B2C0CA" stroke-width="1.85" stroke-miterlimit="10" stroke-linecap="round"/>
<path d="M8.81835 26.9453C8.81835 26.9453 7.75746 27.2454 7.51367 27.042" stroke="#B2C0CA" stroke-width="1.85" stroke-miterlimit="10" stroke-linecap="round"/>
<path d="M13.8827 29.3436C13.8827 29.3436 10.7135 26.2906 9.9351 22.5689C9.15666 18.8473 9.81404 17.3633 9.81404 17.3633C9.81404 17.3633 13.6104 18.3954 14.8814 23.1625C16.1525 27.9297 16.1996 33.0253 13.8827 29.3436Z" fill="url(#paint8_linear_1_1613)"/>
<path d="M15.1792 30.6118C15.1792 30.6118 12.5901 22.3465 10.1875 18.5781" stroke="#B2C0CA" stroke-width="1.85" stroke-miterlimit="10" stroke-linecap="round"/>
<path d="M14.9219 29.8238C14.9219 29.8238 15.4411 27.913 15.384 27.5078" stroke="#B2C0CA" stroke-width="1.85" stroke-miterlimit="10" stroke-linecap="round"/>
<path d="M11.5527 25.9801C11.9579 26.7221 14.1436 27.5775 14.1436 27.5775C14.1436 27.5775 15.3205 26.0068 15.2297 25.6133" stroke="#B2C0CA" stroke-width="1.85" stroke-miterlimit="10" stroke-linecap="round"/>
<path d="M13.3301 25.3381C13.3301 25.3381 14.0883 24.2126 14.3388 23.5039" stroke="#B2C0CA" stroke-width="1.85" stroke-miterlimit="10" stroke-linecap="round"/>
<path d="M12.5 23.4194C12.5 23.4194 13.8753 21.8303 13.7727 21.125" stroke="#B2C0CA" stroke-width="1.85" stroke-miterlimit="10" stroke-linecap="round"/>
<path d="M12.9132 24.3822C12.9132 24.3822 10.6032 23.5485 10.3594 22.8516" stroke="#B2C0CA" stroke-width="1.85" stroke-miterlimit="10" stroke-linecap="round"/>
<path d="M11.793 21.6461C11.793 21.6461 12.8017 20.2872 12.6891 19.6836" stroke="#B2C0CA" stroke-width="1.85" stroke-miterlimit="10" stroke-linecap="round"/>
<path d="M11.3388 20.6915C11.3388 20.6915 10.2611 20.4514 10.1467 20.1562" stroke="#B2C0CA" stroke-width="1.85" stroke-miterlimit="10" stroke-linecap="round"/>
<path d="M16.3693 38.5028C16.3693 38.5028 12.2064 29.6522 11.9845 25.4837C11.7626 21.3152 14.2509 22.2339 15.2008 25.2153C16.1507 28.1966 18.4154 26.1673 15.7859 22.0355C13.1564 17.9037 17.1007 14.1136 18.4154 16.6614C19.7302 19.2092 17.595 29.2854 19.0879 29.5539C20.5809 29.8223 19.8647 24.9368 21.4081 24.8618C22.9515 24.7867 23.9485 29.5105 21.6956 33.3822C19.4427 37.2539 19.8563 39.7501 18.7853 40.482C17.7143 41.214 16.3693 38.5028 16.3693 38.5028Z" fill="url(#paint9_linear_1_1613)"/>
<path d="M17.4902 37.3879C17.4902 37.3879 16.4057 33.5629 16.7891 31.8238C17.1724 30.0847 17.4902 26.7148 17.4902 26.7148" stroke="#4089C1" stroke-width="1.85" stroke-miterlimit="10" stroke-linecap="round"/>
<path d="M16.7121 32.2672C16.7121 32.2672 14.9316 30.0196 14.9316 28.9141" stroke="#4089C1" stroke-width="1.85" stroke-miterlimit="10" stroke-linecap="round"/>
<path d="M16.707 33.7896C16.7911 33.9563 21.307 30.5098 21.4045 28.9141" stroke="#4089C1" stroke-width="1.85" stroke-miterlimit="10" stroke-linecap="round"/>
<path d="M29.0035 43.963C29.0035 43.963 22.0313 45.6304 16.2039 43.4778C10.3766 41.3251 8.88867 39.1342 8.88867 39.1342C8.88867 39.1342 13.5963 34.8573 21.31 37.2517C29.0237 39.6461 36.1103 43.988 29.0035 43.963Z" fill="url(#paint10_linear_1_1613)"/>
<path d="M31.8971 43.312C31.8971 43.312 18.2064 39.6837 10.9062 39.6953" stroke="#B2C0CA" stroke-width="1.85" stroke-miterlimit="10" stroke-linecap="round"/>
<path d="M30.579 42.9783C30.579 42.9783 28.3798 40.6155 27.7695 40.3438" stroke="#B2C0CA" stroke-width="1.85" stroke-miterlimit="10" stroke-linecap="round"/>
<path d="M22.3359 44.2197C23.7146 44.308 26.7897 42.0704 26.7897 42.0704C26.7897 42.0704 25.6245 39.1207 25.0109 38.8906" stroke="#B2C0CA" stroke-width="1.85" stroke-miterlimit="10" stroke-linecap="round"/>
<path d="M23.003 41.2549C23.003 41.2549 22.0984 39.254 21.3301 38.2969" stroke="#B2C0CA" stroke-width="1.85" stroke-miterlimit="10" stroke-linecap="round"/>
<path d="M19.6194 40.7161C19.6194 40.7161 18.6106 37.4696 17.543 36.9961" stroke="#B2C0CA" stroke-width="1.85" stroke-miterlimit="10" stroke-linecap="round"/>
<path d="M21.3172 40.9922C21.3172 40.9922 18.1715 43.4233 16.9862 43.1465" stroke="#B2C0CA" stroke-width="1.85" stroke-miterlimit="10" stroke-linecap="round"/>
<path d="M16.5513 40.1501C16.5513 40.1501 15.5425 37.589 14.6094 37.2305" stroke="#B2C0CA" stroke-width="1.85" stroke-miterlimit="10" stroke-linecap="round"/>
<path d="M14.8243 39.9336C14.8243 39.9336 13.5583 41.1908 13.0488 41.0924" stroke="#B2C0CA" stroke-width="1.85" stroke-miterlimit="10" stroke-linecap="round"/>
<path d="M16.1659 41.9382C15.9878 41.7389 15.792 41.5558 15.5808 41.3913C15.373 41.2269 15.1539 41.077 14.9251 40.9427C14.6916 40.8053 14.4476 40.686 14.1954 40.5859C14.1316 40.5592 14.066 40.5359 14.0004 40.5125L13.8995 40.4792C13.8608 40.4643 13.8208 40.4526 13.7802 40.4442C13.5683 40.3871 13.3471 40.3724 13.1295 40.4008C12.9367 40.4236 12.7482 40.4735 12.5696 40.5492C12.4167 40.6153 12.2699 40.6946 12.1308 40.786C11.881 40.9492 11.6484 41.1369 11.4365 41.3462C11.2383 41.5387 11.0535 41.7443 10.8833 41.9615C10.7992 42.0666 10.7152 42.1749 10.6378 42.2833L10.5218 42.4501C10.4933 42.4934 10.4664 42.5318 10.4378 42.5768C10.1015 42.9803 9.77534 43.3821 9.44917 43.789C9.123 44.1958 8.77666 44.6227 8.4404 45.0412C8.10415 45.4597 7.77798 45.8749 7.44845 46.3034C7.32068 46.4702 7.19626 46.6369 7.06848 46.8037V48.7795C7.18058 48.7831 7.29207 48.7618 7.39476 48.717C7.49746 48.6723 7.58876 48.6054 7.66197 48.5211C8.01168 48.1154 8.35802 47.7074 8.701 47.2972C9.04398 46.887 9.38416 46.4741 9.72154 46.0583C10.0578 45.6448 10.3941 45.2246 10.7303 44.8094C11.0666 44.3943 11.4028 43.9757 11.729 43.5522L11.7609 43.5122L11.7895 43.4655L11.8685 43.3405L11.9593 43.2054C12.0221 43.1154 12.086 43.027 12.151 42.9403C12.2838 42.7735 12.4217 42.6068 12.5612 42.4534C12.6912 42.314 12.8348 42.1878 12.99 42.0766C13.0896 41.9992 13.204 41.9425 13.3262 41.9098C13.3518 41.9051 13.378 41.9051 13.4036 41.9098C13.4036 41.9098 13.4405 41.9182 13.4624 41.9232L13.5381 41.9432L13.6911 41.9882C13.8962 42.0482 14.1046 42.1199 14.3148 42.1983C14.525 42.2766 14.7402 42.3567 14.9554 42.4401C15.1706 42.5234 15.3942 42.6185 15.6043 42.6902L15.6481 42.7052C15.7277 42.7326 15.8132 42.7386 15.896 42.7225C15.9787 42.7064 16.0556 42.6687 16.1188 42.6135C16.167 42.5725 16.2065 42.5223 16.235 42.4661C16.2635 42.4098 16.2805 42.3484 16.2848 42.2856C16.2892 42.2227 16.281 42.1597 16.2605 42.1C16.2401 42.0404 16.208 41.9854 16.1659 41.9382Z" fill="#0D2933"/>
<path d="M29.909 40.826C29.8928 40.7376 29.868 40.6511 29.835 40.5675C29.7708 40.4147 29.6784 40.275 29.5626 40.1557C29.4654 40.0544 29.3565 39.9649 29.2381 39.8889C29.1306 39.8247 29.0182 39.7689 28.9019 39.7221C28.8481 39.7005 28.7943 39.6788 28.7421 39.6605L28.6614 39.6321L28.5572 39.6054C28.2787 39.5362 27.9884 39.5283 27.7065 39.5821C27.4501 39.6291 27.2032 39.7169 26.9751 39.8422C26.7713 39.9503 26.5806 40.0812 26.4068 40.2324C26.2427 40.3708 26.0887 40.5207 25.9462 40.6809C25.8778 40.7598 25.8106 40.8399 25.7444 40.921L25.6469 41.0477C25.6133 41.0944 25.5897 41.1278 25.546 41.1945L25.4939 41.2762L25.4603 41.3796C25.1487 42.3289 24.8427 43.2787 24.5423 44.2292L24.1388 45.5331V48.0075H24.1472C24.241 48.0409 24.3406 48.0556 24.4401 48.0507C24.5397 48.0459 24.6373 48.0217 24.7274 47.9794C24.8175 47.9371 24.8983 47.8776 24.9652 47.8043C25.0321 47.7311 25.0838 47.6454 25.1173 47.5523C25.2854 47.0821 25.4536 46.6102 25.6217 46.1383L26.1025 44.721C26.4068 43.809 26.7028 42.8952 26.997 41.9815L27.0541 41.9015C27.0962 41.8431 27.1416 41.7864 27.187 41.7347C27.2754 41.628 27.3715 41.5277 27.4745 41.4346C27.6288 41.2803 27.8161 41.1624 28.0226 41.0894C28.0879 41.0699 28.1568 41.0648 28.2243 41.0744H28.2495L28.2966 41.0844C28.3302 41.0844 28.3588 41.1011 28.3891 41.1078L28.5471 41.1494C28.6413 41.1761 28.69 41.1945 28.7237 41.1728C28.7419 41.1585 28.7643 41.1503 28.7875 41.1494C28.8028 41.1501 28.8174 41.1554 28.8296 41.1645L28.8514 41.1778H28.8632C28.8632 41.1778 28.8632 41.1778 28.8783 41.1645C28.8506 41.2189 28.834 41.2783 28.8295 41.3392C28.8249 41.4001 28.8326 41.4613 28.8519 41.5192C28.8713 41.5772 28.902 41.6307 28.9423 41.6769C28.9826 41.723 29.0317 41.7608 29.0868 41.7881C29.1418 41.8156 29.2016 41.832 29.263 41.8365C29.3244 41.841 29.3861 41.8335 29.4445 41.8142C29.5029 41.795 29.557 41.7646 29.6035 41.7246C29.65 41.6846 29.6881 41.6359 29.7156 41.5813L29.7627 41.5063L29.7963 41.4512C29.8161 41.414 29.8335 41.3756 29.8484 41.3362C29.8791 41.2564 29.8983 41.1728 29.9056 41.0878C29.9164 41.0009 29.9175 40.9131 29.909 40.826Z" fill="#0D2933"/>
<g style="mix-blend-mode:screen" opacity="0.59">
<path d="M8.46899 44.5586C8.09796 44.5599 7.74251 44.7067 7.48015 44.9669C7.21779 45.2271 7.06981 45.5796 7.06848 45.9475V47.5249L10.0595 44.5586H8.46899Z" fill="#7FC8FD"/>
</g>
<g style="mix-blend-mode:screen" opacity="0.59">
<path d="M12.5814 44.5586H11.154L7.06848 48.6121V49.1623C7.06959 49.4476 7.15905 49.7257 7.32474 49.9589C7.49043 50.1921 7.72436 50.3692 7.99487 50.4662L13.5549 44.9521C13.294 44.7008 12.945 44.5598 12.5814 44.5586Z" fill="#7FC8FD"/>
</g>
<g style="mix-blend-mode:screen" opacity="0.59">
<path d="M13.9752 45.9536C13.9755 45.7669 13.9378 45.5821 13.8644 45.4102C13.791 45.2383 13.6835 45.0829 13.5482 44.9531L7.98816 50.4672C8.13999 50.5228 8.30045 50.5516 8.46228 50.5523H10.2764L13.9752 46.884V45.9536Z" fill="#F0F8FF"/>
</g>
<g style="mix-blend-mode:screen" opacity="0.59">
<path d="M10.2695 50.5562H12.5611C12.9321 50.5548 13.2876 50.4081 13.55 50.1479C13.8123 49.8877 13.9603 49.5352 13.9616 49.1672V46.8945L10.2695 50.5562Z" fill="#7FC8FD"/>
</g>
<g style="mix-blend-mode:screen" opacity="0.59">
<path d="M10.0595 44.5586L7.06848 47.5232V48.6104L11.154 44.5586H10.0595Z" fill="#F0F8FF"/>
</g>
<g style="mix-blend-mode:screen" opacity="0.59">
<path d="M18.8927 44.5586C18.5217 44.5599 18.1662 44.7067 17.9039 44.9669C17.6415 45.2271 17.4935 45.5796 17.4922 45.9475V47.5999L20.5589 44.5586H18.8927Z" fill="#7FC8FD"/>
</g>
<g style="mix-blend-mode:screen" opacity="0.59">
<path d="M20.5591 44.5586L17.4941 47.5983V48.422L21.3897 44.5586H20.5591Z" fill="#F0F8FF"/>
</g>
<g style="mix-blend-mode:screen" opacity="0.59">
<path d="M23.0051 44.5586H21.3894L17.4922 48.4236V49.1623C17.4928 49.4324 17.5726 49.6964 17.7218 49.9223C17.8711 50.1482 18.0834 50.3262 18.3328 50.4345L23.9147 44.8987C23.6622 44.6813 23.3395 44.5606 23.0051 44.5586Z" fill="#7FC8FD"/>
</g>
<g style="mix-blend-mode:screen" opacity="0.59">
<path d="M24.3978 45.959C24.3973 45.7598 24.3536 45.5631 24.2698 45.3822C24.186 45.2013 24.0639 45.0403 23.9119 44.9102L18.3301 50.446C18.5047 50.523 18.6938 50.5628 18.8849 50.5627H20.3291L24.3978 46.5259V45.959Z" fill="#F0F8FF"/>
</g>
<g style="mix-blend-mode:screen" opacity="0.59">
<path d="M20.3379 50.5602H23.0061C23.3771 50.5589 23.7326 50.4122 23.9949 50.152C24.2573 49.8918 24.4053 49.5393 24.4066 49.1713V46.5234L20.3379 50.5602Z" fill="#7FC8FD"/>
</g>
<path d="M12.5814 44.5586H8.46899C7.69551 44.5586 7.06848 45.1804 7.06848 45.9475V49.1606C7.06848 49.9277 7.69551 50.5496 8.46899 50.5496H12.5814C13.3549 50.5496 13.9819 49.9277 13.9819 49.1606V45.9475C13.9819 45.1804 13.3549 44.5586 12.5814 44.5586Z" stroke="#174859" stroke-width="5.55" stroke-miterlimit="10"/>
<path d="M23.0071 44.5586H18.8946C18.1212 44.5586 17.4941 45.1804 17.4941 45.9475V49.1606C17.4941 49.9277 18.1212 50.5496 18.8946 50.5496H23.0071C23.7805 50.5496 24.4076 49.9277 24.4076 49.1606V45.9475C24.4076 45.1804 23.7805 44.5586 23.0071 44.5586Z" stroke="#174859" stroke-width="5.55" stroke-miterlimit="10"/>
<path d="M13.9784 47.2018C13.9784 47.2018 15.8429 45.2009 17.494 47.2018" stroke="#174859" stroke-width="5.55" stroke-miterlimit="10"/>
<path d="M49.4595 41.9794C49.9925 42.3862 50.6309 42.6348 51.3005 42.6964C51.493 42.716 51.6868 42.6727 51.8522 42.5731C52.0176 42.4735 52.1456 42.3229 52.2168 42.1445L52.58 41.2491C52.0154 41.3035 51.4458 41.2227 50.9192 41.0135C50.3926 40.8043 49.9243 40.4728 49.5537 40.0469L49.1888 40.9489C49.1146 41.1265 49.1008 41.3232 49.1497 41.5093C49.1986 41.6953 49.3074 41.8604 49.4595 41.9794Z" fill="#FF5D7B"/>
<path d="M55.4441 27.8243L50.5098 40.0469L51.646 40.4981L56.5804 28.2755L55.4441 27.8243Z" fill="#F4B031"/>
<path d="M56.5828 28.2813L51.6484 40.5039L52.7114 40.926L57.6457 28.7034L56.5828 28.2813Z" fill="#E8A423"/>
<path d="M54.6199 27.504L49.6855 39.7266L50.5112 40.0544L55.4456 27.8318L54.6199 27.504Z" fill="#F4C43E"/>
<path d="M54.6113 27.5137L57.182 25.4961L57.6376 28.7159C57.6376 28.7159 56.0186 29.086 54.6113 27.5137Z" fill="#FACFC9"/>
<path d="M56.2227 26.2514C56.5667 26.4762 56.9498 26.6356 57.3525 26.7216L57.1844 25.4961L56.2227 26.2514Z" fill="#174859"/>
<path d="M49.3828 40.4679C49.7536 40.8937 50.2219 41.225 50.7485 41.4342C51.275 41.6434 51.8445 41.7243 52.4091 41.6701L52.9959 40.2178C52.4313 40.2723 51.8617 40.1915 51.3351 39.9823C50.8085 39.7731 50.3402 39.4416 49.9696 39.0156L49.3828 40.4679Z" fill="#174859"/>
<path d="M50.4608 44.0468C50.8666 44.576 51.4151 44.9806 52.0429 45.2139C52.2241 45.2818 52.4226 45.2894 52.6085 45.2355C52.7944 45.1817 52.9576 45.0694 53.0735 44.9155L53.6553 44.1485C53.0958 44.0559 52.5669 43.8317 52.1129 43.4945C51.6589 43.1574 51.293 42.7172 51.0459 42.2109L50.4608 42.9813C50.3432 43.1344 50.2794 43.3215 50.2794 43.514C50.2794 43.7065 50.3432 43.8937 50.4608 44.0468Z" fill="#FF5D7B"/>
<path d="M59.9347 31.9225L51.9824 42.4648L52.9625 43.192L60.9148 32.6497L59.9347 31.9225Z" fill="#F4B031"/>
<path d="M60.9113 32.6491L52.959 43.1914L53.8758 43.8716L61.8281 33.3293L60.9113 32.6491Z" fill="#E8A423"/>
<path d="M59.218 31.3874L51.2657 41.9297L51.9779 42.4581L59.9302 31.9157L59.218 31.3874Z" fill="#F4C43E"/>
<path d="M59.2168 31.3882L62.2263 30.0977L61.8278 33.3241C61.8278 33.3241 60.1684 33.2674 59.2168 31.3882Z" fill="#FACFC9"/>
<path d="M61.0977 30.5812C61.3726 30.8882 61.7034 31.141 62.0728 31.3265L62.2241 30.0977L61.0977 30.5812Z" fill="#174859"/>
<path d="M50.7852 42.5703C51.0322 43.0766 51.3981 43.5168 51.8522 43.8539C52.3062 44.191 52.8351 44.4153 53.3945 44.5078L54.3394 43.2556C53.7799 43.1626 53.251 42.938 52.797 42.6006C52.343 42.2632 51.9771 41.8229 51.73 41.3164L50.7852 42.5703Z" fill="#174859"/>
<path d="M69.3364 44.5325L68.3159 48.3009C68.2702 48.4684 68.1594 48.6112 68.0079 48.6981C67.8564 48.7849 67.6764 48.8088 67.5072 48.7644C67.3393 48.7168 67.1967 48.6064 67.1095 48.4564C67.0223 48.3064 66.9973 48.1287 67.0398 47.9607L68.062 44.1924C68.1077 44.0248 68.2184 43.8821 68.3699 43.7952C68.5215 43.7083 68.7015 43.6845 68.8707 43.7288C69.0397 43.7745 69.1836 43.8847 69.2708 44.0353C69.3581 44.186 69.3817 44.3647 69.3364 44.5325Z" fill="#AAB9D8"/>
<path d="M57.4991 37.1326C56.7048 36.9214 55.8756 36.8713 55.0612 36.9853C54.2469 37.0994 53.4641 37.3752 52.7598 37.7963C52.0554 38.2174 51.444 38.7751 50.9621 39.4361C50.4802 40.0971 50.1377 40.8477 49.9552 41.643C49.6149 43.1494 49.8641 44.7277 50.6526 46.0588C51.441 47.3898 52.7097 48.3742 54.2021 48.8128C54.9753 49.0369 55.7856 49.1067 56.5861 49.0182C57.3866 48.9298 58.1615 48.6849 58.866 48.2976C59.582 47.8998 60.4248 47.7906 61.2198 47.9925L61.9445 48.1859C62.2612 48.2704 62.5916 48.2922 62.9168 48.25C63.242 48.2078 63.5557 48.1025 63.8398 47.9401C64.124 47.7776 64.3731 47.5613 64.5729 47.3033C64.7727 47.0454 64.9194 46.7509 65.0044 46.4368L65.5256 44.5126C65.6938 43.8803 65.6031 43.2077 65.2734 42.6414C64.9436 42.0752 64.4016 41.6611 63.7653 41.4896L63.0407 41.2962C62.2484 41.0814 61.571 40.5704 61.1509 39.8705C60.3389 38.5217 59.029 37.5397 57.4991 37.1326Z" fill="#B4D3F7"/>
<path d="M55.0773 36.9867C55.5317 36.9921 55.9836 37.0543 56.4224 37.1718C57.774 37.5297 58.9318 38.3958 59.6504 39.5862C60.0216 40.2047 60.62 40.6565 61.3199 40.8467L61.9622 41.0135C62.5274 41.1647 63.0089 41.5321 63.3012 42.0351C63.5934 42.5381 63.6723 43.1356 63.5207 43.6963L63.0584 45.3971C62.9833 45.6747 62.8538 45.9349 62.6773 46.1628C62.5007 46.3908 62.2806 46.582 62.0296 46.7255C61.7785 46.869 61.5014 46.9621 61.214 46.9994C60.9267 47.0367 60.6347 47.0174 60.3549 46.9428L59.7143 46.776C59.0096 46.5922 58.2604 46.6867 57.6245 47.0395C57.0022 47.3807 56.3179 47.5961 55.6112 47.6734C54.9044 47.7506 54.1893 47.6882 53.507 47.4897C52.67 47.2448 51.9051 46.803 51.2775 46.2017C50.6499 45.6004 50.1781 44.8576 49.9023 44.0365C50.1014 45.1505 50.6094 46.1875 51.3693 47.0312C52.1292 47.875 53.111 48.4922 54.2047 48.8136C54.9775 49.0369 55.7872 49.1062 56.5871 49.0175C57.3871 48.9288 58.1613 48.6838 58.8653 48.2967C59.5812 47.8989 60.4241 47.7897 61.2191 47.9916L61.9437 48.185C62.2604 48.2695 62.5908 48.2913 62.916 48.2491C63.2413 48.2069 63.5549 48.1016 63.8391 47.9392C64.1232 47.7768 64.3723 47.5604 64.5722 47.3025C64.772 47.0445 64.9186 46.7501 65.0036 46.4359L65.5248 44.5117C65.693 43.8794 65.6024 43.2068 65.2726 42.6406C64.9429 42.0743 64.4008 41.6602 63.7645 41.4887L63.0399 41.2953C62.2476 41.0806 61.5702 40.5695 61.1501 39.8696C60.3371 38.5227 59.0274 37.5426 57.4984 37.1368C56.7096 36.9269 55.8864 36.8759 55.0773 36.9867Z" fill="#99C5F7"/>
<path d="M64.3534 46.7025L57.2012 44.7966C57.2012 44.7966 58.0805 44.8199 57.8989 44.098C57.7173 43.376 55.9117 43.9829 56.875 44.2647C57.8384 44.5465 58.9346 43.1909 57.9023 42.4939C56.87 41.7969 56.2294 43.396 57.7342 43.0825C59.2389 42.769 58.0469 41.6719 58.0469 41.6719L65.1991 43.5777" stroke="#C1DEFF" stroke-width="1.43" stroke-linejoin="round"/>
<path d="M66.8864 43.3834L65.612 48.0888C65.5548 48.2977 65.4166 48.4756 65.2276 48.5837C65.0386 48.6918 64.8141 48.7213 64.6032 48.6657C64.3923 48.6094 64.2124 48.4725 64.1031 48.285C63.9937 48.0975 63.9638 47.8747 64.0198 47.6653L65.2959 42.9599C65.353 42.751 65.4912 42.5731 65.6802 42.4649C65.8692 42.3568 66.0937 42.3274 66.3046 42.3829C66.5152 42.4396 66.6947 42.5766 66.8037 42.7641C66.9127 42.9516 66.9424 43.1742 66.8864 43.3834Z" fill="#E0EFF2"/>
<path d="M67.5293 43.5647L66.2549 48.2685C66.1978 48.4774 66.0596 48.6553 65.8706 48.7634C65.6815 48.8715 65.457 48.901 65.2461 48.8454C65.0355 48.7888 64.8561 48.6517 64.7471 48.4643C64.6381 48.2768 64.6084 48.0541 64.6644 47.845L65.9405 43.1396C65.9976 42.9307 66.1358 42.7527 66.3249 42.6446C66.5139 42.5365 66.7384 42.507 66.9493 42.5626C67.1597 42.62 67.3387 42.7575 67.4474 42.9452C67.556 43.1329 67.5855 43.3556 67.5293 43.5647Z" fill="#E0EFF2"/>
<path d="M68.1739 43.7362L66.8994 48.44C66.8423 48.6489 66.7041 48.8268 66.5151 48.9349C66.3261 49.043 66.1016 49.0725 65.8907 49.0169C65.6801 48.9603 65.5006 48.8232 65.3916 48.6358C65.2826 48.4483 65.2529 48.2256 65.3089 48.0165L66.5834 43.3111C66.6409 43.1024 66.7791 42.9248 66.968 42.8167C67.157 42.7087 67.3813 42.679 67.5921 42.7341C67.8029 42.7912 67.9823 42.9285 68.0913 43.1163C68.2003 43.304 68.23 43.5269 68.1739 43.7362Z" fill="#E0EFF2"/>
<path d="M68.8219 43.9024L67.5475 48.6062C67.4904 48.8151 67.3523 48.9932 67.1633 49.1016C66.9743 49.2099 66.7498 49.2399 66.5387 49.1848C66.3284 49.1278 66.1492 48.9906 66.0403 48.8033C65.9314 48.6159 65.9014 48.3935 65.957 48.1843L67.2314 43.4806C67.2886 43.2717 67.4267 43.0936 67.6156 42.9852C67.8046 42.8768 68.0291 42.8469 68.2402 42.902C68.4506 42.959 68.6297 43.0961 68.7386 43.2835C68.8476 43.4709 68.8775 43.6933 68.8219 43.9024Z" fill="#E0EFF2"/>
<path d="M66.2753 43.0244L64.8983 48.1C64.8369 48.3253 64.6879 48.5173 64.484 48.6338C64.2801 48.7504 64.0379 48.7821 63.8105 48.7219C63.5831 48.6606 63.3894 48.5126 63.2716 48.3102C63.1539 48.1078 63.1215 47.8674 63.1817 47.6414L64.557 42.5659C64.6188 42.3404 64.7681 42.1484 64.9723 42.0319C65.1765 41.9153 65.4189 41.8837 65.6465 41.9439C65.8738 42.0053 66.0676 42.1533 66.1853 42.3557C66.3031 42.5581 66.3355 42.7985 66.2753 43.0244Z" fill="#AAB9D8"/>
<path d="M54.5834 40.1816C54.5097 40.4494 54.3323 40.6775 54.0898 40.8161C53.8473 40.9548 53.5594 40.9928 53.2888 40.9219L52.7626 40.7818C52.4923 40.7092 52.262 40.5333 52.1221 40.2927C51.9822 40.0521 51.9441 39.7663 52.0161 39.4979C52.0897 39.2301 52.2671 39.002 52.5096 38.8633C52.7521 38.7247 53.04 38.6867 53.3107 38.7576L53.8369 38.8977C54.1069 38.9707 54.3369 39.1466 54.4768 39.3871C54.6166 39.6276 54.6549 39.9132 54.5834 40.1816Z" fill="#C1DEFF"/>
<path d="M56.6402 40.4805C56.5842 40.6835 56.4496 40.8564 56.2657 40.9614C56.0817 41.0663 55.8634 41.0949 55.6583 41.0408C55.4537 40.9857 55.2794 40.8525 55.1735 40.6703C55.0677 40.4882 55.0389 40.2718 55.0934 40.0687C55.1489 39.8657 55.2832 39.6927 55.4668 39.5875C55.6504 39.4822 55.8685 39.4532 56.0736 39.5067C56.2786 39.5618 56.4533 39.6952 56.5595 39.8777C56.6656 40.0601 56.6947 40.2769 56.6402 40.4805Z" fill="#C1DEFF"/>
<g style="mix-blend-mode:multiply">
<path d="M68.9756 43.7738L68.3165 46.2083C68.2708 46.3758 68.1601 46.5186 68.0086 46.6054C67.8571 46.6923 67.677 46.7162 67.5078 46.6718L67.4826 46.6618C67.3967 46.8287 67.2558 46.9614 67.0833 47.0379C66.9108 47.1143 66.7171 47.1299 66.5344 47.082C66.4233 47.0515 66.3197 46.9987 66.2301 46.9269C66.118 46.9439 66.0036 46.9382 65.8938 46.9102C65.7827 46.8798 65.6791 46.827 65.5895 46.7552C65.4773 46.7723 65.3628 46.7661 65.2532 46.7368C65.1424 46.7079 65.0392 46.6556 64.9506 46.5834C64.8385 46.6007 64.7239 46.5944 64.6143 46.5651C64.577 46.5551 64.5405 46.5422 64.5051 46.5267C64.4036 46.5866 64.2911 46.6257 64.1741 46.6417C64.0572 46.6578 63.9382 46.6504 63.8241 46.6201C63.6906 46.5844 63.5673 46.5182 63.4642 46.4267C63.3611 46.3352 63.2811 46.221 63.2307 46.0932C63.0606 46.1369 62.8866 46.1631 62.7111 46.1716C62.4594 46.1802 62.2078 46.1516 61.9646 46.0865L61.24 45.8931C61.1391 45.8681 61.0399 45.8464 60.9391 45.8298C60.3336 45.7336 59.713 45.8129 59.1519 46.0582C59.0594 46.0982 58.9669 46.1432 58.8761 46.1933C58.4463 46.4278 57.9897 46.6103 57.516 46.7368C57.326 46.7885 57.1326 46.8302 56.9376 46.8635C56.5427 46.9288 56.1424 46.9557 55.7422 46.9436C55.5405 46.9436 55.337 46.9202 55.1336 46.8936C54.8231 46.8529 54.5162 46.7888 54.2156 46.7018C54.0895 46.6651 53.9651 46.6234 53.8424 46.5784L53.7482 46.5451C53.6339 46.5001 53.5196 46.455 53.412 46.4033H53.3935C53.2758 46.35 53.1615 46.2916 53.0488 46.2366L52.9681 46.1916C52.8639 46.1332 52.7596 46.0732 52.6604 46.0098L52.6369 45.9965C52.5293 45.9265 52.4234 45.8531 52.3208 45.7781L52.2569 45.7297C52.1611 45.658 52.0669 45.583 51.9761 45.5063C51.9692 45.5016 51.963 45.496 51.9576 45.4896C51.8585 45.4062 51.7626 45.3229 51.6702 45.2278L51.6264 45.1828C51.539 45.0961 51.4583 45.0061 51.3709 44.9143L51.3591 44.9027C51.2717 44.8026 51.191 44.7009 51.1052 44.5959C51.098 44.5844 51.0901 44.5732 51.0817 44.5625C51.0032 44.4603 50.9276 44.3552 50.8547 44.2474C50.7791 44.134 50.7068 44.019 50.6395 43.9006L50.6294 43.8839C50.2822 43.2774 50.0423 42.6165 49.9199 41.9297C49.6708 43.321 49.9219 44.7549 50.6294 45.9815L50.6395 45.9982C50.7068 46.1165 50.7791 46.2316 50.8547 46.345C50.927 46.4534 51.0027 46.5567 51.0817 46.6601C51.0901 46.6708 51.098 46.682 51.1052 46.6935C51.1876 46.7985 51.2734 46.9002 51.3591 47.0003L51.3709 47.012C51.4533 47.1037 51.539 47.1937 51.6264 47.2804L51.6702 47.3254C51.7626 47.4155 51.8585 47.5038 51.9576 47.5872C51.963 47.5936 51.9692 47.5992 51.9761 47.6039C52.0669 47.6806 52.1611 47.7556 52.2569 47.8273L52.3208 47.8757C52.4234 47.9507 52.5293 48.0241 52.6369 48.0941L52.6604 48.1074C52.7596 48.1708 52.8639 48.2308 52.9681 48.2892L53.0488 48.3325C53.1615 48.3942 53.2758 48.4526 53.3935 48.4993H53.412C53.5246 48.5493 53.6389 48.596 53.7482 48.641L53.8424 48.6744C53.9651 48.7194 54.0895 48.7611 54.2156 48.7977C54.5114 48.8823 54.8132 48.9447 55.1185 48.9845C55.3219 49.0112 55.5253 49.0278 55.7271 49.0345C56.1273 49.046 56.5277 49.0187 56.9225 48.9528C57.1173 48.9212 57.3104 48.8795 57.5008 48.8278C57.9748 48.7014 58.4316 48.5183 58.861 48.2825C58.9518 48.2342 59.0443 48.1891 59.1367 48.1491C59.6978 47.9038 60.3184 47.8245 60.9239 47.9207C61.0248 47.9374 61.124 47.9574 61.2249 47.984L61.9495 48.1775C62.1926 48.2428 62.4443 48.2709 62.696 48.2608C62.8714 48.2538 63.0456 48.2281 63.2155 48.1841C63.266 48.3119 63.346 48.4261 63.4491 48.5176C63.5521 48.6091 63.6754 48.6754 63.809 48.711C63.9231 48.7413 64.0421 48.7487 64.159 48.7326C64.2759 48.7166 64.3885 48.6775 64.4899 48.6177C64.5253 48.6332 64.5619 48.646 64.5992 48.656C64.7089 48.6849 64.8234 48.6905 64.9355 48.6727C65.0235 48.746 65.1269 48.799 65.2381 48.8278C65.3477 48.857 65.4622 48.8633 65.5744 48.8461C65.6637 48.918 65.7675 48.9702 65.8787 48.9995C65.9882 49.0288 66.1028 49.0351 66.2149 49.0178C66.3046 49.0897 66.4082 49.1425 66.5192 49.1729C66.7019 49.2208 66.8956 49.2053 67.0681 49.1288C67.2407 49.0524 67.3816 48.9196 67.4675 48.7527L67.4927 48.7627C67.6619 48.8071 67.8419 48.7832 67.9935 48.6964C68.145 48.6095 68.2557 48.4667 68.3014 48.2992L69.3219 44.5308C69.3614 44.3844 69.3484 44.2289 69.2853 44.0909C69.2221 43.9529 69.1127 43.8408 68.9756 43.7738Z" fill="#E0EFF2"/>
</g>
<path d="M30.6995 42.1637C30.6995 42.1637 31.1366 41.5884 32.7338 41.4434C34.331 41.2983 46.3858 41.4434 46.3858 41.4434C46.8425 41.5502 47.2508 41.8034 47.5476 42.1637C47.9831 42.7406 52.0501 47.9263 52.0501 47.9263C52.0501 47.9263 52.6301 48.6449 52.0501 49.0784C51.47 49.512 28.0851 49.0784 28.0851 49.0784C28.0851 49.0784 26.7787 49.2218 27.3604 48.2131C27.9422 47.2043 30.6995 42.1637 30.6995 42.1637Z" fill="#164454"/>
<path d="M51.0338 45.1836H28.0859V48.2083H51.0338V45.1836Z" fill="white"/>
<path d="M30.6995 38.8473C30.6995 38.8473 31.1366 38.272 32.7338 38.127C34.331 37.9819 46.3858 38.127 46.3858 38.127C46.8425 38.2338 47.2508 38.487 47.5476 38.8473C47.9831 39.4242 52.0501 44.6099 52.0501 44.6099C52.0501 44.6099 52.6301 45.3302 52.0501 45.762C51.47 46.1939 28.0851 45.762 28.0851 45.762C28.0851 45.762 26.7787 45.9054 27.3604 44.8967C27.9422 43.8879 30.6995 38.8473 30.6995 38.8473Z" fill="#164454"/>
<path d="M51.0338 46.1992H28.0859V46.3426H51.0338V46.1992Z" fill="#DFECF0"/>
<path d="M51.0338 46.6289H28.0859V46.7723H51.0338V46.6289Z" fill="#DFECF0"/>
<path d="M51.0338 47.0625H28.0859V47.2059H51.0338V47.0625Z" fill="#DFECF0"/>
<path d="M51.0338 47.4922H28.0859V47.6356H51.0338V47.4922Z" fill="#DFECF0"/>
<path d="M51.0338 47.9258H28.0859V48.0692H51.0338V47.9258Z" fill="#DFECF0"/>
<path d="M30.7899 38.1747C30.7899 38.1747 31.1934 37.6395 32.6779 37.5078C34.1625 37.376 45.3632 37.5078 45.3632 37.5078C45.7873 37.606 46.1668 37.8405 46.4426 38.1747C46.8478 38.71 50.6256 43.5288 50.6256 43.5288C50.6256 43.5288 51.1653 44.1957 50.6256 44.5993C50.086 45.0028 28.3604 44.5993 28.3604 44.5993C28.3604 44.5993 27.1465 44.7326 27.6879 43.7956C28.2293 42.8585 30.7899 38.1747 30.7899 38.1747Z" fill="#66A1ED"/>
<path d="M49.67 40.9961H28.3496V43.8057H49.67V40.9961Z" fill="white"/>
<path d="M30.7899 35.1005C30.7899 35.1005 31.1934 34.5653 32.6779 34.4335C34.1625 34.3018 45.3632 34.4335 45.3632 34.4335C45.7873 34.5318 46.1668 34.7663 46.4426 35.1005C46.8478 35.6357 50.6256 40.4546 50.6256 40.4546C50.6256 40.4546 51.1653 41.1215 50.6256 41.525C50.086 41.9285 28.3604 41.525 28.3604 41.525C28.3604 41.525 27.1465 41.6584 27.6879 40.7213C28.2293 39.7843 30.7899 35.1005 30.7899 35.1005Z" fill="#8CBDF7"/>
<path d="M49.67 41.9258H28.3496V42.0592H49.67V41.9258Z" fill="#DFECF0"/>
<path d="M49.67 42.3281H28.3496V42.4615H49.67V42.3281Z" fill="#DFECF0"/>
<path d="M49.67 42.7305H28.3496V42.8639H49.67V42.7305Z" fill="#DFECF0"/>
<path d="M49.67 43.1367H28.3496V43.2701H49.67V43.1367Z" fill="#DFECF0"/>
<path d="M49.67 43.5391H28.3496V43.6725H49.67V43.5391Z" fill="#DFECF0"/>
<path d="M46.2207 51.3908C46.4346 50.5886 46.4147 49.7428 46.1635 48.9514C46.0918 48.7228 45.947 48.5236 45.7511 48.3837C45.5552 48.2439 45.3188 48.171 45.0774 48.176L43.8652 48.201C44.2033 48.8171 44.3876 49.5045 44.4025 50.2058C44.4174 50.907 44.2626 51.6015 43.951 52.2312L45.1716 52.2045C45.4119 52.2005 45.6444 52.1189 45.8337 51.9721C46.023 51.8252 46.1589 51.6212 46.2207 51.3908Z" fill="#FF5D7B"/>
<path d="M43.4514 49.631L26.9062 49.9805L26.9388 51.4941L43.4839 51.1447L43.4514 49.631Z" fill="#F4B031"/>
<path d="M43.4221 48.217L26.877 48.5664L26.9074 49.9834L43.4525 49.6339L43.4221 48.217Z" fill="#E8A423"/>
<path d="M43.4826 51.1506L26.9375 51.5L26.9611 52.5986L43.5062 52.2491L43.4826 51.1506Z" fill="#F4C43E"/>
<path d="M26.9609 52.5954L23.373 50.6596L26.8752 48.5703C26.8752 48.5703 28.0991 50.226 26.9609 52.5954Z" fill="#FACFC9"/>
<path d="M24.7164 51.3817C24.8084 50.878 24.8049 50.3618 24.7063 49.8594L23.373 50.6547L24.7164 51.3817Z" fill="#174859"/>
<path d="M44.5138 52.2199C44.825 51.5904 44.9794 50.896 44.9642 50.1951C44.949 49.4942 44.7646 48.8071 44.4264 48.1914L42.4609 48.2331C42.7992 48.8487 42.9836 49.5358 42.9988 50.2368C43.014 50.9377 42.8596 51.632 42.5484 52.2616L44.5138 52.2199Z" fill="#174859"/>
<path d="M39.0187 39.7552C43.1712 39.7552 46.5374 38.7055 46.5374 37.4108C46.5374 36.116 43.1712 35.0664 39.0187 35.0664C34.8662 35.0664 31.5 36.116 31.5 37.4108C31.5 38.7055 34.8662 39.7552 39.0187 39.7552Z" fill="#0F2F3B"/>
<path d="M39.0187 35.3295C43.1712 35.3295 46.5374 34.4434 46.5374 33.3503C46.5374 32.2572 43.1712 31.3711 39.0187 31.3711C34.8662 31.3711 31.5 32.2572 31.5 33.3503C31.5 34.4434 34.8662 35.3295 39.0187 35.3295Z" fill="#DFECF0"/>
<path d="M46.5374 33.3477H31.5V37.4111H46.5374V33.3477Z" fill="#0F2F3B"/>
<path d="M39.6147 29.5149C39.6147 29.5149 24.9775 33.2099 25.1103 33.2099C25.2431 33.2099 38.4176 37.6969 39.0834 37.8286C39.7492 37.9603 52.258 34.0019 52.7892 33.7368C53.3205 33.4717 40.1477 29.3815 39.6147 29.5149Z" fill="#143E4D"/>
<path d="M52.7903 33.7519V33.3567L25.1113 32.8281V33.225L52.7903 33.7519Z" fill="#143E4D"/>
<path d="M39.6147 29.1281C39.6147 29.1281 24.9775 32.8181 25.1103 32.8181C25.2431 32.8181 38.4176 37.3051 39.0834 37.4385C39.7492 37.5719 52.258 33.6034 52.7892 33.3467C53.3205 33.0899 40.1477 28.9964 39.6147 29.1281Z" fill="#174859"/>
<path d="M38.9582 32.8805V33.4607L25.5365 33.3507C25.5365 33.3507 25.1582 33.4074 25.017 33.9326C24.8758 34.4578 25.1112 36.9139 25.1112 36.9139C25.1112 36.9139 24.6959 37.4275 24.4521 36.7155C24.2083 36.0035 24.4521 33.3507 24.4521 33.3507C24.4521 33.3507 24.6051 32.8155 25.3062 32.8805C26.0073 32.9455 38.9582 32.8805 38.9582 32.8805Z" fill="#0F2F3B"/>
<path d="M24.4341 37.0955C24.4341 37.0955 23.8305 37.5674 24.1264 38.2627L24.424 38.953L24.4341 38.7429L24.7939 39.1014L24.9116 38.7429L25.0696 39.2131C25.0696 39.2131 26.1339 38.0576 25.0142 37.0054C25.0142 37.0004 24.6611 36.8354 24.4341 37.0955Z" fill="#0F2F3B"/>
<path d="M40.2764 33.1449C40.2764 33.32 39.8426 33.4617 39.3063 33.4617C38.77 33.4617 38.3379 33.32 38.3379 33.1449C38.3379 32.9699 38.7717 32.8281 39.3063 32.8281C39.841 32.8281 40.2764 32.9699 40.2764 33.1449Z" fill="#F4C43E"/>
<path d="M25.1205 36.9906C25.1207 37.0413 25.1108 37.0915 25.0914 37.1383C25.072 37.1851 25.0434 37.2277 25.0072 37.2635C24.9711 37.2993 24.9282 37.3277 24.881 37.3469C24.8338 37.3662 24.7832 37.376 24.7321 37.3758C24.6811 37.3758 24.6306 37.3658 24.5835 37.3465C24.5364 37.3271 24.4936 37.2988 24.4575 37.263C24.4214 37.2272 24.3928 37.1848 24.3733 37.138C24.3538 37.0913 24.3438 37.0412 24.3438 36.9906C24.3442 36.8886 24.3852 36.7909 24.458 36.7188C24.5307 36.6466 24.6293 36.6059 24.7321 36.6055C24.8351 36.6055 24.9339 36.646 25.0067 36.7183C25.0796 36.7905 25.1205 36.8885 25.1205 36.9906Z" fill="#F4C43E"/>
<path d="M37.4775 16.2143C37.4775 16.2143 37.5212 16.5561 37.0857 16.993C36.6503 17.4299 36.4872 19.1123 38.5535 18.4937C40.6198 17.8751 39.0058 15.6708 37.4775 16.2143Z" fill="#CF2949"/>
<path d="M37.5438 18.5406C37.5438 18.5406 38.4467 18.1804 39.2335 18.3288C39.2335 18.3288 39.5698 19.3876 39.0536 19.7478C38.5375 20.108 37.3152 19.6411 37.5438 18.5406Z" fill="#66A1ED"/>
<path d="M31.5247 8.47088L30.0367 8.83104C29.9706 8.84669 29.9008 8.83587 29.8426 8.80092C29.7844 8.76597 29.7424 8.7097 29.7257 8.64429C29.71 8.57842 29.7211 8.50905 29.7567 8.45129C29.7923 8.39352 29.8494 8.35202 29.9157 8.33582L31.4036 7.97566C31.4701 7.96006 31.54 7.97111 31.5982 8.0064C31.6565 8.04168 31.6983 8.09835 31.7147 8.16407C31.7304 8.22974 31.7192 8.29888 31.6836 8.35638C31.648 8.41388 31.5908 8.45505 31.5247 8.47088Z" fill="#AAB9D8"/>
<path d="M31.8559 3.0708C31.7802 2.76222 31.6424 2.47198 31.4508 2.21748C31.2592 1.96298 31.0178 1.74946 30.741 1.58971C30.4643 1.42997 30.1578 1.32728 29.8401 1.28782C29.5223 1.24835 29.1998 1.27292 28.8918 1.36004C28.31 1.52651 27.8136 1.90606 27.5033 2.42184C27.193 2.93761 27.092 3.55105 27.2206 4.13794C27.2876 4.44147 27.4147 4.72879 27.5945 4.98324C27.7743 5.2377 28.0033 5.45422 28.2681 5.62027C28.5399 5.78959 28.7351 6.0567 28.8128 6.3656L28.8817 6.64739C28.9121 6.77053 28.9666 6.88653 29.0422 6.98873C29.1178 7.09094 29.213 7.17736 29.3223 7.24303C29.4316 7.3087 29.5529 7.35234 29.6793 7.37144C29.8056 7.39055 29.9345 7.38475 30.0586 7.35438L30.8186 7.17096C30.9429 7.14106 31.06 7.08712 31.1633 7.01222C31.2665 6.93733 31.3538 6.84295 31.4202 6.73452C31.4866 6.62608 31.5308 6.5057 31.5501 6.38031C31.5695 6.25491 31.5637 6.12695 31.5331 6.00377L31.4642 5.72198C31.3893 5.41355 31.4382 5.08834 31.6004 4.81491C31.9121 4.28899 32.0038 3.66295 31.8559 3.0708Z" fill="#FFD96E"/>
<path d="M31.4569 2.21535C31.5394 2.36985 31.6021 2.53397 31.6435 2.7039C31.7736 3.22824 31.6921 3.78222 31.4165 4.24792C31.2726 4.48947 31.2291 4.77716 31.2955 5.04994L31.356 5.29839C31.3829 5.4071 31.3879 5.52001 31.3707 5.63064C31.3536 5.74128 31.3146 5.84747 31.2561 5.94317C31.1975 6.03886 31.1205 6.12218 31.0295 6.18835C30.9385 6.25453 30.8352 6.30227 30.7255 6.32885L30.053 6.49559C29.9434 6.52218 29.8296 6.52705 29.718 6.50991C29.6065 6.49277 29.4995 6.45397 29.4031 6.39572C29.3067 6.33748 29.2229 6.26093 29.1564 6.17048C29.0899 6.08003 29.0421 5.97746 29.0157 5.86864L28.9535 5.6202C28.8849 5.34777 28.7125 5.1123 28.4726 4.96324C28.2385 4.81638 28.0361 4.62493 27.8771 4.39997C27.718 4.17501 27.6056 3.921 27.5462 3.65265C27.474 3.32329 27.483 2.9815 27.5726 2.65635C27.6622 2.33121 27.8296 2.03233 28.0607 1.78516C27.7143 2.061 27.4522 2.42704 27.3037 2.84228C27.1552 3.25752 27.1263 3.70556 27.2201 4.1362C27.2871 4.43973 27.4141 4.72705 27.5939 4.9815C27.7737 5.23596 28.0027 5.45248 28.2675 5.61853C28.5393 5.78785 28.7346 6.05496 28.8122 6.36386L28.8812 6.64565C28.9115 6.76879 28.966 6.88478 29.0416 6.98699C29.1172 7.0892 29.2124 7.17562 29.3217 7.24129C29.4311 7.30696 29.5524 7.3506 29.6787 7.3697C29.8051 7.38881 29.934 7.38301 30.0581 7.35263L30.818 7.16922C30.9423 7.13932 31.0595 7.08538 31.1627 7.01048C31.266 6.93559 31.3533 6.84121 31.4197 6.73277C31.486 6.62433 31.5302 6.50396 31.5496 6.37857C31.5689 6.25317 31.5632 6.12521 31.5326 6.00203L31.4636 5.72024C31.3888 5.41181 31.4376 5.08659 31.5998 4.81317C31.913 4.28657 32.0053 3.65914 31.857 3.06573C31.7822 2.75863 31.6462 2.46949 31.4569 2.21535Z" fill="#F4C43E"/>
<path d="M29.8507 7.17957L29.1681 4.40167C29.1681 4.40167 29.3261 4.70347 29.5397 4.50672C29.7532 4.30996 29.2034 3.81307 29.2908 4.19157C29.3782 4.57008 30.044 4.6918 30.0911 4.20825C30.1382 3.7247 29.4674 3.81141 29.8574 4.26161C30.2475 4.71181 30.4022 4.09486 30.4022 4.09486L31.0848 6.87277" stroke="#FFF8E6" stroke-width="0.56" stroke-linejoin="round"/>
<path d="M31.4581 7.42388L29.6086 7.87242C29.526 7.89208 29.4388 7.87859 29.3661 7.83488C29.2933 7.79117 29.241 7.72077 29.2203 7.63898C29.2102 7.59847 29.2084 7.55639 29.2148 7.51516C29.2212 7.47394 29.2358 7.43437 29.2576 7.39874C29.2795 7.3631 29.3083 7.33211 29.3422 7.30752C29.3762 7.28294 29.4148 7.26525 29.4556 7.25547L31.3135 6.80527C31.3964 6.78612 31.4835 6.80003 31.5562 6.844C31.6288 6.88798 31.6811 6.95851 31.7018 7.04038C31.7115 7.08145 31.7129 7.12402 31.7058 7.16561C31.6988 7.2072 31.6835 7.24699 31.6608 7.28267C31.6381 7.31835 31.6085 7.3492 31.5737 7.37345C31.5389 7.39769 31.4996 7.41483 31.4581 7.42388Z" fill="#E0EFF2"/>
<path d="M31.5249 7.66873L29.667 8.11894C29.5843 8.13851 29.4972 8.12474 29.4247 8.08067C29.3522 8.0366 29.3003 7.96581 29.2803 7.88383C29.2606 7.80204 29.2742 7.7158 29.3183 7.64395C29.3624 7.5721 29.4334 7.52047 29.5157 7.50033L31.3735 7.05179C31.4562 7.03213 31.5434 7.04562 31.6161 7.08933C31.6888 7.13304 31.7412 7.20343 31.7619 7.28523C31.7817 7.36726 31.7678 7.4537 31.7233 7.52559C31.6789 7.59748 31.6075 7.64896 31.5249 7.66873Z" fill="#E0EFF2"/>
<path d="M31.5847 7.92036L29.7269 8.3689C29.6442 8.38856 29.5571 8.37507 29.4843 8.33136C29.4116 8.28766 29.3592 8.21726 29.3385 8.13546C29.3192 8.05325 29.3333 7.96681 29.3776 7.89476C29.4219 7.82271 29.4931 7.77083 29.5756 7.75029L31.425 7.30176C31.5075 7.28213 31.5944 7.29567 31.6669 7.3394C31.7393 7.38314 31.7914 7.45352 31.8117 7.53519C31.8318 7.61606 31.8194 7.70153 31.777 7.77344C31.7346 7.84536 31.6657 7.89806 31.5847 7.92036Z" fill="#E0EFF2"/>
<path d="M31.648 8.16607L29.7902 8.6146C29.7075 8.63427 29.6203 8.62078 29.5476 8.57707C29.4749 8.53336 29.4225 8.46296 29.4018 8.38117C29.3918 8.34065 29.3899 8.29858 29.3963 8.25735C29.4027 8.21612 29.4173 8.17656 29.4392 8.14092C29.461 8.10529 29.4898 8.07429 29.5238 8.04971C29.5577 8.02512 29.5963 8.00744 29.6372 7.99766L31.495 7.54746C31.5779 7.5283 31.665 7.54221 31.7377 7.58619C31.8103 7.63017 31.8627 7.70069 31.8834 7.78256C31.9031 7.86436 31.8895 7.9506 31.8454 8.02245C31.8013 8.0943 31.7303 8.14593 31.648 8.16607Z" fill="#E0EFF2"/>
<path d="M31.4771 7.13349L29.473 7.61703C29.3839 7.63821 29.2899 7.62364 29.2115 7.5765C29.1331 7.52936 29.0766 7.45345 29.0544 7.36526C29.033 7.27684 29.0477 7.18364 29.0952 7.1059C29.1428 7.02817 29.2193 6.97217 29.3082 6.95007L31.3123 6.46652C31.4015 6.44535 31.4955 6.45992 31.5738 6.50706C31.6522 6.5542 31.7087 6.63011 31.731 6.7183C31.7523 6.80672 31.7376 6.89992 31.6901 6.97765C31.6426 7.05539 31.566 7.11139 31.4771 7.13349Z" fill="#AAB9D8"/>
<path d="M30.265 2.65988C30.212 2.67333 30.1568 2.67623 30.1027 2.6684C30.0486 2.66056 29.9966 2.64215 29.9496 2.61424C29.9027 2.58633 29.8619 2.54946 29.8294 2.50577C29.797 2.46209 29.7736 2.41245 29.7606 2.35974L29.7102 2.15632C29.6966 2.10376 29.6937 2.04905 29.7016 1.99536C29.7095 1.94168 29.7281 1.89008 29.7562 1.84355C29.7844 1.79703 29.8215 1.7565 29.8656 1.72433C29.9096 1.69215 29.9597 1.66896 30.0128 1.6561C30.0653 1.64343 30.1197 1.64114 30.173 1.64937C30.2264 1.65761 30.2775 1.6762 30.3236 1.70408C30.3697 1.73196 30.4098 1.76858 30.4415 1.81185C30.4733 1.85512 30.4962 1.90419 30.5088 1.95623L30.5592 2.16132C30.5869 2.26613 30.5714 2.37753 30.5162 2.47102C30.461 2.56452 30.3707 2.63245 30.265 2.65988Z" fill="#FFE69E"/>
<path d="M30.5475 3.40183C30.5078 3.41154 30.4665 3.41336 30.426 3.40721C30.3856 3.40106 30.3467 3.38705 30.3117 3.36598C30.2768 3.34491 30.2463 3.31721 30.2221 3.28444C30.198 3.25168 30.1806 3.21451 30.1709 3.17506C30.1516 3.09548 30.1648 3.01156 30.2076 2.9416C30.2505 2.87163 30.3195 2.8213 30.3996 2.80157C30.4798 2.78243 30.5644 2.79553 30.635 2.83801C30.7055 2.88048 30.7563 2.9489 30.7762 3.02833C30.7859 3.06775 30.7878 3.10869 30.7816 3.14882C30.7754 3.18894 30.7613 3.22746 30.74 3.26216C30.7188 3.29685 30.6908 3.32705 30.6578 3.35102C30.6248 3.37499 30.5873 3.39226 30.5475 3.40183Z" fill="#FFE69E"/>
<g style="mix-blend-mode:multiply">
<path d="M31.7143 8.20489L30.7526 8.43833C30.6864 8.45343 30.6169 8.44215 30.559 8.4069C30.5012 8.37166 30.4596 8.31528 30.4432 8.24991C30.4424 8.24662 30.4424 8.2432 30.4432 8.23991C30.3697 8.24212 30.2976 8.21936 30.2389 8.17539C30.1802 8.13142 30.1384 8.06888 30.1204 7.99814C30.1121 7.95462 30.1121 7.90993 30.1204 7.86641C30.0928 7.83101 30.0733 7.79003 30.0633 7.74636C30.0532 7.70302 30.0532 7.65797 30.0633 7.61463C30.0354 7.57973 30.0154 7.53938 30.0044 7.49625C29.9952 7.45281 29.9952 7.40795 30.0044 7.36452C29.9771 7.32953 29.9576 7.28917 29.9473 7.24613C29.9428 7.23147 29.94 7.21638 29.9388 7.20111C29.8992 7.17792 29.8646 7.14708 29.8372 7.11043C29.8098 7.07377 29.79 7.03204 29.7791 6.98769C29.766 6.93596 29.7655 6.88186 29.7778 6.82993C29.7901 6.77799 29.8148 6.72974 29.8497 6.68922C29.8029 6.6382 29.7617 6.58229 29.727 6.52248C29.6761 6.43931 29.6386 6.34872 29.616 6.25403L29.5454 5.97223C29.5368 5.93374 29.5255 5.89586 29.5118 5.85885C29.4319 5.63611 29.2889 5.44098 29.0999 5.29693C29.0679 5.27192 29.0343 5.25025 29.0007 5.22857C28.8398 5.12651 28.6914 5.0062 28.5585 4.87008C28.5064 4.81505 28.456 4.75836 28.4072 4.70334C28.3065 4.58138 28.2186 4.44953 28.1449 4.30983C28.1083 4.24003 28.0758 4.16821 28.0474 4.09473C28.0033 3.98195 27.9679 3.86601 27.9415 3.74791C27.9314 3.69789 27.9213 3.64787 27.9146 3.59784C27.9146 3.58617 27.9146 3.57283 27.9146 3.55949C27.9146 3.51281 27.9028 3.46445 27.8995 3.41776C27.8995 3.36774 27.8995 3.31772 27.8995 3.2677V3.23268V3.09429C27.8995 3.09429 27.8995 3.09429 27.8995 3.08428C27.8995 3.03426 27.9079 2.98424 27.9146 2.93588V2.90587C27.9146 2.85918 27.9297 2.81416 27.9381 2.76747C27.9482 2.71745 27.96 2.6691 27.9734 2.62074V2.5974C27.9869 2.55238 28.0003 2.50569 28.0171 2.46067C28.0356 2.41232 28.0558 2.36396 28.076 2.31727V2.30227C28.0962 2.25558 28.118 2.21056 28.1416 2.16554C28.1668 2.11885 28.192 2.07383 28.2206 2.02881C28.3647 1.79781 28.5472 1.59261 28.7603 1.42188C28.2351 1.59923 27.789 1.95314 27.4993 2.42232C27.4707 2.46734 27.4438 2.51403 27.4186 2.56072C27.3951 2.60574 27.3732 2.65076 27.3514 2.69578V2.71078C27.3295 2.75747 27.311 2.80582 27.2925 2.85418C27.2757 2.90087 27.2606 2.94589 27.2471 2.99257V3.01425C27.2337 3.06261 27.2202 3.11263 27.2101 3.16098C27.2101 3.16098 27.2101 3.16098 27.2101 3.17099C27.2 3.21601 27.1933 3.26103 27.1849 3.30771C27.1849 3.31772 27.1849 3.32772 27.1849 3.33773C27.1849 3.38775 27.1715 3.4361 27.1681 3.48613V3.47612C27.1681 3.52281 27.1681 3.5695 27.1681 3.61452V3.6512C27.1681 3.69956 27.1681 3.74958 27.1681 3.7996C27.1681 3.84629 27.1765 3.89298 27.1832 3.94133V3.97968C27.1916 4.0297 27.2 4.07806 27.2118 4.12808C27.238 4.24624 27.2734 4.3622 27.3177 4.4749C27.3456 4.54832 27.3776 4.62013 27.4136 4.69C27.4845 4.82796 27.569 4.95865 27.6658 5.08017C27.7131 5.1384 27.7637 5.19406 27.8171 5.24691C27.9491 5.3839 28.0976 5.5043 28.2592 5.6054C28.2929 5.62708 28.3248 5.65042 28.3568 5.67377C28.5463 5.81765 28.6899 6.01278 28.7704 6.23568C28.7838 6.27404 28.7939 6.31072 28.804 6.35074L28.8729 6.63253C28.8959 6.72656 28.9334 6.81653 28.9839 6.89931C29.0183 6.95974 29.0601 7.01574 29.1083 7.06605C29.0739 7.10723 29.0496 7.15578 29.0373 7.20787C29.0251 7.25996 29.0252 7.31416 29.0377 7.36619C29.0488 7.41043 29.0687 7.45205 29.0961 7.48868C29.1235 7.5253 29.1579 7.5562 29.1974 7.57962C29.1966 7.59406 29.1966 7.60853 29.1974 7.62297C29.2084 7.66611 29.2284 7.70645 29.2562 7.74135C29.2462 7.7847 29.2462 7.82974 29.2562 7.87308C29.2662 7.91676 29.2857 7.95773 29.3134 7.99313C29.305 8.03665 29.305 8.08134 29.3134 8.12486C29.3244 8.168 29.3444 8.20834 29.3723 8.24324C29.3622 8.28659 29.3622 8.33163 29.3723 8.37497C29.3898 8.44574 29.4313 8.50844 29.4896 8.55271C29.548 8.59697 29.6199 8.62015 29.6934 8.61841C29.6942 8.6217 29.6942 8.62513 29.6934 8.62842C29.7101 8.69383 29.7521 8.7501 29.8103 8.78505C29.8685 8.81999 29.9382 8.83081 30.0044 8.81517L31.4924 8.45501C31.5536 8.44695 31.6098 8.41718 31.6506 8.3712C31.6914 8.32522 31.714 8.26614 31.7143 8.20489Z" fill="#E0EFF2"/>
</g>
<path d="M38.2682 29.7912C38.2682 29.7912 37.6713 30.6383 37.8209 30.7917C37.9706 30.9451 38.6078 30.4498 38.7894 30.2097C38.9709 29.9696 38.7642 29.6328 38.7642 29.6328L38.2682 29.7912Z" fill="#FF5D7B"/>
<path d="M37.918 25.2897C37.918 25.2897 38.0861 27.4206 38.1517 27.6808C38.2172 27.9409 38.1987 29.7 38.2929 29.9084C38.387 30.1168 38.8057 29.7934 38.8057 29.655C38.8057 29.5166 39.0629 28.3394 39.0865 28.0476C39.11 27.7558 39.4362 26.0884 39.4597 25.6248C39.4832 25.1613 38.456 24.516 37.918 25.2897Z" fill="#FACFC9"/>
<path d="M42.6875 27.9344C42.6875 27.9344 43.133 28.8681 43.3348 28.8148C43.5365 28.7614 43.4256 27.9661 43.3062 27.6909C43.1868 27.4158 42.7884 27.4258 42.7884 27.4258L42.6875 27.9344Z" fill="#FF5D7B"/>
<path d="M41.0453 24.384C41.0453 25.1493 41.0453 25.6412 41.2925 26.3482C41.4102 26.6817 42.7283 27.3103 42.9839 27.6104C43.2394 27.9105 42.9519 28.0439 42.5753 27.9672C42.1987 27.8905 41.0369 27.3269 40.6183 27.0335C40.282 26.8 39.66 25.853 39.67 25.0443C39.6801 24.2356 40.4636 23.9538 41.0453 24.384Z" fill="#FACFC9"/>
<path d="M37.5687 18.6199C37.5687 18.6199 36.0001 18.2864 35.7949 18.033C35.5898 17.7795 34.6618 16.574 34.3642 16.594C34.0666 16.614 33.9792 16.7791 33.9825 16.9742C33.9859 17.1693 35.23 18.6666 35.3544 18.795C35.4789 18.9234 37.1349 19.9622 37.3619 19.8838C37.5889 19.8054 37.9083 18.6966 37.5687 18.6199Z" fill="#174859"/>
<path d="M41.9022 22.2838C41.9022 22.2838 41.7341 22.8207 41.9257 22.9158C42.1174 23.0108 42.2082 22.9058 42.2082 22.9058C42.2082 22.9058 42.5175 23.1742 42.6302 22.9358C42.7428 22.6973 42.6083 22.1688 42.1779 22.0821C42.116 22.0811 42.0555 22.1003 42.0057 22.1367C41.9559 22.1732 41.9195 22.2249 41.9022 22.2838Z" fill="#FACFC9"/>
<path d="M39.2685 19.6867C39.2685 19.6867 40.7312 20.3387 40.8775 20.6338C41.0237 20.929 41.671 22.3012 41.9669 22.3396C42.2629 22.3779 42.3839 22.2395 42.4226 22.0478C42.4612 21.856 41.5651 20.1319 41.471 19.9819C41.3768 19.8318 39.978 18.4812 39.7409 18.4962C39.5039 18.5112 38.9541 19.5417 39.2685 19.6867Z" fill="#174859"/>
<path d="M37.0839 18.9184C37.0839 18.9184 37.1847 20.9426 37.5176 21.3361C37.5176 21.3361 37.6488 21.6296 37.6521 22.3883C37.6555 23.1469 37.252 24.4275 37.6992 25.7231C37.6992 25.7231 41.546 26.0182 41.5662 24.6626C41.5763 23.7922 40.9895 22.6617 40.4649 22.0231C40.016 21.4812 40.2464 21.2861 40.1001 20.6208V20.6108C40.0244 20.259 39.9605 18.7667 39.8412 18.5749C39.7218 18.3831 39.2443 18.3281 39.2443 18.3281C39.2443 18.3281 38.8929 19.437 38.5365 19.4203C38.1801 19.4036 37.5546 18.5399 37.5546 18.5399C37.5546 18.5399 37.1797 18.6149 37.0839 18.9184Z" fill="#174859"/>
<path d="M34.2967 16.6374C34.2967 16.6374 34.5085 16.0255 34.2967 15.9071C34.0849 15.7887 33.9705 15.9071 33.9705 15.9071C33.9705 15.9071 33.6259 15.5836 33.4863 15.8537C33.3468 16.1238 33.4762 16.7391 33.9705 16.8542C34.0413 16.8583 34.1115 16.8394 34.1704 16.8003C34.2293 16.7611 34.2737 16.7039 34.2967 16.6374Z" fill="#FACFC9"/>
<path d="M38.2077 18.5146V18.1811C38.2077 18.1811 37.5083 18.1544 37.4663 17.6509C37.4243 17.1473 37.4663 17.3974 37.4663 17.3974C37.4663 17.3974 37.2208 17.3107 37.2208 17.2307C37.2208 17.1507 37.5268 16.8872 37.5268 16.8872C37.5268 16.8872 37.6849 15.8868 38.4801 15.8384C39.2754 15.7901 39.6015 16.462 39.5746 17.0056C39.5477 17.5492 39.1509 18.0511 38.9862 18.0777C38.8214 18.1044 38.9307 18.5129 38.9307 18.5129C38.9307 18.5129 38.4398 18.8798 38.2077 18.5146Z" fill="#FACFC9"/>
<path d="M38.3398 15.4325C38.3398 15.4325 37.141 15.6476 37.4269 16.1478C37.7127 16.648 38.5483 16.6964 38.5483 16.6964C38.5483 16.6964 38.5718 17.1716 38.8677 17.3033C38.9391 17.5509 38.9473 17.8122 38.8916 18.0637C38.8358 18.3152 38.7178 18.549 38.5483 18.744C37.9615 19.4826 39.7437 19.7844 40.0749 18.0987C40.4061 16.4129 39.7941 15.8227 39.2595 15.701C38.7248 15.5792 38.6105 15.701 38.6105 15.701C38.6105 15.701 38.4978 15.3975 38.3398 15.4325Z" fill="#FF5D7B"/>
<path d="M30.4941 8.72266C30.4941 8.72266 30.9834 14.8771 33.8651 16.2043C36.7468 17.5316 37.2613 19.5258 35.5329 20.4479" stroke="#174859" stroke-width="0.82" stroke-miterlimit="10"/>
<path d="M28.8758 28.5295C28.7609 28.6436 28.6866 28.7917 28.6639 28.9513C28.5883 29.4516 28.363 30.8655 28.2402 30.8889C28.0906 30.9139 26.3438 31.6826 26.3438 31.7226C26.3438 31.7626 26.3858 32.1811 27.0364 32.0427C27.6871 31.9043 28.8724 31.4358 28.9615 31.3207C29.0506 31.2057 29.4188 29.4399 29.3549 29.0731C29.3028 28.7679 29.1868 28.2294 28.8758 28.5295Z" fill="#CC3853"/>
<path d="M26.0016 35.0428C26.0016 35.0428 25.889 35.6397 25.7713 35.7281C25.7269 35.7473 25.6786 35.7561 25.6302 35.7539C25.5819 35.7517 25.5346 35.7384 25.4922 35.7152C25.4498 35.692 25.4134 35.6595 25.3857 35.6201C25.358 35.5807 25.3398 35.5355 25.3325 35.488C25.3207 35.2662 25.5577 34.5859 25.5577 34.5859C25.5577 34.5859 25.9091 34.5843 26.0016 35.0428Z" fill="#FACFC9"/>
<path d="M29.3495 31.8068C29.3495 31.8068 26.2442 31.6401 25.9752 32.0519C25.7062 32.4638 25.7398 32.8856 26.9369 32.8489C28.1339 32.8123 29.442 33.0157 29.6 32.5855C29.7581 32.1553 29.3495 31.8068 29.3495 31.8068Z" fill="#5384C2"/>
<path d="M26.1964 32.0198C26.1964 32.0198 25.9896 31.9481 25.8601 32.4C25.7306 32.8518 25.2246 35.0195 25.2683 35.0678C25.312 35.1162 25.85 35.3796 26.2031 35.3329C26.2031 35.3329 26.6671 33.317 26.7445 32.9735C26.8218 32.6301 26.6621 31.9598 26.1964 32.0198Z" fill="#5384C2"/>
<path d="M25.9149 35.5394C25.9171 35.6635 25.8935 35.7867 25.8458 35.9014C25.7981 36.0161 25.7272 36.1199 25.6375 36.2064C25.3282 36.5165 23.8671 35.6061 23.8083 35.1393C23.7494 34.6724 25.2912 35.2126 25.2912 35.2126C25.3595 35.3143 25.4523 35.3975 25.5612 35.4545C25.6702 35.5116 25.7917 35.5408 25.9149 35.5394Z" fill="#FF5D7B"/>
<path d="M24.8637 35.3822C24.3307 34.947 23.9154 34.9854 23.8835 34.9921C23.8569 35.0053 23.8355 35.0269 23.8224 35.0534C23.8094 35.0798 23.8054 35.1099 23.8112 35.1388C23.8667 35.5723 25.1276 36.386 25.5563 36.2543C25.78 36.0725 25.4084 35.8208 24.8637 35.3822Z" fill="#E03D5B"/>
<path d="M29.9799 28.0179C30.1224 27.9781 30.272 27.9699 30.418 27.9939C30.5641 28.0179 30.703 28.0735 30.8249 28.1568C30.9469 28.24 31.0489 28.3488 31.1237 28.4755C31.1984 28.6022 31.2442 28.7437 31.2577 28.8899C31.372 30.0171 31.4443 31.9213 30.7314 32.5499C30.417 32.8182 30.0461 33.0134 29.6458 33.1213C29.2456 33.2292 28.8261 33.247 28.418 33.1735C28.418 33.1735 28.8955 29.2751 28.8702 28.6715C28.8635 28.5014 29.2485 28.2179 29.9799 28.0179Z" fill="#FF5D7B"/>
<path d="M27.4297 35.6678C27.4297 35.6678 27.3171 36.2647 27.1994 36.3531C27.1552 36.3723 27.1072 36.3812 27.059 36.3791C27.0108 36.377 26.9638 36.3639 26.9215 36.3408C26.8793 36.3177 26.8429 36.2854 26.8153 36.2462C26.7877 36.2069 26.7696 36.162 26.7623 36.1147C26.7488 35.8912 26.9859 35.2109 26.9859 35.2109C26.9859 35.2109 27.3373 35.2109 27.4297 35.6678Z" fill="#FACFC9"/>
<path d="M30.7625 32.4062C30.7625 32.4062 30.86 33.5734 29.6125 33.5267C28.365 33.48 27.2923 33.5484 27.2923 33.3033C27.2923 33.0582 27.0418 32.4696 28.365 32.3128C29.164 32.2158 29.9736 32.2473 30.7625 32.4062Z" fill="#66A1ED"/>
<path d="M27.6241 32.508C27.6241 32.508 27.4173 32.4363 27.2878 32.8899C27.1584 33.3434 26.6523 35.5077 26.696 35.5577C26.7397 35.6078 27.2778 35.8712 27.6308 35.8229C27.6308 35.8229 28.0949 33.8086 28.1739 33.4635C28.2529 33.1183 28.0898 32.448 27.6241 32.508Z" fill="#66A1ED"/>
<path d="M27.3681 36.184C27.3702 36.308 27.3467 36.4312 27.299 36.5459C27.2512 36.6606 27.1803 36.7644 27.0906 36.8509C26.7813 37.1611 25.3203 36.2507 25.2614 35.7838C25.2026 35.3169 26.7443 35.8572 26.7443 35.8572C26.8124 35.9591 26.9052 36.0424 27.0142 36.0995C27.1231 36.1566 27.2448 36.1856 27.3681 36.184Z" fill="#FF5D7B"/>
<path d="M26.3129 36.0268C25.7799 35.5916 25.3646 35.6299 25.3327 35.6366C25.3061 35.6499 25.2847 35.6714 25.2716 35.6979C25.2586 35.7244 25.2546 35.7544 25.2604 35.7833C25.3159 36.2168 26.5768 37.0305 27.0056 36.8988C27.2292 36.7171 26.8492 36.4636 26.3129 36.0268Z" fill="#E03D5B"/>
<path d="M29.5386 28.4117L29.3856 28.0382C29.3856 28.0382 28.5752 28.3284 28.2927 27.7748C28.1351 27.4948 28.0357 27.1864 28.0002 26.8677C28.0002 26.8677 27.711 25.6438 28.597 25.232C29.4831 24.8201 30.1707 25.4287 30.3927 26.0657C30.6146 26.7026 30.3927 27.453 30.2245 27.5664C30.0564 27.6797 30.3658 28.0899 30.3658 28.0899C30.3658 28.0899 29.9757 28.7202 29.5386 28.4117Z" fill="#FACFC9"/>
<path d="M29.3957 25.9035C29.3957 25.9035 28.3869 26.5104 27.7766 26.2937C27.1663 26.0769 27.2335 25.4333 27.511 25.2616C27.7884 25.0898 27.8808 25.2616 27.8808 25.2616C27.8808 25.2616 28.2087 25.0181 28.2978 25.1849C28.2978 25.1849 29.2225 24.8364 29.3957 24.9164L29.5638 24.9981C29.5638 24.9981 29.3436 24.803 29.4478 24.7797C29.552 24.7563 29.6916 24.9164 29.6916 24.9164C29.6916 24.9164 30.085 24.8947 30.0497 24.9748C30.0144 25.0548 29.8698 25.0865 29.8698 25.0865C29.8698 25.0865 30.4162 25.3416 30.4818 26.167C30.5474 26.9923 30.4818 27.1541 30.4818 27.1541C30.4818 27.1541 30.4599 27.9361 30.1674 27.6876C29.8748 27.4392 30.1876 27.0724 30.1876 26.9923C30.1876 26.9123 30.3036 26.5455 30.1539 26.4087C30.0043 26.272 29.8698 26.5221 29.8698 26.5221C29.8698 26.5221 30.0026 26.8889 29.9455 26.924C29.8933 26.9368 29.8383 26.9296 29.7912 26.904C29.7442 26.8783 29.7086 26.8361 29.6916 26.7856C29.668 26.6722 29.6563 26.4304 29.6327 26.3854C29.6092 26.3404 29.4024 26.247 29.3789 26.1903C29.3712 26.0944 29.3769 25.9979 29.3957 25.9035Z" fill="#174859"/>
<path d="M28.4203 32.6686L30.2764 32.0883L28.232 31.5664L25.8496 32.0299L28.4203 32.6686Z" fill="#AAB9D8"/>
<path d="M30.6654 28.4908C30.6654 28.4908 30.3662 30.5817 30.2148 30.6084C30.0635 30.6351 28.3184 31.4021 28.3184 31.4421C28.3184 31.4821 28.3621 31.9006 29.011 31.7622C29.66 31.6238 30.847 31.1553 30.9361 31.0402C31.0252 30.9252 31.3934 29.1594 31.3295 28.7926C31.2656 28.4257 30.6974 28.2824 30.6654 28.4908Z" fill="#E03D5B"/>
<path d="M28.4149 31.4618C28.4149 31.4618 27.8315 31.4368 27.7323 31.6503C27.6331 31.8637 27.7777 32.0838 28.0686 32.0754C28.3594 32.0671 28.7512 31.807 28.7159 31.7153C28.648 31.599 28.5417 31.5094 28.4149 31.4618Z" fill="#FACFC9"/>
<path d="M25.4238 29.8164L28.2366 30.4267L28.4165 32.6727L25.8458 32.0341L25.4238 29.8164Z" fill="#E0EFF2"/>
<path d="M6.79644 40.9956L6.44169 41.3024C6.20553 41.3061 5.97002 41.3278 5.73723 41.3674C5.55565 41.4191 5.21604 41.6125 5.26816 41.6776C5.26816 41.6776 5.021 41.936 5.08489 41.9877C5.08489 41.9877 5.12525 42.1678 5.21604 42.1678C5.24253 42.2071 5.28005 42.2378 5.32398 42.2562C5.36791 42.2746 5.4163 42.2798 5.46318 42.2712C5.60207 42.1689 5.76441 42.1024 5.93562 42.0777C6.04338 42.0767 6.15113 42.0812 6.25843 42.0911C6.25843 42.0911 5.95916 42.1494 5.86837 42.2762C5.77759 42.4029 5.77591 42.4796 5.82803 42.5046C5.88015 42.5296 6.10207 42.3495 6.28533 42.3495C6.46859 42.3495 6.7998 42.1294 6.78971 41.936C6.77963 41.7426 7.19154 41.4575 7.2941 41.3024C7.39666 41.1473 6.98642 40.8305 6.79644 40.9956Z" fill="#FACFC9"/>
<path d="M13.2607 39.7739C13.2607 39.7739 13.6575 41.1078 13.8827 41.1778C14.108 41.2478 14.7856 39.4687 14.7856 39.4687C14.7856 39.4687 14.9369 39.2403 15.4867 39.4687C16.0365 39.6971 14.3333 42.47 14.0828 42.47C13.8323 42.47 12.4772 41.8248 12.5797 41.3279C12.6823 40.831 12.9126 39.7772 13.2607 39.7739Z" fill="#E8A423"/>
<path d="M11.0969 50.6415C11.0969 50.6415 11.0196 51.16 11.1506 51.3501C11.2817 51.5402 11.4632 51.4402 11.5237 51.2467C11.5648 51.0033 11.5828 50.7565 11.5775 50.5098C11.5775 50.5098 11.2414 50.4097 11.0969 50.6415Z" fill="#FACFC9"/>
<path d="M11.6452 51.1055C11.7245 51.0736 11.8127 51.0706 11.894 51.0972C12.2019 51.2151 12.5156 51.3175 12.8339 51.404C13.0945 51.4557 13.5316 51.6524 13.5518 51.9042C13.572 52.156 11.889 52.0393 11.6334 52.0293C11.3779 52.0192 10.9828 52.0593 10.9609 51.8942C10.9475 51.7841 10.9609 51.429 10.9609 51.2106C10.9612 51.1901 10.9661 51.1701 10.9751 51.1517C10.9842 51.1334 10.9972 51.1173 11.0133 51.1045C11.0294 51.0918 11.0481 51.0827 11.0681 51.078C11.0881 51.0733 11.1089 51.073 11.1291 51.0772C11.2957 51.1309 11.4736 51.1407 11.6452 51.1055Z" fill="#5384C2"/>
<path d="M7.76151 50.5112C7.76151 50.5112 7.54799 50.9914 7.62364 51.2082C7.6993 51.4249 7.90105 51.3749 8.01034 51.2082C8.11762 50.9844 8.2032 50.751 8.2659 50.5112C8.2659 50.5112 7.97167 50.3278 7.76151 50.5112Z" fill="#FACFC9"/>
<path d="M8.03987 51.043C8.11868 51.0088 8.20773 51.0058 8.2887 51.0347C8.5493 51.128 9.04192 51.3031 9.22854 51.3415C9.48914 51.3932 9.92627 51.5883 9.94644 51.8417C9.96662 52.0951 8.28366 51.9751 8.0281 51.9651C7.77255 51.9551 7.37744 51.9951 7.35559 51.83C7.34214 51.72 7.35559 51.3648 7.35559 51.1464C7.35614 51.1261 7.36117 51.1062 7.37032 51.0881C7.37948 51.07 7.39254 51.0541 7.40858 51.0415C7.42462 51.029 7.44323 51.02 7.46313 51.0154C7.48303 51.0108 7.50371 51.0105 7.52372 51.0147C7.69045 51.068 7.86822 51.0777 8.03987 51.043Z" fill="#5384C2"/>
<path d="M8.80859 42.8204C8.80859 42.8204 8.95823 43.7708 9.35333 44.1293C9.35333 44.1293 11.6399 46.6304 11.7576 47.1056C11.8753 47.5808 11.0161 50.7406 11.0077 50.7739C10.9993 50.8073 11.6382 50.8423 11.7054 50.5438C11.7727 50.2453 12.8151 46.9989 12.7411 46.7605C12.6671 46.522 10.7858 43.7024 10.7858 43.7024C10.7858 43.7024 10.8799 42.787 10.6984 42.5236C10.5168 42.2601 8.80859 42.8204 8.80859 42.8204Z" fill="#E03D5B"/>
<path d="M10.7676 42.6094C10.7676 42.6094 8.82235 42.7178 8.80722 43.0112L9.20905 47.9267L7.62695 50.6146C7.7031 50.6992 7.80328 50.759 7.9143 50.786C8.02533 50.8131 8.14201 50.8063 8.24903 50.7663C8.62564 50.2811 10.1943 48.3469 10.3305 47.9684C10.4666 47.5899 10.1388 44.2434 10.1388 44.2434C10.1388 44.2434 10.7777 43.8616 10.7895 43.5365C10.8012 43.2113 10.7676 42.6094 10.7676 42.6094Z" fill="#FF5D7B"/>
<path d="M12.2807 38.8618C12.2807 38.8618 10.8667 38.4533 10.665 38.7668C10.4632 39.0802 9.03412 42.6602 9.24597 43.0287C9.45781 43.3972 10.5506 44.0291 10.8213 43.8307C11.092 43.6323 13.1583 40.4759 13.2726 40.1824C13.387 39.8889 13.1163 39.3637 12.8574 39.2086L12.2807 38.8618Z" fill="#ABB5F3"/>
<path d="M11.1791 41.359C11.1791 41.359 10.4175 43.3999 10.014 43.7717C10.014 43.7717 9.19688 43.8601 8.69922 42.918C8.69922 42.918 9.58357 40.8721 9.69285 40.5753C9.80214 40.2785 10.4999 38.7411 10.4999 38.7411C10.4999 38.7411 10.6344 38.2309 12.282 38.8479L11.1791 41.359Z" fill="#F4B031"/>
<path d="M11.3688 41.8377C11.3688 41.8377 10.7971 43.7386 10.819 43.8386C10.8759 44.0111 10.9889 44.16 11.1401 44.2621C11.3419 44.4105 12.5759 41.3525 12.5759 41.3525C12.5759 41.3525 13.3913 40.3387 13.3359 40.1086C13.3007 39.9049 13.29 39.6978 13.3039 39.4917C13.3039 39.4917 12.8954 39.415 12.5641 39.9919C12.2329 40.5688 11.3688 41.8377 11.3688 41.8377Z" fill="#F4B031"/>
<path d="M12.9276 39.4469L13.0957 39.0584C13.0957 39.0584 13.9363 39.3602 14.2306 38.785C14.3937 38.4953 14.4966 38.1761 14.5332 37.8462C14.5332 37.8462 14.8341 36.574 13.9145 36.1471C12.9948 35.7203 12.2803 36.3506 12.0499 37.0075C11.8196 37.6645 12.0499 38.4482 12.2181 38.5582C12.3862 38.6683 12.0701 39.1018 12.0701 39.1018C12.0701 39.1018 12.4753 39.7671 12.9276 39.4469Z" fill="#FACFC9"/>
<path d="M13.0782 36.8514C13.0782 36.8514 14.134 37.4833 14.7594 37.2565C15.3849 37.0298 15.3244 36.3645 15.0352 36.1861C14.746 36.0076 14.6518 36.1861 14.6518 36.1861C14.6518 36.1861 14.3156 35.9343 14.2198 36.106C14.2198 36.106 13.2597 35.7459 13.0798 35.8292L12.8999 35.9109C12.8999 35.9109 13.1269 35.7092 13.0193 35.6858C12.9117 35.6625 12.7671 35.8292 12.7671 35.8292C12.7671 35.8292 12.3586 35.8042 12.3956 35.8876C12.4326 35.971 12.5822 36.0043 12.5822 36.0043C12.5822 36.0043 12.0156 36.2694 11.9467 37.1265C11.8777 37.9835 11.9467 38.1486 11.9467 38.1486C11.9467 38.1486 11.9702 38.9623 12.2728 38.7038C12.5755 38.4454 12.251 38.0652 12.251 37.9835C12.251 37.9018 12.1316 37.5183 12.288 37.3749C12.4443 37.2315 12.5822 37.495 12.5822 37.495C12.5822 37.495 12.4426 37.8751 12.5032 37.9118C12.5573 37.9248 12.6143 37.9173 12.6631 37.8908C12.7119 37.8642 12.749 37.8206 12.7671 37.7684C12.7907 37.65 12.8041 37.3999 12.8277 37.3516C12.8512 37.3032 13.0681 37.2098 13.0916 37.1498C13.1004 37.0502 13.0959 36.9498 13.0782 36.8514Z" fill="#174859"/>
<path d="M12.3732 38.7005C12.3732 38.7005 11.7007 38.6622 11.6789 38.7172C11.657 38.7722 11.847 39.1207 11.847 39.1207C11.847 39.1207 11.0652 40.2095 11.1072 40.7648C11.1385 41.0518 11.1385 41.3414 11.1072 41.6285C11.1072 41.6285 12.427 38.9023 12.3732 38.7005Z" fill="#E8A423"/>
<path d="M13.0154 39.0977C13.0154 39.0977 13.4391 39.6112 13.4088 39.6646C13.3785 39.7179 12.9801 39.7646 12.9801 39.7646C12.9801 39.7646 12.5497 41.0302 12.0722 41.3236C11.8209 41.4693 11.5859 41.6409 11.3711 41.8355C11.3711 41.8355 12.8204 39.1727 13.0154 39.0977Z" fill="#E8A423"/>
<path d="M10.6588 38.6537C10.6588 38.6537 8.46302 39.1172 8.25623 39.274C8.04943 39.4307 6.4707 40.9414 6.4707 40.9414C6.4707 40.9414 6.659 41.655 7.20374 41.53C7.74848 41.4049 8.34702 40.2144 8.56559 40.2144C8.78415 40.2144 10.5831 39.6925 10.8488 39.5991C11.1144 39.5057 11.0287 38.5703 10.6588 38.6537Z" fill="#F4C43E"/>
<path d="M15.0003 39.746L15.0928 39.4125C15.0928 39.4125 14.8691 39.1908 14.8691 39.1091C14.8691 39.0274 14.9818 38.5972 15.0928 38.5972C15.2037 38.5972 15.7182 38.307 15.8157 38.5288C15.9132 38.7506 15.8157 38.7489 15.8157 38.7489C15.8157 38.7489 15.9838 38.9573 15.8594 39.1091C15.854 39.2123 15.8348 39.3143 15.8023 39.4125C15.7602 39.4959 15.5097 39.5509 15.5097 39.5509L15.4223 39.8377C15.4223 39.8377 15.0776 40.1045 15.0003 39.746Z" fill="#FACFC9"/>
<path d="M15.3888 38.7513C15.3745 38.7513 15.3604 38.7484 15.3473 38.743C15.3341 38.7375 15.3222 38.7295 15.3122 38.7194C15.3022 38.7093 15.2943 38.6974 15.289 38.6842C15.2837 38.6711 15.281 38.657 15.2813 38.6429V37.7825C15.2813 37.7542 15.2926 37.727 15.3128 37.707C15.3329 37.687 15.3603 37.6758 15.3888 37.6758C15.4173 37.6758 15.4447 37.687 15.4649 37.707C15.485 37.727 15.4964 37.7542 15.4964 37.7825V38.6445C15.4959 38.6727 15.4845 38.6996 15.4644 38.7195C15.4443 38.7395 15.4172 38.7508 15.3888 38.7513Z" fill="#174859"/>
<path d="M15.3928 38.3073C15.7122 38.3073 15.9712 38.0505 15.9712 37.7337C15.9712 37.417 15.7122 37.1602 15.3928 37.1602C15.0734 37.1602 14.8145 37.417 14.8145 37.7337C14.8145 38.0505 15.0734 38.3073 15.3928 38.3073Z" fill="#174859"/>
<path d="M15.3869 38.1424C15.6126 38.1424 15.7955 37.961 15.7955 37.7372C15.7955 37.5134 15.6126 37.332 15.3869 37.332C15.1613 37.332 14.9784 37.5134 14.9784 37.7372C14.9784 37.961 15.1613 38.1424 15.3869 38.1424Z" fill="#C6E6FD"/>
<path d="M53.9563 39.9763C53.9563 39.9763 54.338 41.477 54.723 41.7137C55.108 41.9505 56.4345 41.0851 56.4345 41.0851C56.4345 41.0851 56.4984 40.6283 56.6212 40.5682C56.7439 40.5082 56.9423 40.69 56.9423 40.69C56.9423 40.69 57.6316 40.1731 57.8149 40.158C57.9981 40.143 57.4551 40.6583 57.4551 40.6583C57.4551 40.6583 57.4786 41.1585 57.2869 41.2835C57.086 41.3882 56.869 41.4592 56.6447 41.4936C56.6447 41.4936 55.5098 42.6608 54.6994 42.6091C53.8891 42.5575 52.8164 40.5982 52.8164 40.5982C52.8164 40.5982 53.3746 39.7629 53.9563 39.9763Z" fill="#E0A880"/>
<path d="M55.8946 48.5472L56.135 49.0691L56.7991 48.9024L56.2561 48.1554C56.2561 48.1554 55.6542 48.0237 55.8946 48.5472Z" fill="#F8C29C"/>
<path d="M52.4747 43.0765C52.4747 43.0765 54.4569 43.5684 55.1648 44.6105C55.8726 45.6527 56.7267 48.2622 56.7267 48.2622L55.7179 48.8007L53.9727 45.6477L51.666 44.3738C51.666 44.3738 51.7854 42.8564 52.4747 43.0765Z" fill="#E8A423"/>
<path d="M56.3339 40.9284L56.1893 41.587L57.6134 40.7016L57.7277 40.0547L56.3339 40.9284Z" fill="white"/>
<path d="M52.5755 39.5962C52.5755 39.5962 53.1757 38.7758 53.6767 39.1693C54.0014 39.4541 54.2351 39.8268 54.3493 40.2415L53.132 41.1185C53.132 41.1185 52.4259 40.9518 52.5755 39.5962Z" fill="#E03D5B"/>
<path d="M53.3707 38.4107C53.3707 38.4107 53.707 38.3941 53.7372 38.1573C53.7675 37.9205 53.8885 36.6466 55.2235 36.8851C56.1869 37.0518 56.1936 37.9439 56.1936 38.164C56.1936 38.3841 55.8573 39.2028 55.9044 39.3895C55.9515 39.5763 55.5497 39.3895 55.5497 39.3895C55.5497 39.3895 55.1428 39.9181 55.01 39.9548C54.8771 39.9914 54.2029 39.5212 54.1811 39.2878C54.1458 38.8909 53.7591 39.4879 53.5809 39.4312C53.4027 39.3745 53.0933 38.7709 53.3707 38.4107Z" fill="#F8C29C"/>
<path d="M53.367 38.418C53.367 38.418 50.9409 38.5497 50.4735 40.8907C50.0061 43.2318 50.4735 44.6507 50.4735 44.6507C50.4735 44.6507 51.8958 44.7425 52.5633 44.5324C53.2308 44.3223 52.1548 42.6582 53.4208 41.4677C54.4329 40.5172 53.367 38.418 53.367 38.418Z" fill="#FF5D7B"/>
<path d="M53.6223 40.4373C53.6223 40.4373 54.004 41.938 54.389 42.1747C54.774 42.4115 56.1005 41.5461 56.1005 41.5461C56.1005 41.5461 56.1644 41.0893 56.2872 41.0292C56.4099 40.9692 56.6083 41.1509 56.6083 41.1509C56.6083 41.1509 57.2976 40.6341 57.4809 40.619C57.6641 40.604 57.1211 41.1193 57.1211 41.1193C57.1211 41.1193 57.1429 41.6112 56.953 41.7445C56.752 41.849 56.535 41.9194 56.3107 41.953C56.3107 41.953 55.1758 43.1202 54.3655 43.0701C53.5551 43.0201 52.4824 41.0576 52.4824 41.0576C52.4824 41.0576 53.0406 40.2239 53.6223 40.4373Z" fill="#F8C29C"/>
<path d="M51.9592 39.8399C51.9592 39.8399 52.5594 39.0178 53.0587 39.4113C53.3837 39.6959 53.6175 40.0686 53.7312 40.4835L52.514 41.3605C52.514 41.3605 51.8062 41.1955 51.9592 39.8399Z" fill="#E03D5B"/>
<path d="M54.8222 49.0222L55.0643 49.5458L55.7267 49.379L55.1854 48.632C55.1854 48.632 54.5818 48.5003 54.8222 49.0222Z" fill="#F8C29C"/>
<path d="M51.405 43.5715C51.405 43.5715 53.3889 44.0633 54.095 45.1055C54.8012 46.1476 55.657 48.7571 55.657 48.7571L54.6482 49.2957L52.9013 46.1426L50.5946 44.8687C50.5946 44.8687 50.3256 44.5352 50.3996 44.2467C50.5072 43.8399 51.0049 43.4431 51.405 43.5715Z" fill="#F4C43E"/>
<path d="M54.9763 49.4537C55.2348 49.4717 55.4935 49.4217 55.7261 49.3086C55.7261 49.3086 56.9182 50.0006 57.1754 50.0989C57.4326 50.1973 57.4074 50.5108 57.1754 50.5225C56.9434 50.5341 55.0755 50.3557 54.9763 50.244C54.8771 50.1323 54.8334 49.5737 54.9763 49.4537Z" fill="#164454"/>
<path d="M56.0205 48.856C56.2795 48.8741 56.5388 48.8241 56.772 48.7109C56.772 48.7109 57.9641 49.4046 58.2213 49.5013C58.4785 49.598 58.4533 49.9131 58.2213 49.9248C57.9893 49.9365 56.1214 49.7581 56.0205 49.6464C55.9196 49.5346 55.8759 48.9761 56.0205 48.856Z" fill="#164454"/>
<path d="M53.6175 38.3321C53.6175 38.3321 53.4494 38.4672 53.5536 37.9002C53.6579 37.3333 54.1404 36.6914 54.2749 36.7031C54.2749 36.7031 54.0008 36.5747 54.1505 36.5246C54.2544 36.4982 54.3646 36.5126 54.4581 36.5647C54.4581 36.5647 54.7625 36.2829 54.8263 36.4063C54.8902 36.5296 54.7238 36.6163 54.7238 36.6163C54.86 36.5565 55.0113 36.5386 55.1579 36.5651C55.3045 36.5915 55.4397 36.6611 55.5459 36.7647C55.7884 36.9948 56.0813 37.166 56.4017 37.265C56.4488 37.2571 56.497 37.2593 56.5431 37.2713C56.5892 37.2834 56.6323 37.305 56.6693 37.3348C56.7064 37.3647 56.7366 37.4019 56.758 37.4442C56.7794 37.4865 56.7915 37.5328 56.7934 37.5801C56.8271 37.9553 56.4875 37.7985 56.4875 37.7985C56.4875 37.7985 56.9918 38.0987 56.6472 38.3488C56.3025 38.5989 56.1697 38.5055 55.9007 38.4255C55.6317 38.3455 55.5644 38.1887 55.4249 38.1637C55.2857 38.1504 55.1455 38.1504 55.0062 38.1637C55.0062 38.1637 54.8297 38.6222 54.7238 38.5989C54.6179 38.5756 54.5187 38.5522 54.5809 38.4055C54.6431 38.2587 54.7809 38.0537 54.7238 37.9553C54.6666 37.8569 54.2329 37.8686 54.1992 38.2454C54.1656 38.6222 53.8226 38.794 53.7251 38.7206C53.6276 38.6473 53.6175 38.3321 53.6175 38.3321Z" fill="#164454"/>
<defs>
<linearGradient id="paint0_linear_1_1613" x1="60.2046" y1="15.6619" x2="64.8572" y2="16.4563" gradientUnits="userSpaceOnUse">
<stop offset="0.19" stop-color="#47A2E9"/>
<stop offset="0.66" stop-color="#8ABCF7"/>
</linearGradient>
<linearGradient id="paint1_linear_1_1613" x1="61.9026" y1="26.9706" x2="61.9036" y2="18.3016" gradientUnits="userSpaceOnUse">
<stop offset="0.24" stop-color="#49687E"/>
<stop offset="1" stop-color="#DFF1FD"/>
</linearGradient>
<linearGradient id="paint2_linear_1_1613" x1="60.3392" y1="23.0845" x2="60.3645" y2="15.8948" gradientUnits="userSpaceOnUse">
<stop offset="0.24" stop-color="#49687E"/>
<stop offset="1" stop-color="#DFF1FD"/>
</linearGradient>
<linearGradient id="paint3_linear_1_1613" x1="54.9697" y1="29.3819" x2="63.6771" y2="29.3819" gradientUnits="userSpaceOnUse">
<stop offset="0.19" stop-color="#47A2E9"/>
<stop offset="0.66" stop-color="#8ABCF7"/>
</linearGradient>
<linearGradient id="paint4_linear_1_1613" x1="61.6147" y1="45.7501" x2="61.6147" y2="30.3516" gradientUnits="userSpaceOnUse">
<stop offset="0.24" stop-color="#49687E"/>
<stop offset="1" stop-color="#DFF1FD"/>
</linearGradient>
<linearGradient id="paint5_linear_1_1613" x1="66.2445" y1="44.707" x2="66.2447" y2="29.9592" gradientUnits="userSpaceOnUse">
<stop offset="0.24" stop-color="#49687E"/>
<stop offset="1" stop-color="#DFF1FD"/>
</linearGradient>
<linearGradient id="paint6_linear_1_1613" x1="23.0536" y1="42.1494" x2="23.1031" y2="27.2119" gradientUnits="userSpaceOnUse">
<stop offset="0.24" stop-color="#49687E"/>
<stop offset="1" stop-color="#DFF1FD"/>
</linearGradient>
<linearGradient id="paint7_linear_1_1613" x1="11.614" y1="33.6146" x2="11.6443" y2="24.4153" gradientUnits="userSpaceOnUse">
<stop offset="0.24" stop-color="#49687E"/>
<stop offset="1" stop-color="#DFF1FD"/>
</linearGradient>
<linearGradient id="paint8_linear_1_1613" x1="12.6467" y1="30.6" x2="12.6486" y2="17.3601" gradientUnits="userSpaceOnUse">
<stop offset="0.24" stop-color="#49687E"/>
<stop offset="1" stop-color="#DFF1FD"/>
</linearGradient>
<linearGradient id="paint9_linear_1_1613" x1="11.9711" y1="28.2166" x2="23.0121" y2="28.2166" gradientUnits="userSpaceOnUse">
<stop offset="0.19" stop-color="#47A2E9"/>
<stop offset="0.66" stop-color="#8ABCF7"/>
</linearGradient>
<linearGradient id="paint10_linear_1_1613" x1="20.4149" y1="44.5866" x2="20.4126" y2="36.5268" gradientUnits="userSpaceOnUse">
<stop offset="0.24" stop-color="#49687E"/>
<stop offset="1" stop-color="#DFF1FD"/>
</linearGradient>
</defs>
</svg>
