<svg xmlns="http://www.w3.org/2000/svg" width="350" height="80" fill="none" viewBox="0 0 350 80"><rect width="350" height="80" fill="url(#paint0_linear_1_998)" rx="10"/><mask id="mask0_1_998" style="mask-type:alpha" width="350" height="80" x="0" y="0" maskUnits="userSpaceOnUse"><rect width="350" height="80" fill="url(#paint1_linear_1_998)" rx="10"/></mask><g mask="url(#mask0_1_998)"><path fill="url(#paint2_linear_1_998)" d="M261 -3.99999C265.062 9.67909 275.3 11.1184 291.376 14.8663C313.089 19.931 322.455 41.0342 305.425 59.183C296.034 69.1943 294.782 77.5301 295.582 83L350 83L350 -4L261 -3.99999Z"/><path fill="url(#paint3_linear_1_998)" d="M30.1218 18.7301C11.7688 38.34 21.8629 61.1422 45.2629 66.6148C62.5881 70.6644 73.6228 72.2241 78 87L7.62939e-06 87L3.52052e-06 -7L40.7298 -7C41.574 -1.09422 40.2434 7.91725 30.1218 18.7301Z"/></g><defs><linearGradient id="paint0_linear_1_998" x1="25.962" x2="34.568" y1="-24.66" y2="118.265" gradientUnits="userSpaceOnUse"><stop stop-color="#81FFFF"/><stop offset="1" stop-color="#436AFF"/></linearGradient><linearGradient id="paint1_linear_1_998" x1="25.962" x2="34.568" y1="-24.66" y2="118.265" gradientUnits="userSpaceOnUse"><stop stop-color="#81FFFF"/><stop offset="1" stop-color="#436AFF"/></linearGradient><linearGradient id="paint2_linear_1_998" x1="262.831" x2="373.609" y1="55.258" y2="13.626" gradientUnits="userSpaceOnUse"><stop stop-color="#81FFFF"/><stop offset="1" stop-color="#436AFF"/></linearGradient><linearGradient id="paint3_linear_1_998" x1="109.172" x2="-31.765" y1="72.89" y2="20.063" gradientUnits="userSpaceOnUse"><stop stop-color="#81FFFF"/><stop offset=".14" stop-color="#7FFAFF"/><stop offset=".31" stop-color="#79EBFF"/><stop offset=".49" stop-color="#6FD3FF"/><stop offset=".69" stop-color="#60B0FF"/><stop offset=".89" stop-color="#4E85FF"/><stop offset="1" stop-color="#436AFF"/></linearGradient></defs></svg>