<svg width="83" height="70" viewBox="0 0 83 70" fill="none" xmlns="http://www.w3.org/2000/svg">
<path opacity="0.3" d="M47.1445 40.3504L58.8045 33.5781L69.0325 39.5172L57.3725 46.2894L47.1445 40.3504Z" fill="black"/>
<path d="M58.4139 33.8042L59.0504 34.1777L58.2263 28.2633L57.7285 26.2891L57.4226 25.9648L56.8555 25.9772L58.4139 33.8042Z" fill="#362C29"/>
<path d="M47.1445 40.3528L48.7356 30.5145L49.0294 29.8086L49.9106 29.9933L49.5312 30.8922L49.4986 30.8757L47.781 40.7222L47.1445 40.3528Z" fill="#362C29"/>
<path d="M49.0312 29.8039L49.6677 30.1774L50.5571 29.5864L49.5331 29.2539L49.0312 29.8039Z" fill="#685750"/>
<path d="M56.4199 25.2594L56.9748 25.8381L57.5582 25.596L56.9177 25.2266L56.4199 25.2594Z" fill="#211A1A"/>
<path d="M49.5332 29.2555L50.1696 29.629L53.8904 27.7615L57.0604 25.6272L56.4199 25.2578L49.5332 29.2555Z" fill="#574943"/>
<path d="M56.9751 26.115L50.2476 30.0224L49.9253 30.3754L49.7253 30.8556L48.171 40.4927L47.7793 40.7184L49.3745 30.8884L49.6642 30.1784L50.166 29.6284L57.0567 25.6266L57.5544 25.5938L57.8441 25.9672L59.4393 33.9503L59.0476 34.176L57.4892 26.3449L57.2933 26.0945L56.9751 26.115Z" fill="#0A0808"/>
<path d="M57.793 33.7617L59.4861 34.1311L59.1189 35.7606H58.4988L57.793 33.7617Z" fill="#211A1A"/>
<path d="M50.1289 29.9492L58.5006 33.8197V35.7487L50.1289 30.885V29.9492Z" fill="#362C29"/>
<path d="M59.1211 33.5391L64.8205 31.5156V32.4514L59.1211 35.7596V33.5391Z" fill="#0A0808"/>
<path d="M55.8284 26.293H56.4444L64.8202 31.1567V31.5138L59.1207 34.826H58.5006L50.1289 29.9582V29.6052L55.8284 26.293Z" fill="#362C29"/>
<path d="M57.793 33.2031L59.4861 33.5725L59.1189 34.8244H58.4988L57.793 33.2031Z" fill="#544540"/>
<path d="M50.1289 29.4023L58.5006 33.2687V34.8242L50.1289 29.9564V29.4023Z" fill="#685750"/>
<path d="M59.1211 32.9764L64.8205 30.957V31.5111L59.1211 34.8234V32.9764Z" fill="#403531"/>
<path d="M55.8284 25.7383H56.4444L64.8202 30.602V30.9591L59.1207 34.2713H58.5006L50.1289 29.4035V29.0464L55.8284 25.7383Z" fill="#836E69"/>
<path d="M67.9999 39.3708L68.6404 39.7402L67.8122 33.8258L67.3145 31.8557L67.0085 31.5273L66.4414 31.5438L67.9999 39.3708Z" fill="#0A0808"/>
<path d="M56.7344 45.9188L58.3296 36.0888L58.6152 35.3828L59.5005 35.5593L59.121 36.4623L59.0884 36.4459L57.3749 46.2923L56.7344 45.9188Z" fill="#362C29"/>
<path d="M58.6132 35.3822L59.2537 35.7475L60.1431 35.1606L59.1191 34.8281L58.6132 35.3822Z" fill="#685750"/>
<path d="M66.0039 30.8297L66.5588 31.4043L67.1422 31.1663L66.5057 30.7969L66.0039 30.8297Z" fill="#211A1A"/>
<path d="M59.1211 34.8219L59.7616 35.1913L63.4783 33.3238L66.6483 31.1977L66.0078 30.8242L59.1211 34.8219Z" fill="#574943"/>
<path d="M66.5667 31.6812L59.8433 35.5927L59.5169 35.9457L59.321 36.4218L57.7626 46.063L57.375 46.2887L58.9702 36.4587L59.2558 35.7446L59.7617 35.1946L66.6483 31.201L67.1461 31.1641L67.4398 31.5376L69.035 39.5165L68.6433 39.7422L67.0849 31.9193L66.889 31.6648L66.5667 31.6812Z" fill="#0A0808"/>
<path d="M56.8259 25.7641L56.1895 25.3947L56.7361 22.0742L57.6051 22.3164L56.8259 25.7641Z" fill="#362C29"/>
<path d="M57.3747 22.4423L57.6073 22.311L56.9667 21.9375L56.7383 22.0688L57.3747 22.4423Z" fill="#574943"/>
<path d="M56.8262 25.7602L57.0587 25.6247L57.6054 22.3125L57.3729 22.4438L56.8262 25.7602Z" fill="#0A0808"/>
<path d="M57.3747 22.4464L57.0932 22.6188L56.7383 22.0729V14.0078L57.6073 14.2459L57.3747 22.4464Z" fill="#362C29"/>
<path d="M57.3747 14.3837L57.6073 14.2483L56.9667 13.8789L56.7383 14.0102L57.3747 14.3837Z" fill="#574943"/>
<path d="M57.375 22.4467L57.5178 22.5205L57.6075 22.3153V14.2461L57.375 14.3815V22.4467Z" fill="#0A0808"/>
<path d="M64.4844 19.2478L65.6471 20.5407L66.5447 19.5926L66.2346 19.0508L64.4844 19.2478Z" fill="#0A0808"/>
<path d="M57.3848 14.4627L64.8997 19.8271L66.2379 19.0473L57.8621 14.1836L57.3848 14.4627Z" fill="#574943"/>
<path d="M64.9551 20.5131L66.0689 24.1701L66.5462 23.891V19.5938L64.9551 20.5131Z" fill="#211A1A"/>
<path d="M57.0742 18.9388L57.3843 19.4806L65.7601 24.3443L66.0701 24.1637V19.8664L65.7601 19.3246L57.3843 14.4609L57.0742 14.6415V18.9388Z" fill="#362C29"/>
<path d="M64.0764 19.48L65.2432 20.7729L66.0673 19.8699L65.7572 19.3281L64.0764 19.48Z" fill="#544540"/>
<path d="M56.9786 14.6949L64.4935 20.0593L65.7583 19.3246L57.3825 14.4609L56.9786 14.6949Z" fill="#836E69"/>
<path d="M64.5508 20.7453L65.6605 24.4064L66.0685 24.1725V19.8711L64.5508 20.7453Z" fill="#403531"/>
<path d="M56.6679 19.1812L56.978 19.7189L65.3497 24.5826L65.6597 24.4061V20.1047L65.3497 19.5629L56.978 14.6992L56.6679 14.8798V19.1812Z" fill="#685750"/>
<path d="M66.4099 31.3344L65.7734 30.965L66.3242 27.6445L67.1973 27.8867L66.4099 31.3344Z" fill="#362C29"/>
<path d="M66.9667 28.0166L67.1992 27.8852L66.5546 27.5117L66.3262 27.6431L66.9667 28.0166Z" fill="#574943"/>
<path d="M66.4099 31.3344L66.6465 31.2031L67.1973 27.8867L66.9648 28.0181L66.4099 31.3344Z" fill="#0A0808"/>
<path d="M66.9667 28.0209L66.6811 28.1973L66.3262 27.6474V19.5781L67.1992 19.8203L66.9667 28.0209Z" fill="#362C29"/>
<path d="M66.9667 19.9502L67.1992 19.8147L66.5546 19.4453L66.3262 19.5725L66.9667 19.9502Z" fill="#574943"/>
<path d="M66.9629 28.017L67.1016 28.0909L67.1954 27.8856V19.8164L66.9629 19.9519V28.017Z" fill="#0A0808"/>
<path d="M44.7694 16.9265L46.5808 14.4557L47.1969 5.90625L45.6058 6.87489L42.4766 15.0016L44.7694 16.9265Z" fill="#211A1A"/>
<path d="M49.0142 41.4219L47.7862 42.6573L46.0115 44.4879V44.6931L46.7907 45.6125H47.6475L49.9444 43.6177L51.5233 42.9692L51.972 42.3207V42.1155L49.0142 41.4219Z" fill="#0A0808"/>
<path d="M54.2973 44.4688L51.1559 46.2624L50.0625 47.3459V47.5511L50.805 48.0601L52.8082 47.8467L55.4764 45.1213V44.9161L54.2973 44.4688Z" fill="#0A0808"/>
<path d="M49.0142 41.2153L47.7862 42.4466L46.2481 43.723L46.0115 44.4865L46.7907 45.4058H47.6475L49.9444 43.407L51.5233 42.7626L51.972 42.1141L51.7762 40.8828L49.0142 41.2153Z" fill="#6B4414"/>
<path d="M52.5185 43.5832L51.621 45.1142L50.1604 46.444L50.0625 47.3469L50.805 47.8518L52.8082 47.6425L55.4764 44.9171V43.5586L52.5185 43.5832Z" fill="#6B4414"/>
<path d="M51.9303 28.7338L52.224 32.5016L52.0771 34.443V41.1414L50.4371 41.7652L48.5481 41.2973L48.2421 35.3213L47.5771 32.5878L46.4062 22.4541L46.6959 19.9258L51.8324 22.922L51.9303 28.7338Z" fill="#0A0808"/>
<path d="M48.2402 22.6204L50.9492 25.3867L51.6632 35.1716L52.1527 37.1704L52.5199 43.5815L52.9483 44.4844L55.2248 44.0247L55.8123 42.9412L55.8857 36.1402L55.4655 34.0264L56.3549 26.1255L53.2706 20.6831L48.2402 19.7227V22.6204Z" fill="#211A1A"/>
<path d="M51.4583 21.513L49.2674 21.0739L47.5743 19.9985V18.7344L51.2665 20.2366L51.4583 21.513Z" fill="#693121"/>
<path d="M48.2236 8.42677L47.0078 12.2151L47.3954 18.6877L49.37 20.1448L52.2218 20.7851L53.0255 9.41182L50.7857 7.27344H49.2517L48.2236 8.42677Z" fill="white"/>
<path d="M48.7898 8.18682L48.5491 8.49465L47.5251 12.2994L47.6801 18.7843L47.6148 25.22L45.6892 23.2869L45.8769 17.4504L45.6035 11.7494L46.6561 7.86257L48.2391 5.77344L48.7898 8.18682Z" fill="#362C29"/>
<path d="M52.9536 7.27344L55.0914 8.98497L55.3933 9.58831L56.0787 11.501L56.0991 14.1934L55.9808 18.3881L56.7192 21.3063V25.616L55.7768 26.9499L52.6476 27.6353L50.3548 26.8185L50.4568 20.6866L49.8203 15.0184L49.9264 10.6555L50.3221 9.75249L51.9867 8.58274L52.9536 7.27344Z" fill="#362C29"/>
<path d="M52.2137 5.90625L52.3973 6.59579L52.3483 7.30174L50.6838 9.34162L50.084 9.2267L49.517 9.83005H49.0519L48.7051 9.4114L48.5215 8.16777L50.3043 6.07043L52.2137 5.90625Z" fill="#C7A495"/>
<path d="M48.0264 8.43073L47.5898 9.0546L48.312 8.68521L48.3528 8.32812L48.0264 8.43073Z" fill="#D1D1D1"/>
<path d="M48.6842 7.53516L48.0273 8.42581L48.6842 9.34109L48.8107 9.731L48.6842 7.53516Z" fill="white"/>
<path d="M49.0332 10.3333L48.5192 14.2981L49.0577 24.871L48.2417 25.8684L47.4258 23.9188L47.8134 13.8713L48.7436 10.1609L48.9557 9.90234L49.0332 10.3333Z" fill="#C84030"/>
<path d="M49.5178 9.83217L48.6855 9.34375L48.7427 10.1646L49.0323 10.337L49.5178 9.83217Z" fill="#FA5C52"/>
<path d="M49.8522 8.98828L49.5177 9.83379L50.5213 9.34126L50.4805 9.11552L49.8522 8.98828Z" fill="#D1D1D1"/>
<path d="M52.3954 6.59375L51.4979 8.02208L49.8497 8.9825L50.3678 10.0743L52.167 8.73624L52.9625 7.24635L52.3954 6.59375Z" fill="white"/>
<path d="M46.9493 2.11654L47.0757 3.04823L46.8105 4.3288L47.0757 4.80081L46.9411 5.11274L47.4959 8.38394L48.622 8.99139L51.1555 7.24702L51.3309 6.54107L51.7389 6.28659L52.2122 5.90489L52.8282 4.91573L52.204 3.40531L48.7199 1.64453L46.9493 2.11654Z" fill="#F0C6B4"/>
<path d="M47.0757 2.60629L47.9202 3.87865L49.8214 4.84728L50.7271 5.0525V5.90621L51.1351 5.66816L51.6328 4.78982L52.2448 4.64206L52.5182 5.17153L52.2122 5.90621L52.918 5.26183L53.3545 3.26299L52.5182 1.14512L50.4619 0L49.0014 0.262681L48.4792 0.295516L46.8105 2.00705L47.0757 3.04956V2.60629Z" fill="#AC8854"/>
<path d="M47.3184 2.09522L48.6851 0.527344H49.0523L47.3184 2.09522Z" fill="#A16739"/>
<path opacity="0.3" d="M24.3708 30H23.1795L8.7616 38.373V39.0666L30.7924 51.8477H27.8917L23.4814 54.4088V58.0289L27.8917 60.59H34.1256L38.5317 58.0289V56.3379L41.7874 58.2259H42.9828L57.4007 49.8529V49.1593L24.3708 30Z" fill="black"/>
<path d="M9.52734 39.4957L10.2943 39.9389L13.0645 30.0145L10.7472 23.7759L9.52734 23.6445V39.4957Z" fill="white"/>
<path d="M10.291 39.9373L25.9002 30.8666V15.0195L10.291 24.0861V39.9373Z" fill="#D1D1D1"/>
<path d="M21.5583 37.3501L28.5102 33.3073V25.8086L21.5583 29.8432L20.5098 32.3264L21.5583 37.3501Z" fill="#D1D1D1"/>
<path d="M11.0859 23.7656L21.5587 29.8442V37.3511L21.1181 37.6015L11.5306 32.0401L11.0859 31.2643V23.7656Z" fill="white"/>
<path d="M22.6369 36.5623L45.5204 49.8729V43.3181L22.6369 30.0117V36.5623Z" fill="white"/>
<path d="M40.252 57.324L41.019 57.7673L43.7891 47.8429L41.4718 41.6042L40.252 41.4688V57.324Z" fill="white"/>
<path d="M41.0195 57.7617L56.6288 48.691L56.6328 32.8398L41.0195 41.9064V57.7617Z" fill="#D1D1D1"/>
<path d="M23.1795 13.625H24.3708L57.4007 32.7884V33.482L42.9828 41.855H41.7874L8.7616 22.6957V22.0021L23.1795 13.625Z" fill="#D7B37F"/>
<path d="M42.9804 41.8594H41.785V42.3601H42.9804V41.8594Z" fill="#A87C49"/>
<path d="M8.7616 23.196L41.7874 42.3594V41.8546L8.7616 22.6953V23.196Z" fill="#B88F5A"/>
<path d="M42.9805 42.3622L57.3984 33.9851V33.4844L42.9805 41.8573V42.3622Z" fill="#A16739"/>
<path opacity="0.3" d="M14.1953 21.5L13.5996 21.8489V22.3373L14.1953 22.6862H15.0398L15.6354 22.3373V21.8489L15.0398 21.5H14.1953Z" fill="black"/>
<path d="M14.9453 19.8239L15.0391 19.8773L15.2309 19.9265L15.4226 19.7213L15.3247 19.668L14.9453 19.8239Z" fill="#FA5C52"/>
<path d="M14.7969 20.6902L14.8948 20.7436L15.0539 20.3824L15.0376 19.8776L14.9437 19.8242L14.7969 20.6902Z" fill="#BF261B"/>
<path d="M15.2618 21.6237L15.3556 21.6771L15.1924 20.9177L15.0333 20.733L14.9395 20.6797L15.2618 21.6237Z" fill="#991F16"/>
<path d="M15.4208 19.7188L15.0373 19.8747L14.8945 20.7407L15.0332 20.7325L15.3555 21.6765L15.5799 20.1456L15.4208 19.7188Z" fill="#C84030"/>
<path d="M14.2451 19.8274L14.1512 19.8849L13.9595 19.9383L13.7637 19.7371L13.8616 19.6797L14.2451 19.8274Z" fill="#FA5C52"/>
<path d="M14.4097 20.6941L14.3159 20.7516L14.1445 20.3945L14.1527 19.8856L14.2465 19.8281L14.4097 20.6941Z" fill="#BF261B"/>
<path d="M13.9649 21.6438L13.8711 21.6972L14.018 20.9338L14.173 20.745L14.2668 20.6875L13.9649 21.6438Z" fill="#991F16"/>
<path d="M13.7661 19.7383L14.1536 19.886L14.3168 20.7521L14.174 20.7439L13.8721 21.6961L13.6151 20.1692L13.7661 19.7383Z" fill="#C84030"/>
<path d="M14.8445 20.2872L15.1913 20.082V19.7947L14.8404 19.5977H14.3468L14 19.8029V20.0902L14.3509 20.2872H14.8445Z" fill="#B5A794"/>
<path d="M14.3509 20.2869L14 20.0898L14.2489 21.12L14.461 21.2391L14.4488 20.4305L14.3509 20.2869Z" fill="#A39685"/>
<path d="M14.8433 20.2852L14.3496 20.2893L14.4598 21.2415L14.7535 21.2374L14.8841 20.3139L14.8433 20.2852Z" fill="#736656"/>
<path d="M15.1846 20.0742L14.8378 20.2835L14.748 21.2358L14.9561 21.1126L15.1846 20.0742Z" fill="#5E4439"/>
<path d="M14.7932 17.302L15.1318 17.1009V16.8218L14.7932 16.6289H14.2955L13.9568 16.83V17.1091L14.2995 17.3061L14.7932 17.302Z" fill="#B5A794"/>
<path d="M15.1253 16.8203L15.3823 17.8792L15.3864 18.2733L15.162 18.3102L14.8887 16.9681L15.1253 16.8203Z" fill="#A39C95"/>
<path d="M13.9687 16.8359L13.7402 17.899L13.7484 18.293L13.9728 18.3258L14.2094 16.9755L13.9687 16.8359Z" fill="#F4EFE9"/>
<path d="M14.6662 17.1717L14.6458 17.6191L14.7805 18.1034L14.6091 18.5549L14.6622 19.2116L14.6785 19.4538L14.8009 19.7288L14.8131 20.0612L14.8417 20.2788L15.1885 20.0694L15.3965 18.9243L15.3884 18.2676L15.1313 17.0938L14.7927 17.184L14.6662 17.1717Z" fill="#D1D1D1"/>
<path d="M14.9107 18.5533L14.9189 19.21L14.8414 20.2813L14.3477 20.2854L14.2009 19.9078L14.1682 19.5055L14.1315 19.3003L14.1682 18.9309L14.1233 18.5L14.1315 18.0362L14.0703 17.6832L14.1927 17.125L14.311 17.1455L14.7924 17.2974L14.9107 18.5533Z" fill="#E6E1DD"/>
<path d="M14.2394 19.2218L14.3496 20.2889L13.9987 20.0919L13.7539 18.9468L14.0313 18.8359L14.2394 19.2218Z" fill="#F4EFE9"/>
<path d="M13.7541 18.9479L13.75 18.2912L13.9744 17.1133L14.3008 17.1502L14.3171 17.3062L14.2314 18.5662L14.2396 19.2229L13.7541 18.9479Z" fill="white"/>
<path d="M14.2396 19.2247L13.7541 18.9497L13.75 18.293L14.2314 18.568L14.366 18.7896L14.2396 19.2247Z" fill="#4290B8"/>
<path d="M14.2388 19.2235L14.9201 19.2153L15.0588 18.8008L14.9119 18.5586L14.2306 18.5668L14.2388 19.2235Z" fill="#29617D"/>
<path d="M14.9201 19.2133L15.3975 18.9301L15.3893 18.2734L14.912 18.5566L14.9201 19.2133Z" fill="#17435C"/>
<path d="M14.5393 15.7578L14.2578 16.7018L14.3149 17.3011L14.7922 17.297L14.7881 16.6238L14.5393 15.7578Z" fill="#C84030"/>
<path d="M14.5392 15.7578L14.7963 16.6526L15.1308 17.0958L15.1267 16.8167L14.5392 15.7578Z" fill="#701C1D"/>
<path d="M14.5392 15.7578L14.7922 17.297L15.1308 17.0958L14.5392 15.7578Z" fill="#991F16"/>
<path d="M14.5419 15.7578L14.2114 16.7018L13.9748 17.1082L13.9707 16.8291L14.5419 15.7578Z" fill="#C84030"/>
<path d="M14.5417 15.7578L14.3173 17.3011L13.9746 17.1082L14.5417 15.7578Z" fill="#FA5C52"/>
<path d="M13.8262 18.5078L13.9894 18.5858L14.0751 18.7294L14.1281 18.8403V19.0085L14.0261 19.1029L13.814 18.9921L13.6875 18.7541L13.6916 18.5735L13.8262 18.5078Z" fill="#17435C"/>
<path d="M13.9651 19.0647L13.8223 18.9785L13.8998 18.9375L14.063 19.0319L13.9936 19.0688L13.9651 19.0647Z" fill="#FBE979"/>
<path d="M13.7737 18.8987L13.7207 18.7756L13.7941 18.7305L13.9002 18.9316L13.8349 18.9685L13.7737 18.8987Z" fill="#FFC654"/>
<path d="M13.7221 18.7791L13.6934 18.5575L13.7919 18.5L13.796 18.7339L13.7221 18.7791Z" fill="#CC934C"/>
<path opacity="0.5" d="M14.0177 19.0507L14.0462 19.0343L13.8871 18.944L13.7729 18.7511L13.7688 18.5664L13.7402 18.5828L13.7443 18.7675L13.8585 18.9604L14.0177 19.0507Z" fill="#5C74AD"/>
<path opacity="0.5" d="M14.1278 19.0172L14.0177 19.05L13.8585 18.9597L13.7443 18.7668L13.7402 18.5821L13.8259 18.5L14.0095 18.6067L14.1237 18.7996L14.1278 19.0172Z" fill="#685750"/>
<path d="M14.0089 18.572L13.8049 18.457L13.6621 18.5432V18.7731L13.8049 19.0193L14.0089 19.1343L14.1517 19.0522V18.8182L14.0089 18.572ZM14.1028 18.9824L13.9926 19.0481L13.8335 18.9578L13.7192 18.7649V18.5966L13.8294 18.5309L13.9885 18.6212L14.1028 18.8141V18.9824Z" fill="#E3BD5E"/>
<path d="M14.0106 18.5661L13.8066 18.4553L13.8801 18.4102L14.0841 18.5251L14.0351 18.5702L14.0106 18.5661Z" fill="#FBE979"/>
<path d="M14.1526 18.8227L14.0098 18.5723L14.0832 18.5312L14.226 18.7734L14.1811 18.835L14.1526 18.8227Z" fill="#FFC654"/>
<path d="M14.1584 19.0525L14.1543 18.8227L14.2282 18.7734L14.2323 19.0115L14.1584 19.0525Z" fill="#CC934C"/>
<path d="M15.3731 22.4395L15.2793 22.497L15.3242 21.1877L15.5975 21.1836L15.3731 22.4395Z" fill="#991F16"/>
<path d="M15.5984 21.1856L15.5046 21.243L15.2598 20.6356L15.4393 20.5781L15.5984 21.1856Z" fill="#BF261B"/>
<path d="M15.4404 20.5725L15.3466 20.6299L15.1018 20.5971L14.959 20.3385L15.0528 20.2852L15.4404 20.5725Z" fill="#FA5C52"/>
<path d="M15.3418 20.6313L14.9542 20.3398L14.8848 21.1115L14.9501 21.1853L15.2765 22.4946L15.5009 21.2387L15.3418 20.6313Z" fill="#C84030"/>
<path d="M13.872 22.4511L13.9658 22.5044L13.8924 21.1992H13.619L13.872 22.4511Z" fill="#991F16"/>
<path d="M13.619 21.2053L13.7129 21.2587L13.9454 20.6471L13.77 20.5938L13.619 21.2053Z" fill="#BF261B"/>
<path d="M13.7676 20.5885L13.8614 20.6418L14.1062 20.6049L14.2408 20.3463L14.147 20.293L13.7676 20.5885Z" fill="#FA5C52"/>
<path d="M13.8638 20.6432L14.2433 20.3477L14.3289 21.1193L14.2637 21.1932L13.9658 22.5066L13.7129 21.2547L13.8638 20.6432Z" fill="#C84030"/>
<path opacity="0.3" d="M41.6049 29.5586L30.6426 23.1968L34.4531 20.9805L45.4114 27.3505L41.6049 29.5586Z" fill="black"/>
<path d="M41.597 29.5175L41.2461 28.8485L45.3667 27.0508V27.3299L41.597 29.5175Z" fill="#0A0808"/>
<path d="M41.5971 29.5172L30.7326 23.2088V22.9297L31.5567 23.1267L40.9035 28.565L41.5971 29.2381V29.5172Z" fill="#362C29"/>
<path d="M41.597 29.2387L30.7326 22.9302L34.5064 20.7344L45.3668 27.051L41.597 29.2387Z" fill="#574943"/>
<path d="M40.3779 28.3376L39.9414 28.0872L40.125 27.9805L40.5575 28.2308L40.3779 28.3376Z" fill="#F4EFE9"/>
<path d="M40.8584 28.6188L40.4219 28.3684L40.6095 28.2617L41.042 28.5121L40.8584 28.6188Z" fill="#F4EFE9"/>
<path d="M41.3407 28.9003L40.9082 28.6458L41.0918 28.5391L41.5243 28.7894L41.3407 28.9003Z" fill="#F4EFE9"/>
<path d="M40.3527 28.2431L40.0957 28.0953L40.1487 28.0625L40.4058 28.2144L40.3527 28.2431Z" fill="#DDE65C"/>
<path d="M40.8332 28.5281L40.5762 28.3803L40.6292 28.3516L40.8862 28.4993L40.8332 28.5281Z" fill="#DDE65C"/>
<path d="M41.3154 28.8095L41.0625 28.6576L41.1155 28.6289L41.3685 28.7767L41.3154 28.8095Z" fill="#DDE65C"/>
<path d="M43.2499 26.1659L43.0418 26.0469L42.8338 26.1659H42.6094V26.2972L43.0418 26.5476L43.4743 26.2972V26.1659H43.2499Z" fill="#403531"/>
<path d="M43.0418 25.9141L42.6094 26.1644L43.0418 26.4148L43.4743 26.1644L43.0418 25.9141Z" fill="#836E69"/>
<path d="M42.7909 26.4315L42.5828 26.3125L42.3748 26.4315H42.1504V26.5629L42.5828 26.8132L43.0153 26.5629V26.4315H42.7909Z" fill="#403531"/>
<path d="M42.5828 26.1836L42.1504 26.434L42.5828 26.6884L43.0153 26.434L42.5828 26.1836Z" fill="#836E69"/>
<path d="M42.3085 26.7091L42.1004 26.5859L41.8924 26.7091H41.668V26.8404L42.1004 27.0908L42.5329 26.8404V26.7091H42.3085Z" fill="#403531"/>
<path d="M42.1004 26.4609L41.668 26.7113L42.1004 26.9617L42.5329 26.7113L42.1004 26.4609Z" fill="#836E69"/>
<path d="M41.8378 26.9862L41.6338 26.8672L41.4257 26.9862H41.1973V27.1176L41.6338 27.372L42.0663 27.1176V26.9862H41.8378Z" fill="#403531"/>
<path d="M41.6338 26.7383L41.1973 26.9886L41.6338 27.2431L42.0663 26.9886L41.6338 26.7383Z" fill="#836E69"/>
<path d="M41.3651 27.2597L41.1571 27.1406L40.9531 27.2597H40.7246V27.3951L41.1571 27.6414L41.5936 27.3951V27.2597H41.3651Z" fill="#403531"/>
<path d="M41.1571 27.0078L40.7246 27.2582L41.1571 27.5085L41.5936 27.2582L41.1571 27.0078Z" fill="#836E69"/>
<path d="M43.7321 26.4432L43.5241 26.3242L43.3201 26.4432H43.0916V26.5746L43.5241 26.8291L43.9606 26.5746V26.4432H43.7321Z" fill="#403531"/>
<path d="M43.5241 26.1953L43.0916 26.4457L43.5241 26.696L43.9606 26.4457L43.5241 26.1953Z" fill="#836E69"/>
<path d="M43.2655 26.7167L43.0615 26.5977L42.8575 26.7167H42.625V26.848L43.0615 27.0984L43.494 26.848V26.7167H43.2655Z" fill="#403531"/>
<path d="M43.0615 26.4609L42.625 26.7154L43.0615 26.9658L43.494 26.7154L43.0615 26.4609Z" fill="#836E69"/>
<path d="M42.7948 26.986L42.5908 26.8711L42.3828 26.986H42.1543V27.1215L42.5908 27.3718L43.0233 27.1215V26.986H42.7948Z" fill="#403531"/>
<path d="M42.5908 26.7383L42.1543 26.9845L42.5908 27.2431L43.0233 26.9845L42.5908 26.7383Z" fill="#836E69"/>
<path d="M42.3142 27.2716L42.1102 27.1484L41.9021 27.2716H41.6777V27.4029L42.1102 27.6533L42.5426 27.4029V27.2716H42.3142Z" fill="#403531"/>
<path d="M42.1102 27.0156L41.6777 27.2701L42.1102 27.5205L42.5426 27.2701L42.1102 27.0156Z" fill="#836E69"/>
<path d="M41.8515 27.537L41.6434 27.418L41.4394 27.537H41.2109V27.6724L41.6434 27.9228L42.0799 27.6724V27.537H41.8515Z" fill="#403531"/>
<path d="M41.6434 27.2852L41.2109 27.5355L41.6434 27.7859L42.0799 27.5355L41.6434 27.2852Z" fill="#836E69"/>
<path d="M41.2689 27.7305L40.7059 27.4062L40.4407 27.5581L40.2734 27.5253V27.6566L41.1914 28.1861L41.6238 27.9357V27.8044L41.2689 27.7305Z" fill="#403531"/>
<path d="M40.7059 27.2695L40.2734 27.524L41.1914 28.0535L41.6238 27.8031L40.7059 27.2695Z" fill="#836E69"/>
<path d="M44.2089 26.7245L44.0008 26.6055L43.7968 26.7245H43.5684V26.8558L44.0008 27.1062L44.4333 26.8558V26.7245H44.2089Z" fill="#403531"/>
<path d="M44.0008 26.4727L43.5684 26.7271L44.0008 26.9775L44.4333 26.7271L44.0008 26.4727Z" fill="#836E69"/>
<path d="M43.7538 26.994L43.5498 26.875L43.3418 26.994H43.1133V27.1254L43.5498 27.3757L43.9823 27.1254V26.994H43.7538Z" fill="#403531"/>
<path d="M43.5498 26.7461L43.1133 26.9965L43.5498 27.2509L43.9823 26.9965L43.5498 26.7461Z" fill="#836E69"/>
<path d="M43.2751 27.2714L43.0711 27.1523L42.8631 27.2714H42.6387V27.4068L43.0711 27.6572L43.5036 27.4068V27.2714H43.2751Z" fill="#403531"/>
<path d="M43.0711 27.0195L42.6387 27.2699L43.0711 27.5244L43.5036 27.2699L43.0711 27.0195Z" fill="#836E69"/>
<path d="M42.8026 27.5448L42.5946 27.4258L42.3865 27.5448H42.1621V27.6803L42.5946 27.9306L43.027 27.6803V27.5448H42.8026Z" fill="#403531"/>
<path d="M42.5946 27.293L42.1621 27.5433L42.5946 27.7978L43.027 27.5433L42.5946 27.293Z" fill="#836E69"/>
<path d="M42.3319 27.8143L42.1279 27.6953L41.9199 27.8143H41.6914V27.9498L42.1279 28.2002L42.5604 27.9498V27.8143H42.3319Z" fill="#403531"/>
<path d="M42.1279 27.5664L41.6914 27.8127L42.1279 28.0671L42.5604 27.8127L42.1279 27.5664Z" fill="#836E69"/>
<path d="M41.8767 28.0839L41.6727 27.9648L41.4646 28.0839H41.2402V28.2193L41.6727 28.4697L42.1051 28.2193V28.0839H41.8767Z" fill="#403531"/>
<path d="M41.6727 27.832L41.2402 28.0824L41.6727 28.3369L42.1051 28.0824L41.6727 27.832Z" fill="#836E69"/>
<path d="M42.8733 28.1323L42.6081 27.9805L42.0614 28.2965L41.7188 28.3663V28.4935L42.1512 28.748L43.0406 28.2308V28.0995L42.8733 28.1323Z" fill="#403531"/>
<path d="M44.697 27.0057L44.489 26.8867L44.2809 27.0057H44.0565V27.1371L44.489 27.3916L44.9214 27.1371V27.0057H44.697Z" fill="#403531"/>
<path d="M44.489 26.7578L44.0565 27.0082L44.489 27.2585L44.9214 27.0082L44.489 26.7578Z" fill="#836E69"/>
<path d="M44.2321 27.2753L44.0282 27.1562L43.8201 27.2753H43.5957V27.4066L44.0282 27.6611L44.4606 27.4066V27.2753H44.2321Z" fill="#403531"/>
<path d="M44.0282 27.0234L43.5957 27.2738L44.0282 27.5283L44.4606 27.2738L44.0282 27.0234Z" fill="#836E69"/>
<path d="M43.7597 27.5528L43.5516 27.4297L43.3476 27.5528H43.1191V27.6842L43.5516 27.9345L43.9841 27.6842V27.5528H43.7597Z" fill="#403531"/>
<path d="M43.5516 27.2969L43.1191 27.5513L43.5516 27.8017L43.9841 27.5513L43.5516 27.2969Z" fill="#836E69"/>
<path d="M43.2831 27.8261L43.075 27.707L42.871 27.8261H42.6426V27.9574L43.075 28.2078L43.5075 27.9574V27.8261H43.2831Z" fill="#403531"/>
<path d="M43.075 27.5781L42.6426 27.8285L43.075 28.0789L43.5075 27.8285L43.075 27.5781Z" fill="#836E69"/>
<path d="M41.7188 28.3687L42.1512 28.6191L43.0406 28.1019L42.6081 27.8516L41.7188 28.3687Z" fill="#836E69"/>
<path d="M40.2519 26.0448L40.0438 25.9258L39.8357 26.0448H39.6113V26.1803L40.0438 26.4265L40.4762 26.1803V26.0448H40.2519Z" fill="#403531"/>
<path d="M40.0438 25.8008L39.6113 26.0511L40.0438 26.3056L40.4762 26.0511L40.0438 25.8008Z" fill="#836E69"/>
<path d="M39.7872 26.3182L39.5832 26.1992L39.3711 26.3182H39.1467V26.4496L39.5832 26.7L40.0157 26.4496V26.3182H39.7872Z" fill="#403531"/>
<path d="M39.5832 26.0664L39.1467 26.3168L39.5832 26.5671L40.0157 26.3168L39.5832 26.0664Z" fill="#836E69"/>
<path d="M39.3103 26.5917L39.1063 26.4727L38.8982 26.5917H38.6738V26.723L39.1063 26.9775L39.5387 26.723V26.5917H39.3103Z" fill="#403531"/>
<path d="M39.1063 26.3359L38.6738 26.5904L39.1063 26.8408L39.5387 26.5904L39.1063 26.3359Z" fill="#836E69"/>
<path d="M40.7263 26.3222L40.5223 26.2031L40.3142 26.3222H40.0898V26.4576L40.5223 26.708L40.9548 26.4576V26.3222H40.7263Z" fill="#403531"/>
<path d="M40.5223 26.082L40.0898 26.3283L40.5223 26.5828L40.9548 26.3283L40.5223 26.082Z" fill="#836E69"/>
<path d="M40.2654 26.5956L40.0614 26.4766L39.8533 26.5956H39.6289V26.7269L40.0614 26.9814L40.4938 26.7269V26.5956H40.2654Z" fill="#403531"/>
<path d="M40.0614 26.3477L39.6289 26.598L40.0614 26.8484L40.4938 26.598L40.0614 26.3477Z" fill="#836E69"/>
<path d="M39.7909 26.8768L39.5869 26.7578L39.3788 26.8768H39.1544V27.0082L39.5869 27.2585L40.0234 27.0082V26.8768H39.7909Z" fill="#403531"/>
<path d="M39.5869 26.6211L39.1544 26.8756L39.5869 27.1259L40.0234 26.8756L39.5869 26.6211Z" fill="#836E69"/>
<path d="M41.2147 26.6112L41.0067 26.4922L40.7986 26.6112H40.5742V26.7426L41.0067 26.9929L41.4391 26.7426V26.6112H41.2147Z" fill="#403531"/>
<path d="M41.0067 26.3594L40.5742 26.6097L41.0067 26.8601L41.4391 26.6097L41.0067 26.3594Z" fill="#836E69"/>
<path d="M40.754 26.8768L40.5459 26.7578L40.3379 26.8768H40.1135V27.0123L40.5459 27.2627L40.9784 27.0123V26.8768H40.754Z" fill="#403531"/>
<path d="M40.5459 26.625L40.1135 26.8754L40.5459 27.1298L40.9784 26.8754L40.5459 26.625Z" fill="#836E69"/>
<path d="M40.2753 27.1544L40.0672 27.0312L39.8592 27.1544H39.6348V27.2857L40.0672 27.5361L40.5038 27.2857V27.1544H40.2753Z" fill="#403531"/>
<path d="M40.0672 26.8984L39.6348 27.1529L40.0672 27.4033L40.5038 27.1529L40.0672 26.8984Z" fill="#836E69"/>
<path d="M41.6464 25.2362L41.4383 25.1172L41.2343 25.2362H41.0059V25.3717L41.4383 25.622L41.8749 25.3717V25.2362H41.6464Z" fill="#403531"/>
<path d="M41.4383 24.9844L41.0059 25.2347L41.4383 25.4892L41.8749 25.2347L41.4383 24.9844Z" fill="#836E69"/>
<path d="M42.1288 25.5134L41.9207 25.3984L41.7167 25.5134H41.4883V25.6488L41.9207 25.8992L42.3573 25.6488V25.5134H42.1288Z" fill="#403531"/>
<path d="M41.9207 25.2656L41.4883 25.5119L41.9207 25.7664L42.3573 25.5119L41.9207 25.2656Z" fill="#836E69"/>
<path d="M42.6091 25.7948L42.4051 25.6758L42.197 25.7948H41.9727V25.9261L42.4051 26.1806L42.8376 25.9261V25.7948H42.6091Z" fill="#403531"/>
<path d="M42.4051 25.543L41.9727 25.7933L42.4051 26.0437L42.8376 25.7933L42.4051 25.543Z" fill="#836E69"/>
<path d="M41.6464 25.7948L41.4383 25.6758L41.2343 25.7948H41.0059V25.9261L41.4383 26.1806L41.8749 25.9261V25.7948H41.6464Z" fill="#403531"/>
<path d="M41.4383 25.543L41.0059 25.7933L41.4383 26.0478L41.8749 25.7933L41.4383 25.543Z" fill="#836E69"/>
<path d="M31.7964 23.1452V23.0098L30.9355 22.7266V22.8579L31.6128 23.2519L31.7964 23.1452Z" fill="#403531"/>
<path d="M31.7964 23.0071L31.1232 22.6172L30.9355 22.7239L31.6128 23.1179L31.7964 23.0071Z" fill="#836E69"/>
<path d="M32.0965 23.5343L32.2801 23.4275V23.2962L31.6641 23.1484V23.2798L32.0965 23.5343Z" fill="#403531"/>
<path d="M32.0965 23.4002L32.2801 23.2935L31.8477 23.0391L31.6641 23.1458L32.0965 23.4002Z" fill="#836E69"/>
<path d="M32.5789 23.8114L32.7625 23.7047V23.5733L32.1465 23.4297V23.561L32.5789 23.8114Z" fill="#403531"/>
<path d="M32.5789 23.6774L32.7625 23.5707L32.3301 23.3203L32.1465 23.427L32.5789 23.6774Z" fill="#836E69"/>
<path d="M33.0635 24.0887L33.243 23.982V23.8507L32.627 23.707V23.8384L33.0635 24.0887Z" fill="#403531"/>
<path d="M33.0635 23.9588L33.243 23.848L32.8105 23.5977L32.627 23.7044L33.0635 23.9588Z" fill="#836E69"/>
<path d="M33.542 24.3661L33.7256 24.2635V24.128L33.1055 23.9844V24.1157L33.542 24.3661Z" fill="#403531"/>
<path d="M33.542 24.2397L33.7256 24.133L33.2891 23.8867L33.1055 23.9893L33.542 24.2397Z" fill="#836E69"/>
<path d="M34.0243 24.6471L34.2078 24.5445V24.4132L33.5918 24.2695V24.4009L34.0243 24.6471Z" fill="#403531"/>
<path d="M34.0243 24.5213L34.2078 24.4146L33.7713 24.1602L33.5918 24.271L34.0243 24.5213Z" fill="#836E69"/>
<path d="M34.5086 24.9366L34.6922 24.8258V24.6944L34.0762 24.5508V24.6821L34.5086 24.9366Z" fill="#403531"/>
<path d="M34.5086 24.7985L34.6922 24.6918L34.2598 24.4414L34.0762 24.5481L34.5086 24.7985Z" fill="#836E69"/>
<path d="M34.991 25.2139L35.1746 25.1031V24.9718L34.5586 24.8281V24.9595L34.991 25.2139Z" fill="#403531"/>
<path d="M34.991 25.0758L35.1746 24.9691L34.7422 24.7188L34.5586 24.8255L34.991 25.0758Z" fill="#836E69"/>
<path d="M35.4754 25.4913L35.659 25.3846V25.2491L35.043 25.1055V25.2368L35.4754 25.4913Z" fill="#403531"/>
<path d="M35.4754 25.3612L35.659 25.2504L35.2266 25L35.043 25.1067L35.4754 25.3612Z" fill="#836E69"/>
<path d="M35.9539 25.7723L36.1375 25.6656V25.5343L35.5215 25.3906V25.5179L35.9539 25.7723Z" fill="#403531"/>
<path d="M35.9539 25.6422L36.1375 25.5355L35.7051 25.2852L35.5215 25.3919L35.9539 25.6422Z" fill="#836E69"/>
<path d="M36.4383 26.0497L36.626 25.943V25.8116L36.0059 25.668V25.7993L36.4383 26.0497Z" fill="#403531"/>
<path d="M36.4383 25.9196L36.626 25.8129L36.1894 25.5625L36.0059 25.6692L36.4383 25.9196Z" fill="#836E69"/>
<path d="M36.9207 26.3309L37.1043 26.2242V26.0929L36.4883 25.9492V26.0765L36.9207 26.3309Z" fill="#403531"/>
<path d="M36.9207 26.2049L37.1043 26.0982L36.6719 25.8438L36.4883 25.9546L36.9207 26.2049Z" fill="#836E69"/>
<path d="M37.4032 26.6083L37.5867 26.5016V26.3702L36.9707 26.2266V26.3579L37.4032 26.6083Z" fill="#403531"/>
<path d="M37.4032 26.4782L37.5867 26.3715L37.1543 26.1211L36.9707 26.2278L37.4032 26.4782Z" fill="#836E69"/>
<path d="M37.8856 26.8975L38.0692 26.7908V26.6595L37.4531 26.5117V26.6431L37.8856 26.8975Z" fill="#403531"/>
<path d="M37.8856 26.7674L38.0692 26.6607L37.6326 26.4062L37.4531 26.513L37.8856 26.7674Z" fill="#836E69"/>
<path d="M33.8359 21.0742V21.2056L34.5091 21.5955L34.9456 21.3451V21.2138L33.8359 21.0742Z" fill="#403531"/>
<path d="M34.2684 20.8242L33.8359 21.0746L34.5091 21.4604L34.9456 21.2141L34.2684 20.8242Z" fill="#836E69"/>
<path d="M34.5645 21.4922V21.6276L35.1071 21.9437L35.5436 21.6892V21.562L34.5645 21.4922Z" fill="#403531"/>
<path d="M34.9969 21.2422L34.5645 21.4926L35.1071 21.8127L35.5436 21.5623L34.9969 21.2422Z" fill="#836E69"/>
<path d="M35.1543 21.8359V21.9714L35.8315 22.3613L36.264 22.1109V21.9796L35.1543 21.8359Z" fill="#403531"/>
<path d="M35.5908 21.5898L35.1543 21.8402L35.8315 22.2342L36.264 21.9839L35.5908 21.5898Z" fill="#836E69"/>
<path d="M35.8828 22.2578V22.3892L38.7305 24.0432L39.163 23.7929V23.6615L35.8828 22.2578Z" fill="#403531"/>
<path d="M36.3153 22.0078L35.8828 22.2582L38.7305 23.9122L39.163 23.6619L36.3153 22.0078Z" fill="#836E69"/>
<path d="M38.7793 23.9336V24.069L39.4076 24.4302L39.8441 24.1799V24.0485L38.7793 23.9336Z" fill="#403531"/>
<path d="M39.2118 23.6875L38.7793 23.9379L39.4076 24.3032L39.8441 24.0528L39.2118 23.6875Z" fill="#836E69"/>
<path d="M39.4612 24.3398V24.4712L40.016 24.7913L40.4485 24.541V24.4096L39.4612 24.3398Z" fill="#403531"/>
<path d="M39.8977 24.0859L39.4612 24.3404L40.016 24.6606L40.4485 24.4102L39.8977 24.0859Z" fill="#836E69"/>
<path d="M40.0586 24.6875V24.8188L40.7685 25.2293L41.2009 24.9789V24.8435L40.0586 24.6875Z" fill="#403531"/>
<path d="M40.491 24.4375L40.0586 24.692L40.7685 25.0983L41.2009 24.8479L40.491 24.4375Z" fill="#836E69"/>
<path d="M34.4613 21.6029V21.4716L33.3516 21.332V21.4634L34.0288 21.8574L34.4613 21.6029Z" fill="#403531"/>
<path d="M34.4613 21.4721L33.784 21.0781L33.3516 21.3326L34.0288 21.7225L34.4613 21.4721Z" fill="#836E69"/>
<path d="M34.7167 21.752L34.5086 21.6289L34.3046 21.752H34.0762V21.8793L34.5086 22.1337L34.9452 21.8793V21.752H34.7167Z" fill="#403531"/>
<path d="M34.5086 21.5L34.0762 21.7545L34.5086 22.0048L34.9452 21.7545L34.5086 21.5Z" fill="#836E69"/>
<path d="M35.1952 22.037L34.9912 21.918L34.7832 22.037H34.5547V22.1642L34.9912 22.4187L35.4237 22.1642V22.037H35.1952Z" fill="#403531"/>
<path d="M34.9912 21.7852L34.5547 22.0355L34.9912 22.29L35.4237 22.0355L34.9912 21.7852Z" fill="#836E69"/>
<path d="M35.6817 22.3143L35.4736 22.1953L35.2656 22.3143H35.0371V22.4457L35.4736 22.7002L35.9102 22.4457V22.3143H35.6817Z" fill="#403531"/>
<path d="M35.4736 22.0625L35.0371 22.3129L35.4736 22.5673L35.9102 22.3129L35.4736 22.0625Z" fill="#836E69"/>
<path d="M36.162 22.5958L35.9539 22.4727L35.7459 22.5958H35.5215V22.7271L35.9539 22.9775L36.3905 22.7271V22.5958H36.162Z" fill="#403531"/>
<path d="M35.9539 22.3438L35.5215 22.5941L35.9539 22.8404L36.3905 22.5941L35.9539 22.3438Z" fill="#836E69"/>
<path d="M36.6464 22.8731L36.4383 22.75L36.2343 22.8731H36.0059V23.0045L36.4383 23.2548L36.8749 23.0045V22.8731H36.6464Z" fill="#403531"/>
<path d="M36.4383 22.6172L36.0059 22.8717L36.4383 23.122L36.8749 22.8717L36.4383 22.6172Z" fill="#836E69"/>
<path d="M37.1247 23.1503L36.9207 23.0312L36.7127 23.1503H36.4883V23.2816L36.9207 23.5361L37.3532 23.2816V23.1503H37.1247Z" fill="#403531"/>
<path d="M36.9207 22.9062L36.4883 23.1566L36.9207 23.407L37.3532 23.1566L36.9207 22.9062Z" fill="#836E69"/>
<path d="M37.6112 23.4356L37.4032 23.3125L37.1951 23.4356H36.9707V23.5629L37.4032 23.8173L37.8356 23.5629V23.4356H37.6112Z" fill="#403531"/>
<path d="M37.4032 23.1836L36.9707 23.4381L37.4032 23.6884L37.8356 23.4381L37.4032 23.1836Z" fill="#836E69"/>
<path d="M38.0897 23.7128L37.8858 23.5938L37.6736 23.7128H37.4492V23.84L37.8858 24.0945L38.3141 23.84V23.7128H38.0897Z" fill="#403531"/>
<path d="M37.8858 23.4648L37.4492 23.7152L37.8858 23.9697L38.3141 23.7152L37.8858 23.4648Z" fill="#836E69"/>
<path d="M38.5739 23.994L38.3659 23.875L38.1619 23.994H37.9375V24.1254L38.3659 24.3798L38.8024 24.1254V23.994H38.5739Z" fill="#403531"/>
<path d="M38.3659 23.7383L37.9375 23.9928L38.3659 24.2472L38.8024 23.9928L38.3659 23.7383Z" fill="#836E69"/>
<path d="M39.0544 24.2792L38.8504 24.1602L38.6424 24.2792H38.418V24.4146L38.8504 24.665L39.2829 24.4146V24.2792H39.0544Z" fill="#403531"/>
<path d="M38.8504 24.0234L38.418 24.2738L38.8504 24.5283L39.2829 24.2738L38.8504 24.0234Z" fill="#836E69"/>
<path d="M39.5469 24.5606L39.3348 24.4375L39.1267 24.5606H38.9023V24.692L39.3348 24.9423L39.7673 24.692V24.5606H39.5469Z" fill="#403531"/>
<path d="M39.3348 24.3047L38.9023 24.5551L39.3348 24.8054L39.7673 24.5551L39.3348 24.3047Z" fill="#836E69"/>
<path d="M40.0233 24.8339L39.8193 24.7148L39.6113 24.8339H39.3828V24.9652L39.8193 25.2197L40.2518 24.9652V24.8339H40.0233Z" fill="#403531"/>
<path d="M39.8193 24.582L39.3828 24.8324L39.8193 25.0828L40.2518 24.8324L39.8193 24.582Z" fill="#836E69"/>
<path d="M40.5056 25.1149L40.3016 25L40.0935 25.1149H39.8691V25.2463L40.3016 25.5007L40.7341 25.2463V25.1149H40.5056Z" fill="#403531"/>
<path d="M40.3016 24.8633L39.8691 25.1136L40.3016 25.3681L40.7341 25.1136L40.3016 24.8633Z" fill="#836E69"/>
<path d="M33.5292 21.6034L33.3252 21.4844L33.1131 21.6034H32.8887V21.7347L33.3252 21.9851L33.7536 21.7347V21.6034H33.5292Z" fill="#403531"/>
<path d="M33.3252 21.3516L32.8887 21.6019L33.3252 21.8564L33.7536 21.6019L33.3252 21.3516Z" fill="#836E69"/>
<path d="M34.0134 21.8807L33.8054 21.7617L33.6014 21.8807H33.3729V22.0121L33.8054 22.2666L34.2378 22.0121V21.8807H34.0134Z" fill="#403531"/>
<path d="M33.8054 21.6289L33.3729 21.8793L33.8054 22.1337L34.2378 21.8793L33.8054 21.6289Z" fill="#836E69"/>
<path d="M34.4921 22.1581L34.2881 22.0391L34.08 22.1581H33.8516V22.2935L34.2881 22.5439L34.7206 22.2935V22.1581H34.4921Z" fill="#403531"/>
<path d="M34.2881 21.918L33.8516 22.1642L34.2881 22.4187L34.7206 22.1642L34.2881 21.918Z" fill="#836E69"/>
<path d="M34.9802 22.4393L34.7722 22.3203L34.5641 22.4393H34.3397V22.5707L34.7722 22.821L35.2046 22.5707V22.4393H34.9802Z" fill="#403531"/>
<path d="M34.7722 22.1914L34.3397 22.4459L34.7722 22.6962L35.2046 22.4459L34.7722 22.1914Z" fill="#836E69"/>
<path d="M35.4589 22.7206L35.2508 22.6016L35.0427 22.7206H34.8184V22.8519L35.2508 23.1064L35.6874 22.8519V22.7206H35.4589Z" fill="#403531"/>
<path d="M35.2508 22.4727L34.8184 22.723L35.2508 22.9734L35.6874 22.723L35.2508 22.4727Z" fill="#836E69"/>
<path d="M35.9411 23.0059L35.7371 22.8828L35.529 23.0059H35.3046V23.1332L35.7371 23.3877L36.1695 23.1332V23.0059H35.9411Z" fill="#403531"/>
<path d="M35.7371 22.75L35.3046 23.0045L35.7371 23.2548L36.1695 23.0045L35.7371 22.75Z" fill="#836E69"/>
<path d="M36.4255 23.2833L36.2215 23.1602L36.0134 23.2833H35.7891V23.4146L36.2215 23.665L36.654 23.4146V23.2833H36.4255Z" fill="#403531"/>
<path d="M36.2215 23.0273L35.7891 23.2818L36.2215 23.5322L36.654 23.2818L36.2215 23.0273Z" fill="#836E69"/>
<path d="M36.91 23.5682L36.7019 23.4492L36.4939 23.5682H36.2695V23.6996L36.7019 23.9541L37.1385 23.6996V23.5682H36.91Z" fill="#403531"/>
<path d="M36.7019 23.3125L36.2695 23.5629L36.7019 23.8132L37.1385 23.5629L36.7019 23.3125Z" fill="#836E69"/>
<path d="M37.3925 23.8456L37.1885 23.7266L36.9804 23.8456H36.752V23.9769L37.1885 24.2273L37.6209 23.9769V23.8456H37.3925Z" fill="#403531"/>
<path d="M37.1885 23.5898L36.752 23.8402L37.1885 24.0906L37.6209 23.8402L37.1885 23.5898Z" fill="#836E69"/>
<path d="M37.8728 24.127L37.6688 24.0039L37.4648 24.127H37.2363V24.2584L37.6688 24.5087L38.1012 24.2584V24.127H37.8728Z" fill="#403531"/>
<path d="M37.6688 23.8711L37.2363 24.1256L37.6688 24.3759L38.1012 24.1256L37.6688 23.8711Z" fill="#836E69"/>
<path d="M38.3593 24.4042L38.1512 24.2852L37.9431 24.4042H37.7188V24.5355L38.1512 24.79L38.5837 24.5355V24.4042H38.3593Z" fill="#403531"/>
<path d="M38.1512 24.1602L37.7188 24.4105L38.1512 24.665L38.5837 24.4105L38.1512 24.1602Z" fill="#836E69"/>
<path d="M38.8398 24.6856L38.6358 24.5625L38.4277 24.6856H38.1993V24.817L38.6358 25.0673L39.0683 24.817V24.6856H38.8398Z" fill="#403531"/>
<path d="M38.6358 24.4375L38.1993 24.692L38.6358 24.9423L39.0683 24.692L38.6358 24.4375Z" fill="#836E69"/>
<path d="M39.32 24.9708L39.116 24.8477L38.908 24.9708H38.6836V25.1021L39.116 25.3525L39.5485 25.1021V24.9708H39.32Z" fill="#403531"/>
<path d="M39.116 24.7148L38.6836 24.9693L39.116 25.2197L39.5485 24.9693L39.116 24.7148Z" fill="#836E69"/>
<path d="M40.2717 25.5131V25.3817L39.1661 25.2422V25.3735L39.8392 25.7634L40.2717 25.5131Z" fill="#403531"/>
<path d="M40.2717 25.3821L39.6026 24.9922L39.1661 25.2426L39.8392 25.6325L40.2717 25.3821Z" fill="#836E69"/>
<path d="M33.509 22.1492V22.0179L32.4238 21.8906V22.022L33.0766 22.3996L33.509 22.1492Z" fill="#403531"/>
<path d="M33.509 22.0106L32.8563 21.6289L32.4238 21.8834L33.0766 22.2651L33.509 22.0106Z" fill="#836E69"/>
<path d="M33.7735 22.295L33.5654 22.1719L33.3574 22.295H33.1289V22.4263L33.5654 22.6726L33.9979 22.4263V22.295H33.7735Z" fill="#403531"/>
<path d="M33.5654 22.0391L33.1289 22.2935L33.5654 22.5439L33.9979 22.2935L33.5654 22.0391Z" fill="#836E69"/>
<path d="M34.2558 22.5724L34.0477 22.4492L33.8437 22.5724H33.6152V22.7037L34.0477 22.9541L34.4801 22.7037V22.5724H34.2558Z" fill="#403531"/>
<path d="M34.0477 22.3203L33.6152 22.5707L34.0477 22.821L34.4801 22.5707L34.0477 22.3203Z" fill="#836E69"/>
<path d="M34.7362 22.8573L34.5282 22.7383L34.3242 22.8573H34.0957V22.9886L34.5282 23.239L34.9606 22.9886V22.8573H34.7362Z" fill="#403531"/>
<path d="M34.5282 22.6016L34.0957 22.8519L34.5282 23.1064L34.9606 22.8519L34.5282 22.6016Z" fill="#836E69"/>
<path d="M35.2186 23.1347L35.0147 23.0156L34.8066 23.1347H34.5781V23.266L35.0147 23.5205L35.4471 23.266V23.1347H35.2186Z" fill="#403531"/>
<path d="M35.0147 22.8828L34.5781 23.1332L35.0147 23.3877L35.4471 23.1332L35.0147 22.8828Z" fill="#836E69"/>
<path d="M35.703 23.4159L35.495 23.2969L35.2869 23.4159H35.0625V23.5431L35.495 23.7976L35.9274 23.5431V23.4159H35.703Z" fill="#403531"/>
<path d="M35.495 23.1602L35.0625 23.4146L35.495 23.665L35.9274 23.4146L35.495 23.1602Z" fill="#836E69"/>
<path d="M36.1835 23.6932L35.9754 23.5742L35.7674 23.6932H35.543V23.8246L35.9754 24.075L36.4079 23.8246V23.6932H36.1835Z" fill="#403531"/>
<path d="M35.9754 23.4492L35.543 23.6996L35.9754 23.95L36.4079 23.6996L35.9754 23.4492Z" fill="#836E69"/>
<path d="M36.6657 23.9784L36.4618 23.8594L36.2537 23.9784H36.0293V24.1097L36.4618 24.3642L36.8942 24.1097V23.9784H36.6657Z" fill="#403531"/>
<path d="M36.4618 23.7266L36.0293 23.9769L36.4618 24.2273L36.8942 23.9769L36.4618 23.7266Z" fill="#836E69"/>
<path d="M37.1443 24.2557L36.9403 24.1367L36.7322 24.2557H36.5078V24.3871L36.9403 24.6416L37.3727 24.3871V24.2557H37.1443Z" fill="#403531"/>
<path d="M36.9403 24.0039L36.5078 24.2543L36.9403 24.5046L37.3727 24.2543L36.9403 24.0039Z" fill="#836E69"/>
<path d="M37.6327 24.537L37.4246 24.418L37.2207 24.537H36.9922V24.6683L37.4246 24.9228L37.8612 24.6683V24.537H37.6327Z" fill="#403531"/>
<path d="M37.4246 24.2852L36.9922 24.5355L37.4246 24.79L37.8612 24.5355L37.4246 24.2852Z" fill="#836E69"/>
<path d="M38.1132 24.8143L37.9092 24.6953L37.7011 24.8143H37.4727V24.9457L37.9092 25.2002L38.3376 24.9457V24.8143H38.1132Z" fill="#403531"/>
<path d="M37.9092 24.5625L37.4727 24.8129L37.9092 25.0673L38.3376 24.8129L37.9092 24.5625Z" fill="#836E69"/>
<path d="M38.5976 25.0958L38.3895 24.9727L38.1814 25.0958H37.957V25.223L38.3895 25.4775L38.8219 25.223V25.0958H38.5976Z" fill="#403531"/>
<path d="M38.3895 24.8477L37.957 25.1021L38.3895 25.3525L38.8219 25.1021L38.3895 24.8477Z" fill="#836E69"/>
<path d="M39.08 25.3768L38.8719 25.2578L38.6679 25.3768H38.4395V25.5082L38.8719 25.7585L39.3044 25.5082V25.3768H39.08Z" fill="#403531"/>
<path d="M38.8719 25.125L38.4395 25.3795L38.8719 25.6298L39.3044 25.3795L38.8719 25.125Z" fill="#836E69"/>
<path d="M33.1769 22.4928V22.3615L31.957 22.1562V22.2876L32.7444 22.7432L33.1769 22.4928Z" fill="#403531"/>
<path d="M33.1769 22.3618L32.3895 21.9062L31.957 22.1566L32.7444 22.6163L33.1769 22.3618Z" fill="#836E69"/>
<path d="M33.4354 22.6425L33.2274 22.5234L33.0193 22.6425H32.7949V22.7738L33.2274 23.0283L33.6598 22.7738V22.6425H33.4354Z" fill="#403531"/>
<path d="M33.2274 22.3906L32.7949 22.641L33.2274 22.8914L33.6598 22.641L33.2274 22.3906Z" fill="#836E69"/>
<path d="M33.9159 22.9198L33.7119 22.8008L33.4998 22.9198H33.2754V23.0553L33.7119 23.3056L34.1444 23.0553V22.9198H33.9159Z" fill="#403531"/>
<path d="M33.7119 22.668L33.2754 22.9183L33.7119 23.1728L34.1444 22.9183L33.7119 22.668Z" fill="#836E69"/>
<path d="M34.4024 23.2011L34.1943 23.082L33.9863 23.2011H33.7578V23.3324L34.1943 23.5869L34.6227 23.3324V23.2011H34.4024Z" fill="#403531"/>
<path d="M34.1943 22.9492L33.7578 23.1996L34.1943 23.45L34.6227 23.1996L34.1943 22.9492Z" fill="#836E69"/>
<path d="M34.8827 23.4786L34.6746 23.3555L34.4666 23.4786H34.2422V23.6099L34.6746 23.8644L35.1071 23.6099V23.4786H34.8827Z" fill="#403531"/>
<path d="M34.6746 23.2344L34.2422 23.4847L34.6746 23.7351L35.1071 23.4847L34.6746 23.2344Z" fill="#836E69"/>
<path d="M35.3632 23.7636L35.1551 23.6445L34.9511 23.7636H34.7227V23.8908L35.1551 24.1453L35.5916 23.8908V23.7636H35.3632Z" fill="#403531"/>
<path d="M35.1551 23.5117L34.7227 23.7662L35.1551 24.0166L35.5916 23.7662L35.1551 23.5117Z" fill="#836E69"/>
<path d="M35.8454 24.0411L35.6414 23.918L35.4334 24.0411H35.209V24.1724L35.6414 24.4228L36.0698 24.1724V24.0411H35.8454Z" fill="#403531"/>
<path d="M35.6414 23.793L35.209 24.0433L35.6414 24.2937L36.0698 24.0433L35.6414 23.793Z" fill="#836E69"/>
<path d="M36.328 24.3222L36.12 24.2031L35.9119 24.3222H35.6875V24.4535L36.12 24.708L36.5524 24.4535V24.3222H36.328Z" fill="#403531"/>
<path d="M36.12 24.0703L35.6875 24.3207L36.12 24.571L36.5524 24.3207L36.12 24.0703Z" fill="#836E69"/>
<path d="M36.8124 24.5997L36.6043 24.4766L36.4003 24.5997H36.1719V24.731L36.6043 24.9814L37.0368 24.731V24.5997H36.8124Z" fill="#403531"/>
<path d="M36.6043 24.3516L36.1719 24.606L36.6043 24.8523L37.0368 24.606L36.6043 24.3516Z" fill="#836E69"/>
<path d="M37.2929 24.8847L37.0848 24.7656L36.8808 24.8847H36.6523V25.016L37.0848 25.2664L37.5173 25.016V24.8847H37.2929Z" fill="#403531"/>
<path d="M37.0848 24.6289L36.6523 24.8834L37.0848 25.1337L37.5173 24.8834L37.0848 24.6289Z" fill="#836E69"/>
<path d="M37.7732 25.1659L37.5692 25.0469L37.3611 25.1659H37.1367V25.2972L37.5692 25.5476L38.0016 25.2972V25.1659H37.7732Z" fill="#403531"/>
<path d="M37.5692 24.9102L37.1367 25.1605L37.5692 25.415L38.0016 25.1605L37.5692 24.9102Z" fill="#836E69"/>
<path d="M38.2597 25.4432L38.0516 25.3242L37.8435 25.4432H37.6191V25.5746L38.0516 25.8291L38.4841 25.5746V25.4432H38.2597Z" fill="#403531"/>
<path d="M38.0516 25.1914L37.6191 25.4418L38.0516 25.6962L38.4841 25.4418L38.0516 25.1914Z" fill="#836E69"/>
<path d="M39.7886 25.7917V25.6562L38.887 25.8081L38.0996 25.726V25.8574L38.887 26.313L39.7886 25.7917Z" fill="#403531"/>
<path d="M39.7886 25.6566L39.3521 25.4062L38.887 25.6771L38.5321 25.4719L38.0996 25.7264L38.887 26.182L39.7886 25.6566Z" fill="#836E69"/>
<path d="M32.4692 22.6187V22.4873L31.4941 22.4258V22.5571L32.0367 22.8732L32.4692 22.6187Z" fill="#403531"/>
<path d="M32.4692 22.4879L31.9307 22.1719L31.4941 22.4263L32.0367 22.7424L32.4692 22.4879Z" fill="#836E69"/>
<path d="M32.7282 22.7675L32.5202 22.6484L32.3121 22.7675H32.0877V22.8988L32.5202 23.1492L32.9526 22.8988V22.7675H32.7282Z" fill="#403531"/>
<path d="M32.5202 22.5234L32.0877 22.7738L32.5202 23.0242L32.9526 22.7738L32.5202 22.5234Z" fill="#836E69"/>
<path d="M33.2069 23.0487L32.9989 22.9297L32.7908 23.0487H32.5664V23.1801L32.9989 23.4345L33.4313 23.1801V23.0487H33.2069Z" fill="#403531"/>
<path d="M32.9989 22.8008L32.5664 23.0511L32.9989 23.3056L33.4313 23.0511L32.9989 22.8008Z" fill="#836E69"/>
<path d="M33.6931 23.3298L33.485 23.2148L33.2769 23.3298H33.0526V23.4652L33.485 23.7156L33.9175 23.4652V23.3298H33.6931Z" fill="#403531"/>
<path d="M33.485 23.0781L33.0526 23.3285L33.485 23.583L33.9175 23.3285L33.485 23.0781Z" fill="#836E69"/>
<path d="M34.1757 23.6153L33.9676 23.4922L33.7595 23.6153H33.5352V23.7426L33.9676 23.997L34.4001 23.7426V23.6153H34.1757Z" fill="#403531"/>
<path d="M33.9676 23.3555L33.5352 23.6099L33.9676 23.8603L34.4001 23.6099L33.9676 23.3555Z" fill="#836E69"/>
<path d="M34.656 23.8964L34.448 23.7773L34.244 23.8964H34.0155V24.0277L34.448 24.2781L34.8804 24.0277V23.8964H34.656Z" fill="#403531"/>
<path d="M34.448 23.6406L34.0155 23.891L34.448 24.1455L34.8804 23.891L34.448 23.6406Z" fill="#836E69"/>
<path d="M35.1386 24.1778L34.9346 24.0547L34.7265 24.1778H34.498V24.3092L34.9346 24.5595L35.367 24.3092V24.1778H35.1386Z" fill="#403531"/>
<path d="M34.9346 23.918L34.498 24.1724L34.9346 24.4228L35.367 24.1724L34.9346 23.918Z" fill="#836E69"/>
<path d="M35.6188 24.4511L35.4148 24.332L35.2067 24.4511H34.9824V24.5783L35.4148 24.8328L35.8473 24.5783V24.4511H35.6188Z" fill="#403531"/>
<path d="M35.4148 24.2031L34.9824 24.4576L35.4148 24.708L35.8473 24.4576L35.4148 24.2031Z" fill="#836E69"/>
<path d="M36.1073 24.7323L35.8993 24.6133L35.6953 24.7323H35.4668V24.8636L35.8993 25.114L36.3317 24.8636V24.7323H36.1073Z" fill="#403531"/>
<path d="M35.8993 24.4766L35.4668 24.7269L35.8993 24.9814L36.3317 24.7269L35.8993 24.4766Z" fill="#836E69"/>
<path d="M36.5918 25.0138L36.3837 24.8906L36.1757 25.0138H35.9472V25.1451L36.3837 25.3955L36.8162 25.1451V25.0138H36.5918Z" fill="#403531"/>
<path d="M36.3837 24.7539L35.9472 25.0084L36.3837 25.2587L36.8162 25.0084L36.3837 24.7539Z" fill="#836E69"/>
<path d="M37.0741 25.2989L36.866 25.1758L36.6621 25.2989H36.4336V25.4303L36.866 25.6806L37.2985 25.4303V25.2989H37.0741Z" fill="#403531"/>
<path d="M36.866 25.0469L36.4336 25.2972L36.866 25.5476L37.2985 25.2972L36.866 25.0469Z" fill="#836E69"/>
<path d="M37.5526 25.5761L37.3446 25.457L37.1406 25.5761H36.9121V25.7115L37.3446 25.9619L37.7811 25.7115V25.5761H37.5526Z" fill="#403531"/>
<path d="M37.3446 25.3242L36.9121 25.5746L37.3446 25.825L37.7811 25.5746L37.3446 25.3242Z" fill="#836E69"/>
<path d="M38.857 26.3314V26.2L37.3965 25.8594V25.9866L38.4246 26.5859L38.857 26.3314Z" fill="#403531"/>
<path d="M38.857 26.1967L37.8289 25.6016L37.3965 25.856L38.4246 26.4471L38.857 26.1967Z" fill="#836E69"/>
<path opacity="0.3" d="M32.8745 34.2635L18.5137 25.9234L20.7983 24.5977L35.1592 32.9378L32.8745 34.2635Z" fill="black"/>
<path d="M28.2473 32.7084L28.0352 32.1707L31.4499 30.4961V30.845L28.2473 32.7084Z" fill="#0A0808"/>
<path d="M28.2498 32.7122L20.7227 28.3411V27.9922L24.9085 29.4575L28.2498 32.3634V32.7122Z" fill="#362C29"/>
<path d="M28.2498 32.3674L20.7227 27.9962L23.9253 26.1328L31.4525 30.504L28.2498 32.3674Z" fill="#574943"/>
<path opacity="0.3" d="M21.705 27.4257L23.9244 26.1328L31.4516 30.504V30.8529L29.2281 32.1457V31.7969L21.705 27.4257Z" fill="black"/>
<path d="M34.3227 29.8751L33.6945 30.2404L19.3418 21.9044L19.9701 21.5391L34.3227 29.8751Z" fill="#F4EFE9"/>
<path d="M34.3225 31.9481L33.6942 32.3093L33.2617 31.0862L33.6942 30.2325L34.3225 29.8672V31.9481Z" fill="#0A0808"/>
<path d="M33.6945 30.2384L19.3418 21.9023V23.9792L33.6945 32.3152V30.2384Z" fill="#211A1A"/>
<path d="M34.3227 20.5741L33.6945 20.9435L19.3418 12.6075L19.9701 12.2422L34.3227 20.5741Z" fill="#574943"/>
<path d="M34.3235 29.8709L33.6952 30.2361V20.9397L34.3235 20.5703V29.8709Z" fill="#0A0808"/>
<path d="M33.6945 20.9415L19.3418 12.6055V21.9019L33.6945 30.2379V20.9415Z" fill="#362C29"/>
<path d="M27.5705 30.895L27.183 31.1207L24.0293 21.6396L24.4128 21.418L28.6394 23.8724L27.5705 30.895Z" fill="#0A0808"/>
<path d="M27.1839 31.1257L22.9572 28.6671L24.0302 21.6445L28.2568 24.1031L27.1839 31.1257Z" fill="#362C29"/>
<path opacity="0.3" d="M10.4809 56.3008L0 50.214L11.9497 43.2734L22.4306 49.3644L10.4809 56.3008Z" fill="black"/>
<path d="M11.5503 43.5044L12.203 43.882L11.3544 38.969L10.8485 36.9496L10.5344 36.6172L9.95508 36.6295L11.5503 43.5044Z" fill="#362C29"/>
<path d="M0 50.2082L1.63191 41.2812L1.92973 40.5547L2.83544 40.7435L2.44379 41.6629L2.41523 41.6506L0.652764 50.5858L0 50.2082Z" fill="#362C29"/>
<path d="M1.92975 40.5584L2.58251 40.9401L3.49638 40.3368L2.4438 39.9961L1.92975 40.5584Z" fill="#0A0808"/>
<path d="M9.50195 35.8961L10.069 36.4871L10.6728 36.2409L10.0201 35.8633L9.50195 35.8961Z" fill="#0A0808"/>
<path d="M2.44336 39.9948L3.1002 40.3765L6.91072 38.4598L10.1582 36.2762L9.50137 35.8945L2.44336 39.9948Z" fill="#574943"/>
<path d="M10.0766 36.772L3.18181 40.7738L2.85134 41.135L2.65143 41.6275L1.05216 50.3535L0.652344 50.5833L2.28833 41.6604L2.58208 40.9339L3.10021 40.3716L10.1582 36.2713L10.6723 36.2344L10.9701 36.6202L12.6061 43.6469L12.2022 43.8767L10.6029 37.006L10.403 36.7474L10.0766 36.772Z" fill="#0A0808"/>
<path d="M12.1309 43.8945L13.8648 44.2762L13.4894 45.9426H12.8571L12.1309 43.8945Z" fill="#362C29"/>
<path d="M4.27148 40.0117L12.8553 43.9725V45.9508L4.27148 40.968V40.0117Z" fill="#0A0808"/>
<path d="M13.4883 43.6782L19.3305 41.6055V42.5618L13.4883 45.952V43.6782Z" fill="#362C29"/>
<path d="M10.1137 36.2461H10.7461L19.3299 41.2288V41.5982L13.4877 44.9925H12.8553L4.27148 40.0057V39.6363L10.1137 36.2461Z" fill="#B5AFA7"/>
<path d="M12.1309 43.332L13.8648 43.7137L13.4894 44.9984H12.8571L12.1309 43.332Z" fill="#D9BE93"/>
<path d="M4.27148 39.4375L12.8553 43.3982V44.9948L4.27148 40.008V39.4375Z" fill="#C7AE87"/>
<path d="M13.4883 43.1038L19.3305 41.0352V41.6057L13.4883 45V43.1038Z" fill="#EFCFA3"/>
<path d="M10.1137 35.6797H10.7461L19.3299 40.6665V41.0318L13.4877 44.422H12.8553L4.27148 39.4393V39.0699L10.1137 35.6797Z" fill="#F7EDD4"/>
<path d="M21.3764 49.2153L22.0292 49.597L21.1847 44.6799L20.6747 42.6606L20.3606 42.3281L19.7772 42.3404L21.3764 49.2153Z" fill="#362C29"/>
<path d="M9.82812 55.9191L11.46 46.9962L11.7579 46.2656L12.6636 46.4503L12.2719 47.3738L12.2393 47.3615L10.4809 56.2968L9.82812 55.9191Z" fill="#362C29"/>
<path d="M11.7578 46.2615L12.4106 46.6391L13.3244 46.0358L12.2719 45.6992L11.7578 46.2615Z" fill="#0A0808"/>
<path d="M19.3281 41.6031L19.8993 42.1942L20.499 41.9479L19.8422 41.5703L19.3281 41.6031Z" fill="#0A0808"/>
<path d="M12.2717 45.7058L12.9285 46.0834L16.739 44.1707L19.9824 41.9872L19.3297 41.6055L12.2717 45.7058Z" fill="#574943"/>
<path d="M19.9007 42.4789L13.0099 46.4848L12.6795 46.846L12.4796 47.3344L10.8803 56.0644L10.4805 56.2943L12.1165 47.3713L12.4102 46.6407L12.9283 46.0784L19.9823 41.9823L20.5004 41.9453L20.7982 42.3311L22.4301 49.3578L22.0303 49.5918L20.4351 42.7169L20.2352 42.4584L19.9007 42.4789Z" fill="#0A0808"/>
<path d="M3.10192 40.3765L2.44508 39.9948L1.66992 37.0273L2.56747 37.2736L3.10192 40.3765Z" fill="#362C29"/>
<path d="M2.32677 37.4076L2.56747 37.2721L1.90655 36.8945L1.66992 37.0259L2.32677 37.4076Z" fill="#574943"/>
<path d="M3.10133 40.3725L3.33796 40.2329L2.56688 37.2695L2.32617 37.405L3.10133 40.3725Z" fill="#0A0808"/>
<path d="M2.32677 37.4099L1.66992 37.0282V28.7578L2.56747 29.0082L2.32677 37.4099Z" fill="#362C29"/>
<path d="M2.32677 29.1422L2.56747 29.0067L1.90655 28.625L1.66992 28.7563L2.32677 29.1422Z" fill="#574943"/>
<path d="M2.32617 37.4095L2.46896 37.4834L2.56688 37.2741V29.0078L2.32617 29.1433V37.4095Z" fill="#0A0808"/>
<path d="M10.0996 33.8425L11.295 35.1683L12.2456 34.1791L11.9314 33.625L10.0996 33.8425Z" fill="#EFCFA3"/>
<path d="M2.82422 28.9406L10.5268 34.4364L11.9344 33.6196L3.34643 28.6328L2.82422 28.9406Z" fill="#F7EDD4"/>
<path d="M10.5859 35.1362L11.7242 38.8835L12.2464 38.5839V34.1758L10.5859 35.1362Z" fill="#D9BE93"/>
<path d="M2.50977 33.534L2.82391 34.084L11.4078 39.0708L11.726 38.8861V34.478L11.4078 33.928L2.82391 28.9453L2.50977 29.1259V33.534Z" fill="#574943"/>
<path d="M9.60938 34.1269L10.8047 35.4485L11.7227 34.4758L11.4045 33.9258L9.60938 34.1269Z" fill="#0A0808"/>
<path d="M2.33203 29.2285L10.0387 34.7284L11.4095 33.928L2.82568 28.9453L2.33203 29.2285Z" fill="#574943"/>
<path d="M10.0977 35.4247L11.2359 39.172L11.7255 38.8847V34.4766L10.0977 35.4247Z" fill="#211A1A"/>
<path d="M2.01562 33.8194L2.32977 34.3694L10.9136 39.3562L11.2359 39.1715V34.7634L10.9136 34.2134L2.32977 29.2266L2.01562 29.4113V33.8194Z" fill="#362C29"/>
<path d="M12.9281 46.0794L12.2713 45.7018L11.4961 42.7344L12.3896 42.9806L12.9281 46.0794Z" fill="#362C29"/>
<path d="M12.157 43.1228L12.3896 42.9833L11.7327 42.6016L11.4961 42.737L12.157 43.1228Z" fill="#574943"/>
<path d="M12.9293 46.0832L13.1659 45.9477L12.3908 42.9844L12.1582 43.1239L12.9293 46.0832Z" fill="#0A0808"/>
<path d="M12.157 43.1208L11.4961 42.735V34.4688L12.3896 34.715L12.157 43.1208Z" fill="#362C29"/>
<path d="M12.157 34.8455L12.3896 34.71L11.7327 34.3242L11.4961 34.4638L12.157 34.8455Z" fill="#574943"/>
<path d="M12.1582 43.1245L12.2969 43.1943L12.3908 42.985V34.7188L12.1582 34.8542V43.1245Z" fill="#0A0808"/>
<path d="M38.6602 23.8982L39.6148 24.124L40.1901 23.184L39.9249 21.9609L38.6602 23.8982Z" fill="#C7A495"/>
<path d="M39.1427 19.9805L37.7801 21.7905L37.6699 22.8166L38.0657 23.7401L39.1427 21.6879L39.8648 21.1872L39.9505 20.4361L39.1427 19.9805Z" fill="#C7A495"/>
<path d="M27.8701 54.418L28.323 55.1527V55.3702L27.0501 56.5317L26.0587 58.2638L25.1244 58.4567L24.541 58.2351V57.3239L27.8701 54.418Z" fill="#211A1A"/>
<path d="M34.3307 55.1484L35.673 55.366L37.717 55.8133V56.0309L37.5252 57.1473L35.5384 57.8738L33.5719 58.0913L31.43 58.5797L30.6875 57.7752V57.5536L34.3307 55.1484Z" fill="#211A1A"/>
<path d="M27.8701 54.1992L28.323 54.4619V55.1555L27.0501 56.3171L26.0587 58.0491L25.1244 58.2379L24.6267 58.0491L24.541 57.3268L24.6267 55.5783L27.8701 54.1992Z" fill="#544540"/>
<path d="M34.3307 54.9258L35.673 55.1392H37.464L37.717 55.8082L37.5252 56.9205L35.5384 57.647L33.5719 57.8645L31.43 58.3529L30.6875 57.5485L30.8833 55.6317L34.3307 54.9258Z" fill="#544540"/>
<path d="M27.8427 16.6727L26.2027 16.332L25.0195 16.7178L24.224 17.9492L22.8613 26.7654V28.2635L25.2154 32.7291L26.5413 29.5276L25.4316 26.9131L26.219 23.7363L27.8427 16.6727Z" fill="white"/>
<path d="M24.7161 35.0781L25.0833 44.4115L24.2266 48.2491L24.4591 55.8504L26.1073 56.2445L27.9759 54.89L28.237 46.3118L30.3421 37.5243L24.7161 35.0781Z" fill="#685750"/>
<path d="M25.4341 30.3281L24.459 34.4202L24.9486 35.672L29.0569 38.2988L30.4195 46.1711L30.0279 49.0729L30.6521 55.9272L32.7532 56.2432L34.6625 54.9873L34.1362 45.8181L34.6625 39.7067L34.1362 31.777L25.4341 30.3281Z" fill="#836E69"/>
<path d="M25.5601 29.7422L25.4336 30.3291L28.061 31.9503L33.2015 32.3608L34.1358 31.778V30.834L25.5601 29.7422Z" fill="#362C29"/>
<path d="M29.7805 14.8823L29.2012 16.6308L29.552 17.5994L32.3875 18.0714L33.0688 17.3655L33.2198 16.1013L33.4931 15.3092L33.3299 14.6484L30.931 14.1641L29.7805 14.8823Z" fill="#F0C6B4"/>
<path d="M34.9714 20.5112L33.0662 18.3235L31.2425 18.5862L29.5779 17.9541L28.7457 16.8829L28.8966 16.4766L27.5748 16.6325L26.3468 17.359L25.3554 18.9064L25.082 21.9231L25.8205 27.6405L25.3554 29.6024L28.2357 31.5971L33.262 31.9501L34.4288 30.9733L34.9714 26.5036V20.5112Z" fill="#87511B"/>
<path d="M35.0967 11.0234L35.264 12.698L34.9988 13.1495L35.2272 13.6215L34.5174 16.1047H33.22L32.9997 15.37L32.502 15.1483V11.3764L35.0967 11.0234Z" fill="#F0C6B4"/>
<path d="M33.4903 13.4294L33.8126 13.7495V14.3118L34.1349 14.1354V13.1954L35.0121 12.0175L35.1141 10.7698L35.4201 10.741L34.4287 9.56307L32.8661 9.05002L33.115 8.74219L30.8915 9.3168L29.2881 10.8436L29.0801 12.9574L29.4309 14.3118L30.0184 15.2805L31.6218 15.8099L32.9967 15.3667L32.8824 14.71L32.9803 13.9137L33.4903 13.4294Z" fill="#B57355"/>
<path d="M37.7773 23.4498L37.9609 22.2184V21.3935L37.7773 20.6875H38.2832L39.14 21.689V24.0367L38.2547 24.2132L37.7773 23.4498Z" fill="#F0C6B4"/>
<path d="M39.3717 21.2461L40.155 21.6976V22.7729L39.1433 24.0371L38.5762 23.7416L38.6782 21.7591L39.3717 21.2461Z" fill="#F0C6B4"/>
<path d="M33.8783 20.3164L33.0664 21.2563V23.723L35.3429 29.0505L36.3955 29.3625L37.7622 28.5662L39.1412 24.035L38.672 23.4481H37.7785L36.779 24.901L36.1018 21.3712L34.9717 20.5093L33.8783 20.3164Z" fill="white"/>
<path d="M36.7754 24.9023L37.3629 27.0325L37.5587 26.4866L36.7754 24.9023Z" fill="#D1D1D1"/>
<path d="M29.1981 16.0273L29.8835 17.1478L31.4461 17.587L33.2167 17.2628L33.4901 18.3792L31.1972 18.7896L29.447 18.1575L28.5291 16.8934L29.1981 16.0273Z" fill="white"/>
<path d="M39.1409 19.3685L40.0262 20.6901H41.2052L41.6418 19.073L40.6585 18.6133L39.1409 19.3685Z" fill="#A39C95"/>
<path d="M39.4219 20.9453V22.349L39.7401 22.8374L40.0746 22.7595L40.1522 21.6923L39.4219 20.9453Z" fill="#C7A495"/>
<path d="M39.4795 21.1448L39.6427 22.3802L39.9609 22.7168L40.1812 21.5429L40.4831 20.7261L40.5892 19.9258L39.1409 19.9832L39.4795 21.1448Z" fill="#F0C6B4"/>
<path d="M39.7528 19.153L39.1409 19.978L39.9283 20.1052L40.4831 20.7209L41.3603 19.8713L40.8952 18.7344L39.7528 19.153Z" fill="white"/>
<path d="M42.474 14.9978L41.5561 16.0239L39.1409 19.3608L40.6055 19.447L41.2052 20.6824L44.7669 16.9228L43.8612 14.7188L42.474 14.9978Z" fill="#211A1A"/>
<path d="M50.6772 27.6875L48.7882 28.652L47.752 30.4005L48.2415 31.2091L49.9102 31.5908L50.9179 30.2404L52.1744 29.1815L52.3907 28.5248L50.6772 27.6875Z" fill="#F0C6B4"/>
<path d="M50.6758 27.6856L51.0634 25.9453L52.1282 26.7539L53.1971 26.8647L52.3893 28.5229L51.2714 28.3956L50.6758 27.6856Z" fill="white"/>
<path d="M55.0939 8.98828L54.1433 9.90766L53.3559 11.7013L52.3156 20.5011L50.5898 26.6823L51.5241 27.3103L53.1234 27.6838L55.0735 22.9227L55.4285 19.6433L57.2684 12.1117L56.8156 10.3386L55.0939 8.98828Z" fill="#211A1A"/>
<path opacity="0.3" d="M18.7389 70L8.25391 63.9132L20.2036 56.9727L30.6886 63.0636L18.7389 70Z" fill="black"/>
<path d="M19.8042 57.2036L20.461 57.5812L19.6124 52.6682L19.1025 50.6489L18.7924 50.3164L18.209 50.3287L19.8042 57.2036Z" fill="#362C29"/>
<path d="M8.25391 63.9113L9.8899 54.9843L10.1836 54.2578L11.0934 54.4425L10.7018 55.366L10.6691 55.3537L8.91075 64.2889L8.25391 63.9113Z" fill="#362C29"/>
<path d="M10.1836 54.2615L10.8404 54.6432L11.7543 54.0399L10.7017 53.6992L10.1836 54.2615Z" fill="#0A0808"/>
<path d="M17.7598 49.5992L18.3269 50.1903L18.9307 49.944L18.2779 49.5664L17.7598 49.5992Z" fill="#0A0808"/>
<path d="M10.703 53.7018L11.3558 54.0836L15.1704 52.1668L18.4179 49.9792L17.761 49.6016L10.703 53.7018Z" fill="#574943"/>
<path d="M18.3304 50.4752L11.4396 54.477L11.1051 54.8381L10.9052 55.3266L9.30997 64.0566L8.91016 64.2864L10.5421 55.3635L10.8399 54.637L11.3539 54.0747L18.416 49.9703L18.9301 49.9375L19.2279 50.3233L20.8598 57.35L20.46 57.5799L18.8648 50.7091L18.6608 50.4505L18.3304 50.4752Z" fill="#0A0808"/>
<path d="M20.3848 57.6055L22.1269 57.9872L21.7475 59.6536H21.1151L20.3848 57.6055Z" fill="#362C29"/>
<path d="M12.5293 53.7109L21.1131 57.6717V59.65L12.5293 54.6673V53.7109Z" fill="#0A0808"/>
<path d="M21.7441 57.3813L27.5864 55.3086V56.2649L21.7441 59.6551V57.3813Z" fill="#362C29"/>
<path d="M18.3715 49.9531H19.0039L27.5878 54.94V55.3052L21.7455 58.6996H21.1131L12.5293 53.7127V53.3434L18.3715 49.9531Z" fill="#B5AFA7"/>
<path d="M20.3848 57.0312L22.1269 57.413L21.7475 58.6976H21.1151L20.3848 57.0312Z" fill="#D9BE93"/>
<path d="M12.5293 53.1445L21.1131 57.1053V58.7019L12.5293 53.715V53.1445Z" fill="#C7AE87"/>
<path d="M21.7441 56.8069L27.5864 54.7383V55.3088L21.7441 58.7031V56.8069Z" fill="#EFCFA3"/>
<path d="M18.3715 49.3789H19.0039L27.5878 54.3657V54.731L21.7455 58.1254H21.1131L12.5293 53.1385V52.7732L18.3715 49.3789Z" fill="#F7EDD4"/>
<path d="M29.6344 62.9145L30.2872 63.2921L29.4386 58.3833L28.9327 56.3598L28.6186 56.0273L28.0352 56.0397L29.6344 62.9145Z" fill="#362C29"/>
<path d="M18.082 69.6223L19.718 60.6952L20.0158 59.9688L20.9175 60.1534L20.5299 61.0769L20.4973 61.0646L18.7389 69.9999L18.082 69.6223Z" fill="#362C29"/>
<path d="M20.0156 59.9725L20.6684 60.3501L21.5823 59.7508L20.5297 59.4102L20.0156 59.9725Z" fill="#0A0808"/>
<path d="M27.5879 55.3026L28.155 55.8936L28.7588 55.6473L28.1019 55.2656L27.5879 55.3026Z" fill="#0A0808"/>
<path d="M20.5312 59.4089L21.184 59.7865L24.9986 57.8738L28.2461 55.6862L27.5893 55.3086L20.5312 59.4089Z" fill="#574943"/>
<path d="M28.1585 56.182L21.2677 60.1879L20.9332 60.5491L20.7374 61.0375L19.1381 69.7675L18.7383 69.9974L20.3743 61.0744L20.668 60.3439L21.1821 59.7816L28.2442 55.6813L28.7582 55.6484L29.052 56.0343L30.6879 63.061L30.2881 63.2908L28.6889 56.4201L28.4889 56.1615L28.1585 56.182Z" fill="#0A0808"/>
<path d="M11.3518 54.0755L10.699 53.6938L9.92383 50.7305L10.8173 50.9726L11.3518 54.0755Z" fill="#362C29"/>
<path d="M10.5807 51.1068L10.8173 50.9714L10.1564 50.5938L9.92383 50.7292L10.5807 51.1068Z" fill="#574943"/>
<path d="M11.3531 54.0756L11.5938 53.936L10.8187 50.9727L10.582 51.1081L11.3531 54.0756Z" fill="#0A0808"/>
<path d="M10.5807 51.113L9.92383 50.7354V42.4609L10.8173 42.7113L10.5807 51.113Z" fill="#362C29"/>
<path d="M10.5807 42.8453L10.8173 42.7098L10.1564 42.3281L9.92383 42.4595L10.5807 42.8453Z" fill="#574943"/>
<path d="M10.582 51.1087L10.7248 51.1867L10.8187 50.9733V42.707L10.582 42.8425V51.1087Z" fill="#0A0808"/>
<path d="M18.3594 47.5455L19.5547 48.8671L20.5053 47.882L20.1871 47.332L18.3594 47.5455Z" fill="#EFCFA3"/>
<path d="M11.0781 42.6514L18.7807 48.1472L20.1842 47.3345L11.6003 42.3477L11.0781 42.6514Z" fill="#F7EDD4"/>
<path d="M18.8457 48.8432L19.9799 52.5905L20.5062 52.2909V47.8828L18.8457 48.8432Z" fill="#D9BE93"/>
<path d="M10.7656 47.241L11.0798 47.791L19.6636 52.7779L19.9778 52.5932V48.1851L19.6636 47.6351L11.0798 42.6523L10.7656 42.8329V47.241Z" fill="#574943"/>
<path d="M17.8652 47.8259L19.0647 49.1516L19.9786 48.1789L19.6644 47.6289L17.8652 47.8259Z" fill="#0A0808"/>
<path d="M10.5859 42.9355L18.2926 48.4354L19.6634 47.6351L11.0796 42.6523L10.5859 42.9355Z" fill="#574943"/>
<path d="M18.3496 49.1317L19.4879 52.879L19.9774 52.5917V48.1836L18.3496 49.1317Z" fill="#211A1A"/>
<path d="M10.2715 47.5264L10.5856 48.0764L19.1695 53.0591L19.4877 52.8785V48.4704L19.1695 47.9204L10.5856 42.9336L10.2715 43.1183V47.5264Z" fill="#362C29"/>
<path d="M21.1818 59.7865L20.5291 59.4089L19.7539 56.4414L20.6474 56.6918L21.1818 59.7865Z" fill="#362C29"/>
<path d="M20.4108 56.822L20.6474 56.6866L19.9865 56.3008L19.7539 56.4362L20.4108 56.822Z" fill="#574943"/>
<path d="M21.1812 59.7822L21.4219 59.6468L20.6467 56.6875L20.4101 56.8229L21.1812 59.7822Z" fill="#0A0808"/>
<path d="M20.4108 56.828L19.7539 56.4422V48.1719L20.6474 48.4222L20.4108 56.828Z" fill="#362C29"/>
<path d="M20.4108 48.5564L20.6474 48.421L19.9865 48.0352L19.7539 48.1706L20.4108 48.5564Z" fill="#574943"/>
<path d="M20.4101 56.8238L20.5529 56.8935L20.6467 56.6883V48.418L20.4101 48.5534V56.8238Z" fill="#0A0808"/>
<path opacity="0.3" d="M31.175 67.684L40.9338 62.0159L38.8449 60.7969L29.082 66.4691L31.175 67.684Z" fill="black"/>
<path d="M31.2532 67.3622L40.547 61.969V57.0273L30.4413 61.9321L31.2532 67.3622Z" fill="#0A0808"/>
<path opacity="0.3" d="M31.2539 64.8955L40.5476 59.4941V57.0273L31.2539 62.4246V64.8955Z" fill="black"/>
<path d="M31.4101 60.3244L40.7039 54.2582L40.0919 53.1992L29.9414 58.0999L31.4101 60.3244Z" fill="#211A1A"/>
<path d="M31.4102 64.5968L40.7039 59.1954V54.2578L31.4102 59.6551L31.0471 61.6991L31.4102 64.5968Z" fill="#0A0808"/>
<path d="M29.4843 58.6154V66.3399L30.0024 66.8283L30.7368 67.2388L31.2549 67.3496V59.6415L30.7368 58.7386L30.0024 58.3281L29.4843 58.6154Z" fill="#362C29"/>
<path d="M31.2549 64.5126L30.443 60.7448L29.9412 59.0866L29.9657 58.7706L29.4843 58.6105L29.9412 58.1016L30.802 58.5982L31.4099 59.6571V64.5988L31.2549 64.5126Z" fill="#362C29"/>
<path d="M30.8022 58.5972L40.0919 53.2L39.2351 52.6992L29.9414 58.1006L30.8022 58.5972Z" fill="#574943"/>
<path d="M38.6035 59.2285V60.5871L39.6439 59.9837L39.6479 58.6211L38.6035 59.2285Z" fill="#BFA69D"/>
<path d="M38.4551 59.1406V60.5033L38.6028 60.5895V59.2309L38.4551 59.1406Z" fill="#E2D5C5"/>
<path d="M38.4551 59.1385L39.4954 58.5352L39.6464 58.6214L38.602 59.2288L38.4551 59.1385Z" fill="#F7F2E8"/>
<path d="M38.7793 59.6031L38.9384 59.7754L38.9751 59.6318L39.1016 59.4717L38.8894 59.4102L38.7793 59.6031Z" fill="#E6E1DD"/>
<path d="M38.7793 59.8273L38.918 59.9094L38.971 59.7739L38.918 59.6836L38.7793 59.6016V59.8273Z" fill="#E2D5C5"/>
<path d="M38.918 59.6868V59.9126L39.0322 59.9783L39.5055 59.6992L39.6197 59.5063V59.2805L39.5055 59.2148L39.0322 59.4898L38.918 59.6868Z" fill="#BFA69D"/>
<path d="M39.0332 59.494L39.5064 59.219L39.3636 59.1328L38.8904 59.4119L39.0332 59.494Z" fill="#F7F2E8"/>
<path d="M32.752 62.627V63.9855L33.7964 63.3822V62.0195L32.752 62.627Z" fill="#BFA69D"/>
<path d="M32.6035 62.5391V63.8976L32.7513 63.9838V62.6253L32.6035 62.5391Z" fill="#E2D5C5"/>
<path d="M32.6035 62.541L33.6479 61.9336L33.7948 62.0198L32.7504 62.6272L32.6035 62.541Z" fill="#F7F2E8"/>
<path d="M32.9238 62.9978L33.087 63.1743L33.1278 63.0306L33.2502 62.8706L33.034 62.8008L32.9238 62.9978Z" fill="#E6E1DD"/>
<path d="M32.9238 63.2257L33.0707 63.3078L33.1237 63.1765L33.0707 63.0821L32.9238 63V63.2257Z" fill="#E2D5C5"/>
<path d="M33.0623 63.0853V63.311L33.1724 63.3767L33.6457 63.0976L33.7558 62.9047V62.679L33.6457 62.6133L33.1724 62.8883L33.0623 63.0853Z" fill="#BFA69D"/>
<path d="M33.18 62.8883L33.6533 62.6133L33.5105 62.5312L33.0331 62.8021L33.18 62.8883Z" fill="#F7F2E8"/>
<path d="M36.6728 54.5743H36.9012L37.0644 54.4799V54.3444L36.9012 54.25H36.6728L36.5137 54.3444V54.4799L36.6728 54.5743Z" fill="#E6E1DD"/>
<path d="M36.903 54.5788L37.0662 54.4844V54.6978L36.903 54.7922L36.8907 54.5952L36.903 54.5788Z" fill="#A39C95"/>
<path d="M36.6745 54.5703H36.903V54.7837H36.6745L36.6582 54.5826L36.6745 54.5703Z" fill="#BFB8AF"/>
<path d="M36.5137 54.4844L36.6737 54.5788V54.7922L36.5137 54.6978V54.4844Z" fill="#D8D1C7"/>
<path d="M36.7167 53.4386H36.8513L36.9411 53.3852V53.3073L36.8513 53.2539H36.7167L36.627 53.3073V53.3852L36.7167 53.4386Z" fill="#785B56"/>
<path d="M36.852 53.4362L36.9423 53.3828V54.4335L36.852 54.4828L36.8438 53.4444L36.852 53.4362Z" fill="#574943"/>
<path d="M36.7211 53.4375H36.8565V54.4841H36.7211L36.7129 53.4416L36.7211 53.4375Z" fill="#362C29"/>
<path d="M36.627 53.3828L36.7173 53.4362V54.4828L36.627 54.4335V53.3828Z" fill="#0A0808"/>
<path d="M33.1066 56.6444H33.335L33.4982 56.55V56.4186L33.335 56.3242H33.1066L32.9434 56.4186V56.55L33.1066 56.6444Z" fill="#E6E1DD"/>
<path d="M33.3366 56.6413L33.4998 56.5469V56.7644L33.3366 56.8588L33.3243 56.6577L33.3366 56.6413Z" fill="#A39C95"/>
<path d="M33.1083 56.6445H33.3368V56.8621H33.1083L33.0879 56.6568L33.1083 56.6445Z" fill="#BFB8AF"/>
<path d="M32.9434 56.5469L33.1075 56.6413V56.8588L32.9434 56.7644V56.5469Z" fill="#D8D1C7"/>
<path d="M33.152 55.5089H33.2826L33.3764 55.4515V55.3776L33.2826 55.3242H33.152L33.0623 55.3776V55.4515L33.152 55.5089Z" fill="#785B56"/>
<path d="M33.2836 55.5106L33.378 55.4531V56.5038L33.2836 56.5613L33.2754 55.5188L33.2836 55.5106Z" fill="#574943"/>
<path d="M33.1547 55.5117H33.286V56.5624H33.1547L33.1465 55.5158L33.1547 55.5117Z" fill="#362C29"/>
<path d="M33.0623 55.4531L33.1526 55.5106V56.5613L33.0623 56.5038V55.4531Z" fill="#0A0808"/>
<path d="M36.9592 53.0898L36.7716 52.7614L36.5023 52.6055L36.3105 52.7163V53.0282L36.5023 53.3566L36.7716 53.5125L36.9592 53.4017V53.0898Z" fill="#BFB8AF"/>
<path d="M36.7693 52.7582L36.5 52.6023L36.8019 52.4258L37.0712 52.5817L36.8019 52.7623L36.7693 52.7582Z" fill="#E6E1DD"/>
<path d="M36.9572 53.0869L36.7695 52.7585L37.0714 52.582L37.2632 52.9104L36.9898 53.1033L36.9572 53.0869Z" fill="#D8D1C7"/>
<path d="M36.959 53.3986V53.0866L37.265 52.9102V53.2221L36.959 53.3986Z" fill="#A39C95"/>
<path d="M33.5862 54.9895L33.4516 54.7514L33.2598 54.6406L33.1211 54.7186V54.9443L33.2598 55.1824L33.4516 55.2932L33.5862 55.2152V54.9895Z" fill="#785B56"/>
<path d="M33.4515 54.7535L33.2598 54.6427L36.5358 52.7383L36.7317 52.8491L33.476 54.7576L33.4515 54.7535Z" fill="#836E69"/>
<path d="M33.5878 54.9941L33.4531 54.756L36.7333 52.8516L36.8679 53.0937L33.6122 55.0064L33.5878 54.9941Z" fill="#685750"/>
<path d="M33.5859 55.2198V54.9941L36.8661 53.0938V53.3154L33.5859 55.2198Z" fill="#403531"/>
<path d="M33.3948 55.164L33.203 54.8315L32.9338 54.6797L32.7461 54.7864V55.1024L32.9338 55.4308L33.203 55.5868L33.3948 55.4759V55.164Z" fill="#BFB8AF"/>
<path d="M33.2029 54.8323L32.9336 54.6804L33.2437 54.5039L33.5088 54.6558L33.2396 54.8405L33.2029 54.8323Z" fill="#E6E1DD"/>
<path d="M33.391 55.1613L33.1992 54.8288L33.5052 54.6523L33.697 54.9848L33.4236 55.1777L33.391 55.1613Z" fill="#D8D1C7"/>
<path d="M33.3926 55.4728V55.1609L33.6986 54.9844V55.2963L33.3926 55.4728Z" fill="#A39C95"/>
<path opacity="0.3" d="M52.6621 62.9797L47.7949 60.1518L61.5723 52.1523L66.4354 54.9762L52.6621 62.9797Z" fill="black"/>
<path d="M66.5053 48.1957L65.7832 48.1875V50.1084L66.1504 50.8471L66.5053 50.6419V48.1957Z" fill="#231F20"/>
<path d="M66.1499 48.4086L61.2011 45.5273V47.9777L66.1499 50.8507V48.4086Z" fill="#414042"/>
<path d="M60.8944 45.3516V52.1402L65.4882 54.8081L65.6474 53.507V47.8388L60.8944 45.3516Z" fill="#857F79"/>
<path d="M52.5586 57.1774L52.6075 62.3613L65.5608 54.8379V49.6992L52.5586 57.1774ZM65.1406 53.935L64.8305 54.4767L53.142 61.2818L52.8319 61.1012V57.5879L53.142 57.042L64.8305 50.2574L65.1406 50.438V53.935Z" fill="#D8D1C7"/>
<path d="M48.4043 53.3711V60.1639L52.6677 62.6265L52.8268 61.3295V55.6654L48.4043 53.3711Z" fill="#D8D1C7"/>
<path d="M50.7733 60.7427V60.9602L50.2715 60.6647V55.2305L50.4592 55.3372L50.5571 60.3486L50.7733 60.7427Z" fill="#A39C95"/>
<path d="M50.7731 55.5245V60.7453L50.459 60.5606V55.3398L50.7731 55.5245Z" fill="#E6E1DD"/>
<path d="M52.668 55.8451V62.6379L65.8171 55.0037V48.2109L52.668 55.8451ZM65.3969 54.1007L65.0868 54.6425L53.4023 61.4312L53.0881 61.2506V59.3379L53.4023 58.792L65.0868 52.0034L65.3969 52.184V54.1007Z" fill="#A39C95"/>
<path d="M47.6973 47.7897L48.6764 46.0781L49.4556 46.6035L48.7702 48.159L47.6973 47.7897Z" fill="#6D6E71"/>
<path d="M65.5254 40.9062L66.5045 42.6178L65.8395 42.9708L64.7869 41.7066L65.5254 40.9062Z" fill="#6D6E71"/>
<path d="M54.0769 48.582H51.3516V50.823H54.0769V48.582Z" fill="#6D6E71"/>
<path d="M66.5028 42.6174L65.5236 42.0469L64.4262 42.2644L53.627 48.9587L52.6397 50.6661L51.6973 53.2067L52.6397 56.2481L66.5028 48.1994V42.6174Z" fill="#231F20"/>
<path d="M52.9996 56.0395L52.2734 56.0312V57.9562L52.6406 58.695L52.9996 58.4898V56.0395Z" fill="#231F20"/>
<path d="M52.642 50.6664L51.6669 48.959L48.6764 47.2188L47.6973 47.7934V55.8215L52.642 58.6987V50.6664Z" fill="#414042"/>
<path d="M49.7266 54.8905L49.8653 54.8125L50.4487 55.1491L50.2977 55.4733L49.7266 54.8905Z" fill="#808285"/>
<path d="M50.2988 55.2305L50.4498 55.1484L50.8578 55.8544L50.7068 56.6096L50.2988 55.2305Z" fill="#6D6E71"/>
<path d="M50.7051 55.9458L50.8569 55.8555V56.5327L50.7051 56.6107V55.9458Z" fill="#231F20"/>
<path d="M50.3019 56.8568L50.7099 56.6065V55.9415L50.3019 55.2274L49.7308 54.8867L49.3105 55.133V55.7979L49.7308 56.508L50.3019 56.8568Z" fill="#58595B"/>
<path d="M49.5759 55.2118L49.7432 55.1133L50.2042 55.376L50.0329 55.6715L49.5759 55.2118Z" fill="#FA5C52"/>
<path d="M50.0391 55.4778L50.2063 55.3711L50.5368 55.9457L50.3695 56.586L50.0391 55.4778Z" fill="#AB281F"/>
<path d="M50.3691 56.0399L50.5364 55.9414V56.475L50.3691 56.5817V56.0399Z" fill="#8A1C14"/>
<path d="M50.0392 56.7829L50.3696 56.59V56.0482L50.0392 55.4818L49.5782 55.2109L49.2559 55.3997V55.9415L49.5782 56.512L50.0392 56.7829Z" fill="#C84030"/>
<path d="M65.5272 42.0412V40.9002L62.5408 39.1641H60.5784L48.6777 46.0759V47.221L51.6682 48.953H53.6306L65.5272 42.0412Z" fill="#58595B"/>
<path d="M64.2316 41.1407V41.5101L62.9832 41.6578L51.0336 46.5667H49.9688V46.1973L60.772 39.9258H62.1428L64.2316 41.1407Z" fill="#211A1A"/>
<path d="M64.2316 41.5118V41.9345L53.4325 48.206H52.0576L49.9688 46.9993V46.5684L60.772 40.2969H62.1428L64.2316 41.5118Z" fill="#E6E1DD"/>
<path d="M62.6177 41.8579L52.7895 47.5671L51.5859 46.8694L61.4182 41.1602L62.6177 41.8579Z" fill="#6CB5C4"/>
<path opacity="0.3" d="M76.5576 55.841L70.1973 52.1471L76.5576 48.4531L82.9139 52.1471L76.5576 55.841Z" fill="black"/>
<path d="M82.9973 43.2895L82.0508 43.2812V45.7931L82.5322 46.7577L82.9973 46.4909V43.2895Z" fill="#231F20"/>
<path d="M82.5313 43.5526L76.0607 39.793V42.9944L82.5313 46.7499V43.5526Z" fill="#414042"/>
<path d="M75.6621 39.5664V48.4401L81.6634 51.9288L81.8715 50.2255V42.813L75.6621 39.5664Z" fill="#857F79"/>
<path d="M76.4199 48.2829L76.4811 55.0552L81.7644 51.9851V45.2539L76.4199 48.2829ZM81.2177 50.8071L80.8097 51.5172L77.1787 53.6227L76.7707 53.3888V48.796L77.1787 48.0859L80.8097 45.9804L81.2177 46.2143V50.8071Z" fill="#D8D1C7"/>
<path d="M71.0059 43.2891V52.1586L76.5748 55.3929L76.7788 53.6937V46.2853L71.0059 43.2891Z" fill="#D8D1C7"/>
<path d="M74.0865 52.918V53.2012L73.4297 52.8195V45.7148L73.6745 45.8626L73.805 52.4009L74.0865 52.918Z" fill="#A39C95"/>
<path d="M74.082 46.0974V52.9148L73.6699 52.6727V45.8594L74.082 46.0974Z" fill="#E6E1DD"/>
<path d="M76.5605 46.5102V55.3839L82.1009 52.1702V43.3047L76.5605 46.5102ZM81.5542 50.9881L81.1462 51.6982L77.5152 53.8037L77.1072 53.5698V48.9728L77.5152 48.2628L81.1462 46.1531L81.5542 46.3912V50.9881Z" fill="#A39C95"/>
<path d="M70.0625 35.9945L71.3435 33.7617L72.3676 34.4472L71.4659 36.4788L70.0625 35.9945Z" fill="#6D6E71"/>
<path d="M81.7189 33.7617L82.9999 35.9945L82.1228 36.4542L80.752 34.8042L81.7189 33.7617Z" fill="#6D6E71"/>
<path d="M78.4036 37.0273H74.8379V39.9579H78.4036V37.0273Z" fill="#6D6E71"/>
<path d="M82.9994 35.9888L81.7183 35.25L80.2782 35.5332L77.8181 37.5156L76.5289 39.7484L75.8965 44.1114L76.5289 47.0419L82.9994 43.2823V35.9888Z" fill="#231F20"/>
<path d="M76.9953 46.7738L76.0529 46.7656V49.2775L76.5303 50.2461L76.9953 49.9712V46.7738Z" fill="#231F20"/>
<path d="M76.5289 39.7486L75.252 37.5158L71.3435 35.2461L70.0625 35.989V46.4839L76.5289 50.2435V39.7486Z" fill="#414042"/>
<path d="M72.7168 45.2667L72.9004 45.1641L73.6551 45.6032L73.4634 46.0301L72.7168 45.2667Z" fill="#808285"/>
<path d="M73.465 45.7081L73.6568 45.6055L74.1912 46.529L73.9995 47.5099L73.465 45.7081Z" fill="#6D6E71"/>
<path d="M74 46.6423L74.1918 46.5273V47.4139L74 47.5083V46.6423Z" fill="#231F20"/>
<path d="M73.4655 47.8352L74 47.5027V46.6367L73.4655 45.7009L72.7189 45.2617L72.1682 45.586V46.452L72.7189 47.3837L73.4655 47.8352Z" fill="#58595B"/>
<path d="M72.5196 45.6821L72.7399 45.5508L73.3437 45.8997L73.1193 46.2814L72.5196 45.6821Z" fill="#FA5C52"/>
<path d="M73.123 46.0335L73.3434 45.9062L73.7758 46.6491L73.5514 47.4864L73.123 46.0335Z" fill="#AB281F"/>
<path d="M73.5488 46.7761L73.7732 46.6406V47.3425L73.5488 47.4779V46.7761Z" fill="#8A1C14"/>
<path d="M73.1236 47.7358L73.552 47.4813V46.7795L73.1236 46.0284L72.5198 45.6836L72.0996 45.934V46.6358L72.5198 47.3787L73.1236 47.7358Z" fill="#C84030"/>
<path d="M81.7186 35.2518V33.7578L77.8184 31.4922H75.2522L71.3438 33.7578V35.2518L75.2522 37.5174H77.8184L81.7186 35.2518Z" fill="#58595B"/>
</svg>
