<svg xmlns="http://www.w3.org/2000/svg" width="9" height="14" fill="none" viewBox="0 0 9 14"><path fill="#28282B" d="M4.7498 0L4.98487 0.0532372C5.52916 0.166383 6.02211 0.473683 6.38451 0.92557C6.7469 1.37746 6.95766 1.94745 6.98253 2.54402C6.98253 4.09984 6.98253 5.65992 6.98253 7.21574C6.9723 7.59035 6.88139 7.95721 6.71692 8.28746C6.55246 8.61771 6.31895 8.90217 6.03487 9.11852C5.71846 9.388 5.34582 9.57048 4.94933 9.65029C4.55284 9.7301 4.14424 9.70493 3.75884 9.57672C3.37344 9.44851 3.02283 9.22129 2.73715 8.91454C2.45147 8.60779 2.23941 8.23066 2.11914 7.8159C2.04107 7.52814 2.00264 7.2296 2.00531 6.92981C2.00531 5.54142 2.00531 4.14895 2.00531 2.76056C1.98778 2.22806 2.11992 1.70225 2.38437 1.25197C2.64882 0.801695 3.03332 0.447864 3.4875 0.236876C3.69465 0.147423 3.90911 0.0790658 4.12809 0.0327L4.24951 0H4.7498Z"/><path fill="#28282B" d="M3.98775 12.9448V11.8421C3.77547 11.7931 3.55943 11.7525 3.34716 11.6994C2.488 11.4674 1.7162 10.9553 1.1372 10.2333C0.578319 9.59016 0.209041 8.78313 0.0759015 7.91395C0.0296456 7.49785 0.00426376 7.07923 1.52356e-05 6.66018C1.52356e-05 6.42334 1.52356e-05 6.1866 1.52356e-05 5.94975C-0.00101401 5.8071 0.0501419 5.66971 0.142348 5.56732C0.234555 5.46493 0.360519 5.40564 0.492906 5.40243C0.559435 5.40296 0.625097 5.41785 0.686323 5.44589C0.74755 5.47394 0.803058 5.51468 0.849572 5.56593C0.896085 5.61717 0.932828 5.67781 0.957478 5.74438C0.982128 5.81095 0.994202 5.88208 0.9932 5.95374C0.9932 6.39884 0.993311 6.84814 1.01226 7.29324C1.05109 8.22032 1.43006 9.09279 2.06597 9.71883C2.53847 10.2384 3.14651 10.5908 3.80932 10.7293C4.47214 10.8679 5.15839 10.7861 5.777 10.4947C6.35279 10.2756 6.86 9.88698 7.24123 9.37308C7.62246 8.85918 7.86243 8.24048 7.93383 7.58715C7.98199 7.05251 7.99977 6.51523 7.98695 5.97826C7.98133 5.89985 7.99137 5.82099 8.01657 5.74717C8.04177 5.67335 8.08154 5.60638 8.13299 5.55057C8.18443 5.49477 8.2464 5.45162 8.31475 5.42396C8.38309 5.3963 8.45607 5.38475 8.52889 5.39026C8.64218 5.39739 8.74955 5.44768 8.83151 5.53223C8.91347 5.61678 8.96474 5.73003 8.97625 5.85165C9.03331 6.65633 8.98744 7.46569 8.83984 8.2569C8.65217 9.00749 8.2969 9.6972 7.80501 10.266C7.2862 10.8979 6.61618 11.3642 5.86806 11.6136C5.58756 11.7035 5.29557 11.7605 4.99611 11.834V12.9284H5.15158C5.7505 12.9284 6.35321 12.9284 6.95212 12.9284C7.02001 12.9234 7.08802 12.9334 7.1522 12.9577C7.21639 12.982 7.27542 13.0203 7.32545 13.07C7.37548 13.1197 7.41546 13.1797 7.44316 13.2466C7.47087 13.3136 7.4856 13.3859 7.48647 13.4592C7.48551 13.5923 7.43961 13.7205 7.35728 13.8197C7.27495 13.9189 7.16195 13.9825 7.0393 13.9983H2.03951C1.90531 14.0096 1.77241 13.9631 1.67007 13.8689C1.56772 13.7748 1.50432 13.6406 1.49368 13.4961C1.48878 13.4207 1.49872 13.3451 1.52292 13.2742C1.54713 13.2032 1.58491 13.1385 1.63398 13.0845C1.68304 13.0305 1.74229 12.9883 1.80759 12.9607C1.87289 12.9331 1.94278 12.9208 2.01285 12.9244C2.54354 12.9244 3.0781 12.9244 3.61257 12.9244L3.98775 12.9448Z"/></svg>