<svg width="20" height="25" viewBox="0 0 20 25" fill="none" xmlns="http://www.w3.org/2000/svg">
<path d="M3.87032 24.9951C3.27067 25.0249 2.67255 24.9114 2.12471 24.664C1.57688 24.4166 1.09488 24.0422 0.718047 23.5714C0.385549 23.1894 0.157882 22.7265 0.0576871 22.2285C-0.042508 21.7306 -0.0117937 21.2149 0.146785 20.7326C0.854578 18.2739 2.28384 16.0882 4.2469 14.4625C6.08452 12.9903 8.41737 12.2935 10.7546 12.5188C13.8434 12.7405 16.1706 14.292 17.9477 16.7813C18.7544 17.9335 19.3888 19.1987 19.8306 20.5365C20.0962 21.334 20.0481 22.2037 19.6962 22.9665C19.3444 23.7294 18.7155 24.3272 17.9393 24.637C17.3593 24.8869 16.7335 25.0103 16.1029 24.9993L3.87032 24.9951Z" fill="#979797"/>
<path d="M10.0058 11.2614C9.27158 11.2637 8.54416 11.1201 7.86513 10.8389C7.18609 10.5577 6.56872 10.1443 6.0484 9.62254C5.52808 9.10075 5.11498 8.48074 4.83274 7.79798C4.5505 7.11522 4.40468 6.38309 4.40357 5.64349C4.40244 4.15009 4.98941 2.71724 6.03569 1.65925C7.08198 0.601254 8.50211 0.00451478 9.98458 0C11.4674 -6.81716e-06 12.8898 0.59224 13.94 1.64692C14.9901 2.70159 15.5823 4.13269 15.5868 5.62648C15.5879 6.36571 15.4444 7.09789 15.1645 7.78123C14.8845 8.46457 14.4737 9.08564 13.9554 9.60896C13.4371 10.1323 12.8215 10.5476 12.1438 10.8311C11.4661 11.1147 10.7396 11.2609 10.0058 11.2614Z" fill="#979797"/>
</svg>
