<svg width="16" height="16" viewBox="0 0 16 16" fill="none" xmlns="http://www.w3.org/2000/svg">
<path d="M12.7625 11.6887C12.8291 11.7274 12.8916 11.7726 12.9491 11.8237C13.8736 12.7427 14.7961 13.6636 15.7167 14.5865C15.8789 14.724 15.9798 14.9203 15.9973 15.1322C16.0148 15.3441 15.9474 15.5543 15.81 15.7166C15.6725 15.8788 15.4763 15.9798 15.2644 15.9973C15.0526 16.0148 14.8424 15.9474 14.6802 15.8099C14.6286 15.7668 14.5798 15.7151 14.531 15.6663L11.7921 12.9294L11.6515 12.7944C9.78252 14.2103 7.70685 14.6985 5.42449 14.1385C3.707 13.7246 2.20962 12.676 1.23299 11.2034C0.48824 10.1024 0.0636954 8.8162 0.00662331 7.48806C-0.0504488 6.15992 0.262214 4.84201 0.90977 3.68115C1.55733 2.52029 2.51432 1.56207 3.6742 0.91324C4.83407 0.264412 6.15124 -0.0495423 7.47897 0.00635015C8.8067 0.0622426 10.0929 0.485788 11.1941 1.2298C12.2954 1.97382 13.1686 3.00908 13.7164 4.22026C14.2641 5.43144 14.465 6.77097 14.2966 8.08961C14.1282 9.40826 13.5971 10.6542 12.7625 11.6887ZM12.7625 7.18276C12.7642 6.07698 12.4381 4.99551 11.8255 4.0751C11.2128 3.1547 10.3411 2.43667 9.32056 2.0118C8.30001 1.58693 7.17642 1.4743 6.09189 1.68815C5.00735 1.902 4.01055 2.43272 3.22751 3.21322C2.44447 3.99372 1.91035 4.98895 1.69268 6.07308C1.47501 7.15722 1.58356 8.28157 2.00461 9.30399C2.42566 10.3264 3.1403 11.201 4.05819 11.8172C4.97607 12.4333 6.05599 12.7634 7.16139 12.7657C7.89631 12.7695 8.62473 12.6278 9.30468 12.3488C9.98464 12.0699 10.6027 11.6591 11.1233 11.1402C11.6439 10.6213 12.0568 10.0044 12.3381 9.32526C12.6194 8.64608 12.7637 7.91794 12.7625 7.18276Z" fill="#B4B4B4"/>
</svg>
