<svg width="51" height="18" viewBox="0 0 51 18" fill="none" xmlns="http://www.w3.org/2000/svg">
<path d="M10.692 11.436C10.692 12.408 10.332 13.236 9.612 13.92C8.904 14.592 7.872 15 6.516 15.144V17.16H5.04V15.162C4.152 15.102 3.312 14.94 2.52 14.676C1.728 14.412 1.098 14.076 0.63 13.668L1.44 11.85C1.884 12.21 2.424 12.516 3.06 12.768C3.696 13.008 4.356 13.158 5.04 13.218V9.618C4.188 9.414 3.474 9.192 2.898 8.952C2.334 8.7 1.86 8.34 1.476 7.872C1.092 7.392 0.9 6.762 0.9 5.982C0.9 5.01 1.254 4.182 1.962 3.498C2.67 2.814 3.696 2.406 5.04 2.274V0.239999H6.516V2.238C7.188 2.274 7.842 2.388 8.478 2.58C9.126 2.772 9.69 3.024 10.17 3.336L9.432 5.154C8.52 4.626 7.548 4.302 6.516 4.182V7.818C7.38 8.022 8.094 8.244 8.658 8.484C9.234 8.724 9.714 9.084 10.098 9.564C10.494 10.032 10.692 10.656 10.692 11.436ZM3.222 5.874C3.222 6.27 3.378 6.588 3.69 6.828C4.002 7.068 4.452 7.272 5.04 7.44V4.236C4.428 4.332 3.972 4.524 3.672 4.812C3.372 5.1 3.222 5.454 3.222 5.874ZM6.516 13.182C7.152 13.086 7.62 12.9 7.92 12.624C8.232 12.348 8.388 12.006 8.388 11.598C8.388 11.19 8.226 10.866 7.902 10.626C7.578 10.374 7.116 10.164 6.516 9.996V13.182ZM17.3683 15.18C16.3603 15.18 15.4603 14.928 14.6683 14.424C13.8763 13.908 13.2523 13.164 12.7963 12.192C12.3403 11.208 12.1123 10.044 12.1123 8.7C12.1123 7.356 12.3403 6.198 12.7963 5.226C13.2523 4.242 13.8763 3.498 14.6683 2.994C15.4603 2.478 16.3603 2.22 17.3683 2.22C18.3763 2.22 19.2763 2.478 20.0683 2.994C20.8723 3.498 21.5023 4.242 21.9583 5.226C22.4143 6.198 22.6423 7.356 22.6423 8.7C22.6423 10.044 22.4143 11.208 21.9583 12.192C21.5023 13.164 20.8723 13.908 20.0683 14.424C19.2763 14.928 18.3763 15.18 17.3683 15.18ZM17.3683 13.146C18.2683 13.146 18.9763 12.774 19.4923 12.03C20.0203 11.286 20.2843 10.176 20.2843 8.7C20.2843 7.224 20.0203 6.114 19.4923 5.37C18.9763 4.626 18.2683 4.254 17.3683 4.254C16.4803 4.254 15.7723 4.626 15.2443 5.37C14.7283 6.114 14.4703 7.224 14.4703 8.7C14.4703 10.176 14.7283 11.286 15.2443 12.03C15.7723 12.774 16.4803 13.146 17.3683 13.146ZM25.4167 15.126C25.0087 15.126 24.6607 14.988 24.3727 14.712C24.0847 14.424 23.9407 14.064 23.9407 13.632C23.9407 13.188 24.0787 12.828 24.3547 12.552C24.6427 12.276 24.9967 12.138 25.4167 12.138C25.8367 12.138 26.1847 12.276 26.4607 12.552C26.7487 12.828 26.8927 13.188 26.8927 13.632C26.8927 14.064 26.7487 14.424 26.4607 14.712C26.1727 14.988 25.8247 15.126 25.4167 15.126ZM33.4523 15.18C32.4443 15.18 31.5443 14.928 30.7523 14.424C29.9603 13.908 29.3363 13.164 28.8803 12.192C28.4243 11.208 28.1963 10.044 28.1963 8.7C28.1963 7.356 28.4243 6.198 28.8803 5.226C29.3363 4.242 29.9603 3.498 30.7523 2.994C31.5443 2.478 32.4443 2.22 33.4523 2.22C34.4603 2.22 35.3603 2.478 36.1523 2.994C36.9563 3.498 37.5863 4.242 38.0423 5.226C38.4983 6.198 38.7263 7.356 38.7263 8.7C38.7263 10.044 38.4983 11.208 38.0423 12.192C37.5863 13.164 36.9563 13.908 36.1523 14.424C35.3603 14.928 34.4603 15.18 33.4523 15.18ZM33.4523 13.146C34.3523 13.146 35.0603 12.774 35.5763 12.03C36.1043 11.286 36.3683 10.176 36.3683 8.7C36.3683 7.224 36.1043 6.114 35.5763 5.37C35.0603 4.626 34.3523 4.254 33.4523 4.254C32.5643 4.254 31.8563 4.626 31.3283 5.37C30.8123 6.114 30.5543 7.224 30.5543 8.7C30.5543 10.176 30.8123 11.286 31.3283 12.03C31.8563 12.774 32.5643 13.146 33.4523 13.146ZM45.5636 15.18C44.5556 15.18 43.6556 14.928 42.8636 14.424C42.0716 13.908 41.4476 13.164 40.9916 12.192C40.5356 11.208 40.3076 10.044 40.3076 8.7C40.3076 7.356 40.5356 6.198 40.9916 5.226C41.4476 4.242 42.0716 3.498 42.8636 2.994C43.6556 2.478 44.5556 2.22 45.5636 2.22C46.5716 2.22 47.4716 2.478 48.2636 2.994C49.0676 3.498 49.6976 4.242 50.1536 5.226C50.6096 6.198 50.8376 7.356 50.8376 8.7C50.8376 10.044 50.6096 11.208 50.1536 12.192C49.6976 13.164 49.0676 13.908 48.2636 14.424C47.4716 14.928 46.5716 15.18 45.5636 15.18ZM45.5636 13.146C46.4636 13.146 47.1716 12.774 47.6876 12.03C48.2156 11.286 48.4796 10.176 48.4796 8.7C48.4796 7.224 48.2156 6.114 47.6876 5.37C47.1716 4.626 46.4636 4.254 45.5636 4.254C44.6756 4.254 43.9676 4.626 43.4396 5.37C42.9236 6.114 42.6656 7.224 42.6656 8.7C42.6656 10.176 42.9236 11.286 43.4396 12.03C43.9676 12.774 44.6756 13.146 45.5636 13.146Z" fill="white"/>
</svg>
