<svg width="10" height="5" viewBox="0 0 10 5" fill="none" xmlns="http://www.w3.org/2000/svg">
<path d="M0 0.532209C0.0362607 0.377825 0.130512 0.238573 0.267672 0.136731C0.390175 0.0523745 0.54141 0.00652347 0.697154 0.00652347C0.852897 0.00652347 1.00413 0.0523745 1.12664 0.136731C1.1744 0.170936 1.22016 0.207227 1.26376 0.245465L4.91025 3.43817C4.94533 3.47384 4.98468 3.5061 5.02763 3.53439C5.04212 3.50231 5.0617 3.47219 5.08577 3.4449C6.31223 2.3672 7.53906 1.29045 8.76626 0.214672C8.85891 0.120568 8.98168 0.0530846 9.11863 0.0209946C9.25558 -0.0110954 9.40037 -0.00630797 9.53417 0.0347346C9.63712 0.0665526 9.73012 0.119112 9.80569 0.188188C9.88127 0.257264 9.93731 0.340929 9.96932 0.432459C10.0013 0.523989 10.0084 0.620832 9.99 0.715198C9.97158 0.809565 9.92817 0.898824 9.86328 0.975802C9.83098 1.01168 9.79656 1.04605 9.76016 1.07876L5.53335 4.78626C5.27007 5.0172 4.94316 5.06434 4.64587 4.91135C4.57432 4.87151 4.50872 4.824 4.4506 4.7699C3.07713 3.5671 1.7044 2.36431 0.332396 1.16151C0.17237 1.03999 0.0577031 0.879064 0.00329092 0.69964L0 0.532209Z" fill="white"/>
</svg>
