<svg width="10" height="14" viewBox="0 0 10 14" fill="none" xmlns="http://www.w3.org/2000/svg">
<path d="M9.60459 3.11663C9.27763 2.30162 8.74365 1.58906 8.05687 1.05127C7.37009 0.51348 6.55498 0.169732 5.69465 0.0550072C5.55141 0.0314557 5.40833 0.015701 5.26897 0H4.72685L4.44823 0.0314327C3.38985 0.142078 2.39686 0.602721 1.62233 1.34241C0.982216 1.92202 0.504929 2.66319 0.239056 3.49056C-0.0268167 4.31793 -0.0718479 5.20198 0.10863 6.05271C0.30449 6.97993 0.637217 7.87195 1.09571 8.69842C2.06662 10.5107 3.23531 12.2065 4.57979 13.7541C4.62022 13.8286 4.67962 13.8906 4.7518 13.9339C4.82398 13.9771 4.90631 14 4.99016 14C5.074 14 5.15634 13.9771 5.22852 13.9339C5.30069 13.8906 5.36009 13.8286 5.40053 13.7541C6.58402 12.3879 7.63662 10.9105 8.54398 9.34202C9.05317 8.4777 9.45984 7.55542 9.75562 6.59435C10.1273 5.45549 10.0735 4.21796 9.60459 3.11663ZM4.98241 7.62281C4.65028 7.61922 4.32207 7.5492 4.01669 7.41677C3.7113 7.28434 3.43472 7.09202 3.20275 6.85098C2.97079 6.60994 2.78807 6.32488 2.66498 6.01207C2.54189 5.69927 2.48099 5.36502 2.4856 5.02827C2.4968 4.35534 2.7692 3.71406 3.24396 3.2437C3.71871 2.77334 4.35741 2.51192 5.02116 2.51615C5.68923 2.52546 6.32646 2.80289 6.79306 3.28778C7.25967 3.77267 7.51764 4.4254 7.51041 5.10283C7.50427 5.77782 7.23494 6.42281 6.76131 6.89717C6.28768 7.37153 5.64813 7.6366 4.98241 7.6345V7.62281Z" fill="white"/>
</svg>
