<svg width="15" height="14" viewBox="0 0 15 14" fill="none" xmlns="http://www.w3.org/2000/svg">
<path d="M0 6.89975V6.20064C0.00681846 6.15671 0.00681846 6.11201 0 6.06807C0.0555587 5.44481 0.210795 4.83441 0.459819 4.25998C1.15021 2.70193 2.40252 1.45873 3.96895 0.776383C5.60549 0.00476288 7.45419 -0.198935 9.22046 0.197782C10.978 0.531364 12.5576 1.48061 13.6734 2.87375C14.4806 3.85243 14.9438 5.0675 14.9923 6.33322C15.0327 7.11441 14.913 7.89562 14.6405 8.62923C14.368 9.36284 13.9484 10.0335 13.4073 10.6003C12.6904 11.3912 11.8174 12.0263 10.843 12.466C9.86868 12.9057 8.81381 13.1404 7.74425 13.1557C6.73346 13.1988 5.72363 13.0516 4.76761 12.7218C4.7094 12.6984 4.64429 12.6984 4.58608 12.7218C4.38037 12.8665 4.19888 13.0352 3.99317 13.1799C3.20222 13.7094 2.27185 13.9945 1.3189 13.9995C1.2146 14.0044 1.11215 13.9718 1.02998 13.9076C0.947802 13.8434 0.891377 13.752 0.871189 13.65C0.856328 13.5614 0.866674 13.4705 0.900879 13.3875C0.935084 13.3044 0.991832 13.2325 1.06484 13.1799C1.34742 12.8716 1.55374 12.5017 1.66719 12.0999C1.78065 11.698 1.79815 11.2753 1.7183 10.8655C1.69683 10.7867 1.65985 10.7129 1.60944 10.6485C0.745003 9.70805 0.191565 8.52562 0.0242243 7.26139C0.0363247 7.17702 0.0242007 7.0444 0 6.89975ZM2.71047 6.58638C2.70395 6.93282 2.83508 7.26779 3.07531 7.51838C3.31553 7.76897 3.64547 7.91487 3.99317 7.92434C4.34325 7.92771 4.68079 7.79479 4.93393 7.55388C5.18707 7.31296 5.33581 6.98309 5.3484 6.63457C5.35161 6.46102 5.32018 6.28856 5.25609 6.12715C5.192 5.96574 5.09651 5.81859 4.975 5.69418C4.85348 5.56977 4.70848 5.4706 4.54826 5.40236C4.38805 5.33412 4.21571 5.29816 4.04147 5.2966C3.69373 5.29336 3.35885 5.42707 3.10958 5.66861C2.8603 5.91016 2.71683 6.24001 2.71047 6.58638ZM7.5506 7.92434C7.8986 7.92457 8.23314 7.79023 8.48368 7.54965C8.73422 7.30906 8.88118 6.981 8.89372 6.63457C8.89693 6.46202 8.86607 6.29054 8.80273 6.12991C8.7394 5.96927 8.64483 5.82266 8.5246 5.69841C8.40436 5.57416 8.26082 5.47472 8.102 5.40578C7.94318 5.33684 7.77227 5.29974 7.59905 5.2966C7.42584 5.29341 7.25366 5.32422 7.09241 5.38731C6.93116 5.45041 6.78405 5.54454 6.65933 5.66431C6.5346 5.78408 6.43474 5.92715 6.36553 6.08536C6.29632 6.24357 6.25908 6.41383 6.25593 6.58638C6.25244 6.92992 6.38288 7.2614 6.61989 7.51098C6.85689 7.76057 7.18185 7.90875 7.52638 7.92434H7.5506ZM11.0961 5.2966C10.7493 5.29968 10.4174 5.43747 10.1711 5.68061C9.92478 5.92374 9.78346 6.25302 9.77717 6.59841C9.77711 6.94593 9.914 7.2796 10.1584 7.52757C10.4028 7.77555 10.7352 7.91803 11.084 7.92434C11.4349 7.92436 11.7716 7.78632 12.0209 7.54027C12.2701 7.29421 12.4118 6.96004 12.415 6.61047C12.4086 6.25981 12.2644 5.92567 12.0132 5.67994C11.762 5.43421 11.4239 5.29654 11.0718 5.2966H11.0961Z" fill="#C6960C"/>
</svg>
