<svg width="30" height="30" viewBox="0 0 30 30" fill="none" xmlns="http://www.w3.org/2000/svg">
<path d="M12.3731 0.0025979C12.8414 0.0791612 13.3123 0.145348 13.7793 0.234888C18.2989 1.09525 22.0726 4.98441 22.86 9.51463C23.912 15.5229 20.1137 20.9264 14.6277 22.5434C12.2255 23.2738 9.64593 23.1612 7.31649 22.2241C7.24785 22.1933 7.17174 22.183 7.09737 22.1945C7.023 22.206 6.95357 22.2388 6.89748 22.289C4.88676 23.6295 2.79949 23.7619 0.644782 22.6589C0.125886 22.3993 -0.0453446 21.8569 0.24394 21.3742C1.32194 19.5808 1.48539 17.7043 0.857531 15.7189C0.554793 14.7927 0.315116 13.8471 0.140154 12.8886C-0.215289 10.8201 0.1194 8.81388 0.984658 6.91926C2.65939 3.26628 5.49906 1.03166 9.42969 0.194653C9.85648 0.103815 10.2937 0.0648842 10.7269 0L12.3731 0.0025979ZM2.34806 21.4365C2.3674 21.4449 2.38736 21.4518 2.40774 21.4572C2.46352 21.4741 2.51929 21.4897 2.57637 21.5013C3.94755 21.7816 5.17085 21.4741 6.22291 20.5488C6.61208 20.2024 7.00126 20.131 7.47734 20.3529C9.21112 21.1681 11.1544 21.4274 13.0412 21.0952C18.1549 20.2387 22.092 15.3944 21.1113 9.80531C20.2499 4.89098 15.5462 1.28473 10.5816 1.83754C7.24385 2.20868 4.71423 3.88917 3.03949 6.79339C2.0017 8.59328 1.56971 10.5567 1.90699 12.6226C2.07044 13.627 2.39476 14.6067 2.67237 15.5891C3.00446 16.757 3.15105 17.9483 2.93181 19.1473C2.7982 19.9078 2.55432 20.6488 2.34806 21.4365Z" fill="white"/>
<path d="M30 18.8618C29.9027 19.4653 29.8339 20.0752 29.7003 20.6708C29.5834 21.2034 29.4256 21.7262 29.2281 22.2345C28.4758 24.1681 28.6729 26.0121 29.6653 27.8068C29.7905 28.0332 29.862 28.2854 29.8742 28.5439C29.8833 28.8813 29.6536 29.1148 29.3553 29.2654C27.2088 30.3546 25.1332 30.2326 23.1285 28.8994C23.0628 28.8465 22.9838 28.8124 22.9001 28.801C22.8165 28.7896 22.7313 28.8012 22.6537 28.8346C18.4247 30.3243 14.549 29.6755 11.0266 26.888C10.579 26.5325 10.5168 25.9693 10.8528 25.5722C11.1888 25.1751 11.7245 25.1582 12.1591 25.5177C14.0959 27.1229 16.3271 27.8769 18.836 27.8146C20.0782 27.7942 21.3023 27.5135 22.4293 26.9905C22.9793 26.731 23.3997 26.7907 23.8563 27.1969C24.8941 28.1052 26.1213 28.3583 27.4639 28.0897C27.5418 28.0697 27.6185 28.045 27.6935 28.0157C27.5119 27.4253 27.3043 26.8595 27.1655 26.2768C26.8224 24.7933 26.9304 23.241 27.4756 21.8193C28.804 18.2442 28.3629 14.9312 26.0162 11.8985C25.6594 11.4378 25.6867 10.8915 26.0875 10.5697C26.4884 10.2478 27.028 10.3192 27.399 10.7773C28.8592 12.5646 29.7455 14.7516 29.9416 17.0516C29.9494 17.1463 29.9753 17.2384 29.9922 17.3332L30 18.8618Z" fill="white"/>
<path d="M6.35131 12.9561C6.166 12.9592 5.98195 12.9253 5.80988 12.8564C5.63781 12.7876 5.48119 12.6851 5.34918 12.5549C5.21717 12.4248 5.11241 12.2697 5.04102 12.0986C4.96964 11.9275 4.93307 11.7439 4.93344 11.5585C4.93275 11.1841 5.08056 10.8248 5.34444 10.5594C5.60833 10.2939 5.96672 10.1441 6.34094 10.1427C6.71026 10.1454 7.06392 10.2923 7.32641 10.5522C7.5889 10.8121 7.73942 11.1644 7.74584 11.5338C7.74929 11.7193 7.71577 11.9035 7.64725 12.0758C7.57873 12.2482 7.47658 12.4051 7.34675 12.5375C7.21693 12.6699 7.06205 12.7751 6.89114 12.847C6.72023 12.9189 6.53671 12.9559 6.35131 12.9561Z" fill="white"/>
<path d="M11.5299 12.9561C11.3446 12.9577 11.1609 12.9222 10.9896 12.8518C10.8182 12.7813 10.6627 12.6774 10.532 12.546C10.4014 12.4146 10.2983 12.2584 10.2289 12.0866C10.1594 11.9147 10.125 11.7308 10.1276 11.5455C10.1293 11.176 10.2759 10.8219 10.536 10.5595C10.7961 10.2971 11.1489 10.1475 11.5182 10.1427C11.8929 10.1427 12.2525 10.29 12.5195 10.553C12.7865 10.8159 12.9394 11.1733 12.9452 11.5481C12.9452 11.7336 12.9085 11.9174 12.8373 12.0887C12.7661 12.26 12.6617 12.4156 12.5302 12.5465C12.3987 12.6773 12.2426 12.7809 12.0709 12.8512C11.8992 12.9215 11.7154 12.9571 11.5299 12.9561Z" fill="white"/>
<path d="M16.7201 12.9561C16.5349 12.9561 16.3515 12.9195 16.1804 12.8486C16.0093 12.7776 15.8539 12.6735 15.723 12.5424C15.5922 12.4112 15.4885 12.2556 15.4178 12.0843C15.3472 11.913 15.311 11.7295 15.3113 11.5442C15.3181 11.1702 15.4715 10.8137 15.7383 10.5516C16.0052 10.2895 16.3643 10.1427 16.7383 10.1427C17.1075 10.1482 17.4598 10.2986 17.7193 10.5615C17.9787 10.8244 18.1244 11.1787 18.125 11.5481C18.1277 11.7335 18.0931 11.9176 18.0235 12.0894C17.9538 12.2612 17.8505 12.4174 17.7195 12.5486C17.5886 12.6798 17.4327 12.7835 17.261 12.8535C17.0894 12.9235 16.9055 12.9584 16.7201 12.9561Z" fill="white"/>
</svg>
