<svg width="25" height="30" viewBox="0 0 25 30" fill="none" xmlns="http://www.w3.org/2000/svg">
<path d="M12.4926 25.1108C10.2904 25.1331 8.11158 24.9277 5.92107 24.6481C5.41433 24.5838 4.89883 24.5363 4.40378 24.4273C1.66856 23.829 -0.231339 21.2922 0.0227595 18.6183C0.106523 17.6823 0.4181 16.7781 0.932548 15.9781C1.31662 15.3743 1.69192 14.7634 2.04679 14.1443C2.39107 13.5382 2.56233 12.8561 2.54331 12.1665C2.53162 11.0777 2.4849 9.98185 2.5842 8.90001C2.94344 5.01575 5.00543 2.22033 8.75996 0.733157C14.3662 -1.48642 20.5887 1.52986 22.1367 7.13611C22.3543 7.92722 22.4083 8.76725 22.4609 9.58911C22.5134 10.411 22.4915 11.2664 22.4609 12.105C22.4354 12.8375 22.6202 13.5627 22.9954 14.2016C23.3663 14.8389 23.7635 15.4595 24.1505 16.0899C25.9029 18.9357 24.8514 22.5376 21.849 24.0024C21.1127 24.341 20.3168 24.5453 19.5022 24.6048C17.6914 24.7795 15.8791 24.95 14.0668 25.0996C13.5411 25.1471 13.0139 25.1108 12.4926 25.1108ZM13.2987 23.0659C14.2844 22.9862 16.0544 22.859 17.8258 22.6955C18.6392 22.62 19.4672 22.5557 20.2514 22.3489C22.5149 21.7646 23.5211 19.2292 22.3221 17.229C21.9892 16.6699 21.6285 16.129 21.2897 15.5741C20.6048 14.4559 20.228 13.2511 20.2864 11.94C20.32 11.1671 20.3025 10.3928 20.2864 9.61846C20.2883 9.19363 20.2555 8.76929 20.1886 8.34932C19.4058 4.13101 15.387 1.47397 10.9884 2.25529C7.61506 2.85491 4.96455 5.70765 4.7674 8.99508C4.70607 10.028 4.71191 11.0651 4.73528 12.0994C4.76297 13.2161 4.47325 14.319 3.89704 15.2904C3.51005 15.9557 3.08363 16.6001 2.6908 17.264C1.43929 19.3773 2.64553 21.9673 5.10036 22.4355C5.4231 22.497 5.75459 22.5208 6.08171 22.5627C8.47263 22.8829 10.8831 23.0515 13.2972 23.0673L13.2987 23.0659Z" fill="white"/>
<path d="M12.2006 30C10.8717 29.9706 9.53983 29.3305 8.54972 28.0613C8.11161 27.5023 8.17441 26.8691 8.69575 26.5001C9.21709 26.1311 9.86402 26.2513 10.3021 26.8006C11.5025 28.2948 13.5587 28.292 14.7503 26.8006C15.1723 26.2681 15.8251 26.1395 16.3304 26.4903C16.8357 26.8411 16.9145 27.4911 16.5042 28.0502C15.5783 29.2718 14.1107 29.9944 12.2006 30Z" fill="white"/>
</svg>
